%TF.GenerationSoftware,KiCad,Pcbnew,8.0.4*%
%TF.CreationDate,2024-07-27T19:33:40+02:00*%
%TF.ProjectId,pcb_macropad,7063625f-6d61-4637-926f-7061642e6b69,rev?*%
%TF.SameCoordinates,Original*%
%TF.FileFunction,Drillmap*%
%TF.FilePolarity,Positive*%
%FSLAX45Y45*%
G04 Gerber Fmt 4.5, Leading zero omitted, Abs format (unit mm)*
G04 Created by KiCad (PCBNEW 8.0.4) date 2024-07-27 19:33:40*
%MOMM*%
%LPD*%
G01*
G04 APERTURE LIST*
%ADD10C,0.050000*%
%ADD11C,0.200000*%
%ADD12C,0.100000*%
%ADD13C,0.109220*%
%ADD14C,0.150000*%
G04 APERTURE END LIST*
D10*
X11334750Y-10690250D02*
G75*
G02*
X11134750Y-10890250I-200000J0D01*
G01*
X11134750Y-10890250D02*
X5819750Y-10890250D01*
X5819750Y-3349625D02*
X11134750Y-3349625D01*
X5619750Y-10690250D02*
X5619750Y-3549625D01*
X11334750Y-3549625D02*
X11334750Y-10690250D01*
X5819750Y-10890250D02*
G75*
G02*
X5619750Y-10690250I0J200000D01*
G01*
X5619750Y-3549625D02*
G75*
G02*
X5819750Y-3349630I199990J5D01*
G01*
X11134750Y-3349625D02*
G75*
G02*
X11334745Y-3549625I0J-199995D01*
G01*
D11*
D12*
X7906625Y-6747750D02*
X7936625Y-6777750D01*
X7936625Y-6747750D02*
X7906625Y-6777750D01*
X8224125Y-6747750D02*
X8254125Y-6777750D01*
X8254125Y-6747750D02*
X8224125Y-6777750D01*
X8303500Y-6906500D02*
X8333500Y-6936500D01*
X8333500Y-6906500D02*
X8303500Y-6936500D01*
X7485375Y-6397625D02*
G75*
G02*
X7405375Y-6397625I-40000J0D01*
G01*
X7405375Y-6397625D02*
G75*
G02*
X7485375Y-6397625I40000J0D01*
G01*
X7485375Y-7159625D02*
G75*
G02*
X7405375Y-7159625I-40000J0D01*
G01*
X7405375Y-7159625D02*
G75*
G02*
X7485375Y-7159625I40000J0D01*
G01*
X7485375Y-7588250D02*
G75*
G02*
X7405375Y-7588250I-40000J0D01*
G01*
X7405375Y-7588250D02*
G75*
G02*
X7485375Y-7588250I40000J0D01*
G01*
X7485375Y-8350250D02*
G75*
G02*
X7405375Y-8350250I-40000J0D01*
G01*
X7405375Y-8350250D02*
G75*
G02*
X7485375Y-8350250I40000J0D01*
G01*
X7485375Y-9493250D02*
G75*
G02*
X7405375Y-9493250I-40000J0D01*
G01*
X7405375Y-9493250D02*
G75*
G02*
X7485375Y-9493250I40000J0D01*
G01*
X7485375Y-10255250D02*
G75*
G02*
X7405375Y-10255250I-40000J0D01*
G01*
X7405375Y-10255250D02*
G75*
G02*
X7485375Y-10255250I40000J0D01*
G01*
X9390375Y-7588250D02*
G75*
G02*
X9310375Y-7588250I-40000J0D01*
G01*
X9310375Y-7588250D02*
G75*
G02*
X9390375Y-7588250I40000J0D01*
G01*
X9390375Y-8350250D02*
G75*
G02*
X9310375Y-8350250I-40000J0D01*
G01*
X9310375Y-8350250D02*
G75*
G02*
X9390375Y-8350250I40000J0D01*
G01*
X9390375Y-9493250D02*
G75*
G02*
X9310375Y-9493250I-40000J0D01*
G01*
X9310375Y-9493250D02*
G75*
G02*
X9390375Y-9493250I40000J0D01*
G01*
X9390375Y-10255250D02*
G75*
G02*
X9310375Y-10255250I-40000J0D01*
G01*
X9310375Y-10255250D02*
G75*
G02*
X9390375Y-10255250I40000J0D01*
G01*
X9549125Y-6397625D02*
G75*
G02*
X9469125Y-6397625I-40000J0D01*
G01*
X9469125Y-6397625D02*
G75*
G02*
X9549125Y-6397625I40000J0D01*
G01*
X9549125Y-7159625D02*
G75*
G02*
X9469125Y-7159625I-40000J0D01*
G01*
X9469125Y-7159625D02*
G75*
G02*
X9549125Y-7159625I40000J0D01*
G01*
X10295250Y-5254625D02*
G75*
G02*
X10215250Y-5254625I-40000J0D01*
G01*
X10215250Y-5254625D02*
G75*
G02*
X10295250Y-5254625I40000J0D01*
G01*
X10295250Y-7159625D02*
G75*
G02*
X10215250Y-7159625I-40000J0D01*
G01*
X10215250Y-7159625D02*
G75*
G02*
X10295250Y-7159625I40000J0D01*
G01*
X10295250Y-9064625D02*
G75*
G02*
X10215250Y-9064625I-40000J0D01*
G01*
X10215250Y-9064625D02*
G75*
G02*
X10295250Y-9064625I40000J0D01*
G01*
X11057250Y-5254625D02*
G75*
G02*
X10977250Y-5254625I-40000J0D01*
G01*
X10977250Y-5254625D02*
G75*
G02*
X11057250Y-5254625I40000J0D01*
G01*
X11057250Y-7159625D02*
G75*
G02*
X10977250Y-7159625I-40000J0D01*
G01*
X10977250Y-7159625D02*
G75*
G02*
X11057250Y-7159625I40000J0D01*
G01*
X11057250Y-9064625D02*
G75*
G02*
X10977250Y-9064625I-40000J0D01*
G01*
X10977250Y-9064625D02*
G75*
G02*
X11057250Y-9064625I40000J0D01*
G01*
X6651625Y-4569625D02*
X6651625Y-4669625D01*
X6601625Y-4619625D02*
X6701625Y-4619625D01*
X6905625Y-4569625D02*
X6905625Y-4669625D01*
X6855625Y-4619625D02*
X6955625Y-4619625D01*
X7159625Y-4569625D02*
X7159625Y-4669625D01*
X7109625Y-4619625D02*
X7209625Y-4619625D01*
X7413625Y-4569625D02*
X7413625Y-4669625D01*
X7363625Y-4619625D02*
X7463625Y-4619625D01*
X9577875Y-3922750D02*
X9577875Y-4022750D01*
X9527875Y-3972750D02*
X9627875Y-3972750D01*
X9577875Y-4172750D02*
X9577875Y-4272750D01*
X9527875Y-4222750D02*
X9627875Y-4222750D01*
X9577875Y-4422750D02*
X9577875Y-4522750D01*
X9527875Y-4472750D02*
X9627875Y-4472750D01*
X11027875Y-3922750D02*
X11027875Y-4022750D01*
X10977875Y-3972750D02*
X11077875Y-3972750D01*
X11027875Y-4422750D02*
X11027875Y-4522750D01*
X10977875Y-4472750D02*
X11077875Y-4472750D01*
D13*
X7746365Y-4176865D02*
X7746365Y-4099634D01*
X7669134Y-4099634D01*
X7669134Y-4176865D01*
X7746365Y-4176865D01*
X7746365Y-4430866D02*
X7746365Y-4353635D01*
X7669134Y-4353635D01*
X7669134Y-4430866D01*
X7746365Y-4430866D01*
X7746365Y-4684866D02*
X7746365Y-4607635D01*
X7669134Y-4607635D01*
X7669134Y-4684866D01*
X7746365Y-4684866D01*
X7746365Y-4938866D02*
X7746365Y-4861635D01*
X7669134Y-4861635D01*
X7669134Y-4938866D01*
X7746365Y-4938866D01*
X7746365Y-5192866D02*
X7746365Y-5115635D01*
X7669134Y-5115635D01*
X7669134Y-5192866D01*
X7746365Y-5192866D01*
X7746365Y-5446866D02*
X7746365Y-5369635D01*
X7669134Y-5369635D01*
X7669134Y-5446866D01*
X7746365Y-5446866D01*
X7746365Y-5700865D02*
X7746365Y-5623634D01*
X7669134Y-5623634D01*
X7669134Y-5700865D01*
X7746365Y-5700865D01*
X7746365Y-5954865D02*
X7746365Y-5877634D01*
X7669134Y-5877634D01*
X7669134Y-5954865D01*
X7746365Y-5954865D01*
X7746365Y-6208865D02*
X7746365Y-6131634D01*
X7669134Y-6131634D01*
X7669134Y-6208865D01*
X7746365Y-6208865D01*
X7746365Y-6462865D02*
X7746365Y-6385634D01*
X7669134Y-6385634D01*
X7669134Y-6462865D01*
X7746365Y-6462865D01*
X7746365Y-6716865D02*
X7746365Y-6639634D01*
X7669134Y-6639634D01*
X7669134Y-6716865D01*
X7746365Y-6716865D01*
X7746365Y-6970865D02*
X7746365Y-6893634D01*
X7669134Y-6893634D01*
X7669134Y-6970865D01*
X7746365Y-6970865D01*
X9270366Y-4176865D02*
X9270366Y-4099634D01*
X9193135Y-4099634D01*
X9193135Y-4176865D01*
X9270366Y-4176865D01*
X9270366Y-4430866D02*
X9270366Y-4353635D01*
X9193135Y-4353635D01*
X9193135Y-4430866D01*
X9270366Y-4430866D01*
X9270366Y-4684866D02*
X9270366Y-4607635D01*
X9193135Y-4607635D01*
X9193135Y-4684866D01*
X9270366Y-4684866D01*
X9270366Y-4938866D02*
X9270366Y-4861635D01*
X9193135Y-4861635D01*
X9193135Y-4938866D01*
X9270366Y-4938866D01*
X9270366Y-5192866D02*
X9270366Y-5115635D01*
X9193135Y-5115635D01*
X9193135Y-5192866D01*
X9270366Y-5192866D01*
X9270366Y-5446866D02*
X9270366Y-5369635D01*
X9193135Y-5369635D01*
X9193135Y-5446866D01*
X9270366Y-5446866D01*
X9270366Y-5700865D02*
X9270366Y-5623634D01*
X9193135Y-5623634D01*
X9193135Y-5700865D01*
X9270366Y-5700865D01*
X9270366Y-5954865D02*
X9270366Y-5877634D01*
X9193135Y-5877634D01*
X9193135Y-5954865D01*
X9270366Y-5954865D01*
X9270366Y-6208865D02*
X9270366Y-6131634D01*
X9193135Y-6131634D01*
X9193135Y-6208865D01*
X9270366Y-6208865D01*
X9270366Y-6462865D02*
X9270366Y-6385634D01*
X9193135Y-6385634D01*
X9193135Y-6462865D01*
X9270366Y-6462865D01*
X9270366Y-6716865D02*
X9270366Y-6639634D01*
X9193135Y-6639634D01*
X9193135Y-6716865D01*
X9270366Y-6716865D01*
X9270366Y-6970865D02*
X9270366Y-6893634D01*
X9193135Y-6893634D01*
X9193135Y-6970865D01*
X9270366Y-6970865D01*
D14*
X6191250Y-5948750D02*
X6266250Y-5873750D01*
X6191250Y-5798750D01*
X6116250Y-5873750D01*
X6191250Y-5948750D01*
X6191250Y-7853750D02*
X6266250Y-7778750D01*
X6191250Y-7703750D01*
X6116250Y-7778750D01*
X6191250Y-7853750D01*
X6191250Y-9758750D02*
X6266250Y-9683750D01*
X6191250Y-9608750D01*
X6116250Y-9683750D01*
X6191250Y-9758750D01*
X6826250Y-5694750D02*
X6901250Y-5619750D01*
X6826250Y-5544750D01*
X6751250Y-5619750D01*
X6826250Y-5694750D01*
X6826250Y-7599750D02*
X6901250Y-7524750D01*
X6826250Y-7449750D01*
X6751250Y-7524750D01*
X6826250Y-7599750D01*
X6826250Y-9504750D02*
X6901250Y-9429750D01*
X6826250Y-9354750D01*
X6751250Y-9429750D01*
X6826250Y-9504750D01*
X8096250Y-5948750D02*
X8171250Y-5873750D01*
X8096250Y-5798750D01*
X8021250Y-5873750D01*
X8096250Y-5948750D01*
X8096250Y-7853750D02*
X8171250Y-7778750D01*
X8096250Y-7703750D01*
X8021250Y-7778750D01*
X8096250Y-7853750D01*
X8096250Y-9758750D02*
X8171250Y-9683750D01*
X8096250Y-9608750D01*
X8021250Y-9683750D01*
X8096250Y-9758750D01*
X8731250Y-5694750D02*
X8806250Y-5619750D01*
X8731250Y-5544750D01*
X8656250Y-5619750D01*
X8731250Y-5694750D01*
X8731250Y-7599750D02*
X8806250Y-7524750D01*
X8731250Y-7449750D01*
X8656250Y-7524750D01*
X8731250Y-7599750D01*
X8731250Y-9504750D02*
X8806250Y-9429750D01*
X8731250Y-9354750D01*
X8656250Y-9429750D01*
X8731250Y-9504750D01*
X10001250Y-5948750D02*
X10076250Y-5873750D01*
X10001250Y-5798750D01*
X9926250Y-5873750D01*
X10001250Y-5948750D01*
X10001250Y-7853750D02*
X10076250Y-7778750D01*
X10001250Y-7703750D01*
X9926250Y-7778750D01*
X10001250Y-7853750D01*
X10001250Y-9758750D02*
X10076250Y-9683750D01*
X10001250Y-9608750D01*
X9926250Y-9683750D01*
X10001250Y-9758750D01*
X10327875Y-3737750D02*
X10402875Y-3662750D01*
X10327875Y-3587750D01*
X10252875Y-3662750D01*
X10327875Y-3737750D01*
D12*
X10262875Y-3737750D02*
X10392875Y-3737750D01*
X10392875Y-3587750D02*
G75*
G02*
X10392875Y-3737750I0J-75000D01*
G01*
X10392875Y-3587750D02*
X10262875Y-3587750D01*
X10262875Y-3587750D02*
G75*
G03*
X10262875Y-3737750I0J-75000D01*
G01*
D14*
X10327875Y-4857750D02*
X10402875Y-4782750D01*
X10327875Y-4707750D01*
X10252875Y-4782750D01*
X10327875Y-4857750D01*
D12*
X10262875Y-4857750D02*
X10392875Y-4857750D01*
X10392875Y-4707750D02*
G75*
G02*
X10392875Y-4857750I0J-75000D01*
G01*
X10392875Y-4707750D02*
X10262875Y-4707750D01*
X10262875Y-4707750D02*
G75*
G03*
X10262875Y-4857750I0J-75000D01*
G01*
D14*
X10636250Y-5694750D02*
X10711250Y-5619750D01*
X10636250Y-5544750D01*
X10561250Y-5619750D01*
X10636250Y-5694750D01*
X10636250Y-7599750D02*
X10711250Y-7524750D01*
X10636250Y-7449750D01*
X10561250Y-7524750D01*
X10636250Y-7599750D01*
X10636250Y-9504750D02*
X10711250Y-9429750D01*
X10636250Y-9354750D01*
X10561250Y-9429750D01*
X10636250Y-9504750D01*
D11*
X5878027Y-11204234D02*
X5878027Y-11004234D01*
X5878027Y-11004234D02*
X5925646Y-11004234D01*
X5925646Y-11004234D02*
X5954217Y-11013758D01*
X5954217Y-11013758D02*
X5973265Y-11032805D01*
X5973265Y-11032805D02*
X5982789Y-11051853D01*
X5982789Y-11051853D02*
X5992312Y-11089948D01*
X5992312Y-11089948D02*
X5992312Y-11118520D01*
X5992312Y-11118520D02*
X5982789Y-11156615D01*
X5982789Y-11156615D02*
X5973265Y-11175662D01*
X5973265Y-11175662D02*
X5954217Y-11194710D01*
X5954217Y-11194710D02*
X5925646Y-11204234D01*
X5925646Y-11204234D02*
X5878027Y-11204234D01*
X6078027Y-11204234D02*
X6078027Y-11070900D01*
X6078027Y-11108996D02*
X6087551Y-11089948D01*
X6087551Y-11089948D02*
X6097074Y-11080424D01*
X6097074Y-11080424D02*
X6116122Y-11070900D01*
X6116122Y-11070900D02*
X6135170Y-11070900D01*
X6201836Y-11204234D02*
X6201836Y-11070900D01*
X6201836Y-11004234D02*
X6192312Y-11013758D01*
X6192312Y-11013758D02*
X6201836Y-11023281D01*
X6201836Y-11023281D02*
X6211360Y-11013758D01*
X6211360Y-11013758D02*
X6201836Y-11004234D01*
X6201836Y-11004234D02*
X6201836Y-11023281D01*
X6325646Y-11204234D02*
X6306598Y-11194710D01*
X6306598Y-11194710D02*
X6297074Y-11175662D01*
X6297074Y-11175662D02*
X6297074Y-11004234D01*
X6430408Y-11204234D02*
X6411360Y-11194710D01*
X6411360Y-11194710D02*
X6401836Y-11175662D01*
X6401836Y-11175662D02*
X6401836Y-11004234D01*
X6658979Y-11204234D02*
X6658979Y-11004234D01*
X6658979Y-11004234D02*
X6725646Y-11147091D01*
X6725646Y-11147091D02*
X6792312Y-11004234D01*
X6792312Y-11004234D02*
X6792312Y-11204234D01*
X6973265Y-11204234D02*
X6973265Y-11099472D01*
X6973265Y-11099472D02*
X6963741Y-11080424D01*
X6963741Y-11080424D02*
X6944693Y-11070900D01*
X6944693Y-11070900D02*
X6906598Y-11070900D01*
X6906598Y-11070900D02*
X6887551Y-11080424D01*
X6973265Y-11194710D02*
X6954217Y-11204234D01*
X6954217Y-11204234D02*
X6906598Y-11204234D01*
X6906598Y-11204234D02*
X6887551Y-11194710D01*
X6887551Y-11194710D02*
X6878027Y-11175662D01*
X6878027Y-11175662D02*
X6878027Y-11156615D01*
X6878027Y-11156615D02*
X6887551Y-11137567D01*
X6887551Y-11137567D02*
X6906598Y-11128043D01*
X6906598Y-11128043D02*
X6954217Y-11128043D01*
X6954217Y-11128043D02*
X6973265Y-11118520D01*
X7068503Y-11070900D02*
X7068503Y-11270900D01*
X7068503Y-11080424D02*
X7087551Y-11070900D01*
X7087551Y-11070900D02*
X7125646Y-11070900D01*
X7125646Y-11070900D02*
X7144693Y-11080424D01*
X7144693Y-11080424D02*
X7154217Y-11089948D01*
X7154217Y-11089948D02*
X7163741Y-11108996D01*
X7163741Y-11108996D02*
X7163741Y-11166139D01*
X7163741Y-11166139D02*
X7154217Y-11185186D01*
X7154217Y-11185186D02*
X7144693Y-11194710D01*
X7144693Y-11194710D02*
X7125646Y-11204234D01*
X7125646Y-11204234D02*
X7087551Y-11204234D01*
X7087551Y-11204234D02*
X7068503Y-11194710D01*
X7249455Y-11185186D02*
X7258979Y-11194710D01*
X7258979Y-11194710D02*
X7249455Y-11204234D01*
X7249455Y-11204234D02*
X7239932Y-11194710D01*
X7239932Y-11194710D02*
X7249455Y-11185186D01*
X7249455Y-11185186D02*
X7249455Y-11204234D01*
X7249455Y-11080424D02*
X7258979Y-11089948D01*
X7258979Y-11089948D02*
X7249455Y-11099472D01*
X7249455Y-11099472D02*
X7239932Y-11089948D01*
X7239932Y-11089948D02*
X7249455Y-11080424D01*
X7249455Y-11080424D02*
X7249455Y-11099472D01*
D12*
X5587250Y-11517750D02*
X5617250Y-11547750D01*
X5617250Y-11517750D02*
X5587250Y-11547750D01*
D11*
X5916122Y-11424234D02*
X5935170Y-11424234D01*
X5935170Y-11424234D02*
X5954217Y-11433758D01*
X5954217Y-11433758D02*
X5963741Y-11443281D01*
X5963741Y-11443281D02*
X5973265Y-11462329D01*
X5973265Y-11462329D02*
X5982789Y-11500424D01*
X5982789Y-11500424D02*
X5982789Y-11548043D01*
X5982789Y-11548043D02*
X5973265Y-11586138D01*
X5973265Y-11586138D02*
X5963741Y-11605186D01*
X5963741Y-11605186D02*
X5954217Y-11614710D01*
X5954217Y-11614710D02*
X5935170Y-11624234D01*
X5935170Y-11624234D02*
X5916122Y-11624234D01*
X5916122Y-11624234D02*
X5897074Y-11614710D01*
X5897074Y-11614710D02*
X5887551Y-11605186D01*
X5887551Y-11605186D02*
X5878027Y-11586138D01*
X5878027Y-11586138D02*
X5868503Y-11548043D01*
X5868503Y-11548043D02*
X5868503Y-11500424D01*
X5868503Y-11500424D02*
X5878027Y-11462329D01*
X5878027Y-11462329D02*
X5887551Y-11443281D01*
X5887551Y-11443281D02*
X5897074Y-11433758D01*
X5897074Y-11433758D02*
X5916122Y-11424234D01*
X6068503Y-11605186D02*
X6078027Y-11614710D01*
X6078027Y-11614710D02*
X6068503Y-11624234D01*
X6068503Y-11624234D02*
X6058979Y-11614710D01*
X6058979Y-11614710D02*
X6068503Y-11605186D01*
X6068503Y-11605186D02*
X6068503Y-11624234D01*
X6144693Y-11424234D02*
X6268503Y-11424234D01*
X6268503Y-11424234D02*
X6201836Y-11500424D01*
X6201836Y-11500424D02*
X6230408Y-11500424D01*
X6230408Y-11500424D02*
X6249455Y-11509948D01*
X6249455Y-11509948D02*
X6258979Y-11519472D01*
X6258979Y-11519472D02*
X6268503Y-11538519D01*
X6268503Y-11538519D02*
X6268503Y-11586138D01*
X6268503Y-11586138D02*
X6258979Y-11605186D01*
X6258979Y-11605186D02*
X6249455Y-11614710D01*
X6249455Y-11614710D02*
X6230408Y-11624234D01*
X6230408Y-11624234D02*
X6173265Y-11624234D01*
X6173265Y-11624234D02*
X6154217Y-11614710D01*
X6154217Y-11614710D02*
X6144693Y-11605186D01*
X6392312Y-11424234D02*
X6411360Y-11424234D01*
X6411360Y-11424234D02*
X6430408Y-11433758D01*
X6430408Y-11433758D02*
X6439932Y-11443281D01*
X6439932Y-11443281D02*
X6449455Y-11462329D01*
X6449455Y-11462329D02*
X6458979Y-11500424D01*
X6458979Y-11500424D02*
X6458979Y-11548043D01*
X6458979Y-11548043D02*
X6449455Y-11586138D01*
X6449455Y-11586138D02*
X6439932Y-11605186D01*
X6439932Y-11605186D02*
X6430408Y-11614710D01*
X6430408Y-11614710D02*
X6411360Y-11624234D01*
X6411360Y-11624234D02*
X6392312Y-11624234D01*
X6392312Y-11624234D02*
X6373265Y-11614710D01*
X6373265Y-11614710D02*
X6363741Y-11605186D01*
X6363741Y-11605186D02*
X6354217Y-11586138D01*
X6354217Y-11586138D02*
X6344693Y-11548043D01*
X6344693Y-11548043D02*
X6344693Y-11500424D01*
X6344693Y-11500424D02*
X6354217Y-11462329D01*
X6354217Y-11462329D02*
X6363741Y-11443281D01*
X6363741Y-11443281D02*
X6373265Y-11433758D01*
X6373265Y-11433758D02*
X6392312Y-11424234D01*
X6582789Y-11424234D02*
X6601836Y-11424234D01*
X6601836Y-11424234D02*
X6620884Y-11433758D01*
X6620884Y-11433758D02*
X6630408Y-11443281D01*
X6630408Y-11443281D02*
X6639932Y-11462329D01*
X6639932Y-11462329D02*
X6649455Y-11500424D01*
X6649455Y-11500424D02*
X6649455Y-11548043D01*
X6649455Y-11548043D02*
X6639932Y-11586138D01*
X6639932Y-11586138D02*
X6630408Y-11605186D01*
X6630408Y-11605186D02*
X6620884Y-11614710D01*
X6620884Y-11614710D02*
X6601836Y-11624234D01*
X6601836Y-11624234D02*
X6582789Y-11624234D01*
X6582789Y-11624234D02*
X6563741Y-11614710D01*
X6563741Y-11614710D02*
X6554217Y-11605186D01*
X6554217Y-11605186D02*
X6544693Y-11586138D01*
X6544693Y-11586138D02*
X6535170Y-11548043D01*
X6535170Y-11548043D02*
X6535170Y-11500424D01*
X6535170Y-11500424D02*
X6544693Y-11462329D01*
X6544693Y-11462329D02*
X6554217Y-11443281D01*
X6554217Y-11443281D02*
X6563741Y-11433758D01*
X6563741Y-11433758D02*
X6582789Y-11424234D01*
X6735170Y-11624234D02*
X6735170Y-11490900D01*
X6735170Y-11509948D02*
X6744693Y-11500424D01*
X6744693Y-11500424D02*
X6763741Y-11490900D01*
X6763741Y-11490900D02*
X6792313Y-11490900D01*
X6792313Y-11490900D02*
X6811360Y-11500424D01*
X6811360Y-11500424D02*
X6820884Y-11519472D01*
X6820884Y-11519472D02*
X6820884Y-11624234D01*
X6820884Y-11519472D02*
X6830408Y-11500424D01*
X6830408Y-11500424D02*
X6849455Y-11490900D01*
X6849455Y-11490900D02*
X6878027Y-11490900D01*
X6878027Y-11490900D02*
X6897074Y-11500424D01*
X6897074Y-11500424D02*
X6906598Y-11519472D01*
X6906598Y-11519472D02*
X6906598Y-11624234D01*
X7001836Y-11624234D02*
X7001836Y-11490900D01*
X7001836Y-11509948D02*
X7011360Y-11500424D01*
X7011360Y-11500424D02*
X7030408Y-11490900D01*
X7030408Y-11490900D02*
X7058979Y-11490900D01*
X7058979Y-11490900D02*
X7078027Y-11500424D01*
X7078027Y-11500424D02*
X7087551Y-11519472D01*
X7087551Y-11519472D02*
X7087551Y-11624234D01*
X7087551Y-11519472D02*
X7097074Y-11500424D01*
X7097074Y-11500424D02*
X7116122Y-11490900D01*
X7116122Y-11490900D02*
X7144693Y-11490900D01*
X7144693Y-11490900D02*
X7163741Y-11500424D01*
X7163741Y-11500424D02*
X7173265Y-11519472D01*
X7173265Y-11519472D02*
X7173265Y-11624234D01*
X7563741Y-11414710D02*
X7392313Y-11671853D01*
X7820884Y-11424234D02*
X7839932Y-11424234D01*
X7839932Y-11424234D02*
X7858979Y-11433758D01*
X7858979Y-11433758D02*
X7868503Y-11443281D01*
X7868503Y-11443281D02*
X7878027Y-11462329D01*
X7878027Y-11462329D02*
X7887551Y-11500424D01*
X7887551Y-11500424D02*
X7887551Y-11548043D01*
X7887551Y-11548043D02*
X7878027Y-11586138D01*
X7878027Y-11586138D02*
X7868503Y-11605186D01*
X7868503Y-11605186D02*
X7858979Y-11614710D01*
X7858979Y-11614710D02*
X7839932Y-11624234D01*
X7839932Y-11624234D02*
X7820884Y-11624234D01*
X7820884Y-11624234D02*
X7801836Y-11614710D01*
X7801836Y-11614710D02*
X7792313Y-11605186D01*
X7792313Y-11605186D02*
X7782789Y-11586138D01*
X7782789Y-11586138D02*
X7773265Y-11548043D01*
X7773265Y-11548043D02*
X7773265Y-11500424D01*
X7773265Y-11500424D02*
X7782789Y-11462329D01*
X7782789Y-11462329D02*
X7792313Y-11443281D01*
X7792313Y-11443281D02*
X7801836Y-11433758D01*
X7801836Y-11433758D02*
X7820884Y-11424234D01*
X7973265Y-11605186D02*
X7982789Y-11614710D01*
X7982789Y-11614710D02*
X7973265Y-11624234D01*
X7973265Y-11624234D02*
X7963741Y-11614710D01*
X7963741Y-11614710D02*
X7973265Y-11605186D01*
X7973265Y-11605186D02*
X7973265Y-11624234D01*
X8106598Y-11424234D02*
X8125646Y-11424234D01*
X8125646Y-11424234D02*
X8144694Y-11433758D01*
X8144694Y-11433758D02*
X8154217Y-11443281D01*
X8154217Y-11443281D02*
X8163741Y-11462329D01*
X8163741Y-11462329D02*
X8173265Y-11500424D01*
X8173265Y-11500424D02*
X8173265Y-11548043D01*
X8173265Y-11548043D02*
X8163741Y-11586138D01*
X8163741Y-11586138D02*
X8154217Y-11605186D01*
X8154217Y-11605186D02*
X8144694Y-11614710D01*
X8144694Y-11614710D02*
X8125646Y-11624234D01*
X8125646Y-11624234D02*
X8106598Y-11624234D01*
X8106598Y-11624234D02*
X8087551Y-11614710D01*
X8087551Y-11614710D02*
X8078027Y-11605186D01*
X8078027Y-11605186D02*
X8068503Y-11586138D01*
X8068503Y-11586138D02*
X8058979Y-11548043D01*
X8058979Y-11548043D02*
X8058979Y-11500424D01*
X8058979Y-11500424D02*
X8068503Y-11462329D01*
X8068503Y-11462329D02*
X8078027Y-11443281D01*
X8078027Y-11443281D02*
X8087551Y-11433758D01*
X8087551Y-11433758D02*
X8106598Y-11424234D01*
X8363741Y-11624234D02*
X8249456Y-11624234D01*
X8306598Y-11624234D02*
X8306598Y-11424234D01*
X8306598Y-11424234D02*
X8287551Y-11452805D01*
X8287551Y-11452805D02*
X8268503Y-11471853D01*
X8268503Y-11471853D02*
X8249456Y-11481377D01*
X8554218Y-11624234D02*
X8439932Y-11624234D01*
X8497075Y-11624234D02*
X8497075Y-11424234D01*
X8497075Y-11424234D02*
X8478027Y-11452805D01*
X8478027Y-11452805D02*
X8458979Y-11471853D01*
X8458979Y-11471853D02*
X8439932Y-11481377D01*
X8668503Y-11509948D02*
X8649456Y-11500424D01*
X8649456Y-11500424D02*
X8639932Y-11490900D01*
X8639932Y-11490900D02*
X8630408Y-11471853D01*
X8630408Y-11471853D02*
X8630408Y-11462329D01*
X8630408Y-11462329D02*
X8639932Y-11443281D01*
X8639932Y-11443281D02*
X8649456Y-11433758D01*
X8649456Y-11433758D02*
X8668503Y-11424234D01*
X8668503Y-11424234D02*
X8706599Y-11424234D01*
X8706599Y-11424234D02*
X8725646Y-11433758D01*
X8725646Y-11433758D02*
X8735170Y-11443281D01*
X8735170Y-11443281D02*
X8744694Y-11462329D01*
X8744694Y-11462329D02*
X8744694Y-11471853D01*
X8744694Y-11471853D02*
X8735170Y-11490900D01*
X8735170Y-11490900D02*
X8725646Y-11500424D01*
X8725646Y-11500424D02*
X8706599Y-11509948D01*
X8706599Y-11509948D02*
X8668503Y-11509948D01*
X8668503Y-11509948D02*
X8649456Y-11519472D01*
X8649456Y-11519472D02*
X8639932Y-11528996D01*
X8639932Y-11528996D02*
X8630408Y-11548043D01*
X8630408Y-11548043D02*
X8630408Y-11586138D01*
X8630408Y-11586138D02*
X8639932Y-11605186D01*
X8639932Y-11605186D02*
X8649456Y-11614710D01*
X8649456Y-11614710D02*
X8668503Y-11624234D01*
X8668503Y-11624234D02*
X8706599Y-11624234D01*
X8706599Y-11624234D02*
X8725646Y-11614710D01*
X8725646Y-11614710D02*
X8735170Y-11605186D01*
X8735170Y-11605186D02*
X8744694Y-11586138D01*
X8744694Y-11586138D02*
X8744694Y-11548043D01*
X8744694Y-11548043D02*
X8735170Y-11528996D01*
X8735170Y-11528996D02*
X8725646Y-11519472D01*
X8725646Y-11519472D02*
X8706599Y-11509948D01*
X8820884Y-11424234D02*
X8820884Y-11462329D01*
X8897075Y-11424234D02*
X8897075Y-11462329D01*
X9192313Y-11700424D02*
X9182789Y-11690900D01*
X9182789Y-11690900D02*
X9163741Y-11662329D01*
X9163741Y-11662329D02*
X9154218Y-11643281D01*
X9154218Y-11643281D02*
X9144694Y-11614710D01*
X9144694Y-11614710D02*
X9135170Y-11567091D01*
X9135170Y-11567091D02*
X9135170Y-11528996D01*
X9135170Y-11528996D02*
X9144694Y-11481377D01*
X9144694Y-11481377D02*
X9154218Y-11452805D01*
X9154218Y-11452805D02*
X9163741Y-11433758D01*
X9163741Y-11433758D02*
X9182789Y-11405186D01*
X9182789Y-11405186D02*
X9192313Y-11395662D01*
X9249456Y-11424234D02*
X9373265Y-11424234D01*
X9373265Y-11424234D02*
X9306599Y-11500424D01*
X9306599Y-11500424D02*
X9335170Y-11500424D01*
X9335170Y-11500424D02*
X9354218Y-11509948D01*
X9354218Y-11509948D02*
X9363741Y-11519472D01*
X9363741Y-11519472D02*
X9373265Y-11538519D01*
X9373265Y-11538519D02*
X9373265Y-11586138D01*
X9373265Y-11586138D02*
X9363741Y-11605186D01*
X9363741Y-11605186D02*
X9354218Y-11614710D01*
X9354218Y-11614710D02*
X9335170Y-11624234D01*
X9335170Y-11624234D02*
X9278027Y-11624234D01*
X9278027Y-11624234D02*
X9258980Y-11614710D01*
X9258980Y-11614710D02*
X9249456Y-11605186D01*
X9611361Y-11624234D02*
X9611361Y-11424234D01*
X9697075Y-11624234D02*
X9697075Y-11519472D01*
X9697075Y-11519472D02*
X9687551Y-11500424D01*
X9687551Y-11500424D02*
X9668503Y-11490900D01*
X9668503Y-11490900D02*
X9639932Y-11490900D01*
X9639932Y-11490900D02*
X9620884Y-11500424D01*
X9620884Y-11500424D02*
X9611361Y-11509948D01*
X9820884Y-11624234D02*
X9801837Y-11614710D01*
X9801837Y-11614710D02*
X9792313Y-11605186D01*
X9792313Y-11605186D02*
X9782789Y-11586138D01*
X9782789Y-11586138D02*
X9782789Y-11528996D01*
X9782789Y-11528996D02*
X9792313Y-11509948D01*
X9792313Y-11509948D02*
X9801837Y-11500424D01*
X9801837Y-11500424D02*
X9820884Y-11490900D01*
X9820884Y-11490900D02*
X9849456Y-11490900D01*
X9849456Y-11490900D02*
X9868503Y-11500424D01*
X9868503Y-11500424D02*
X9878027Y-11509948D01*
X9878027Y-11509948D02*
X9887551Y-11528996D01*
X9887551Y-11528996D02*
X9887551Y-11586138D01*
X9887551Y-11586138D02*
X9878027Y-11605186D01*
X9878027Y-11605186D02*
X9868503Y-11614710D01*
X9868503Y-11614710D02*
X9849456Y-11624234D01*
X9849456Y-11624234D02*
X9820884Y-11624234D01*
X10001837Y-11624234D02*
X9982789Y-11614710D01*
X9982789Y-11614710D02*
X9973265Y-11595662D01*
X9973265Y-11595662D02*
X9973265Y-11424234D01*
X10154218Y-11614710D02*
X10135170Y-11624234D01*
X10135170Y-11624234D02*
X10097075Y-11624234D01*
X10097075Y-11624234D02*
X10078027Y-11614710D01*
X10078027Y-11614710D02*
X10068503Y-11595662D01*
X10068503Y-11595662D02*
X10068503Y-11519472D01*
X10068503Y-11519472D02*
X10078027Y-11500424D01*
X10078027Y-11500424D02*
X10097075Y-11490900D01*
X10097075Y-11490900D02*
X10135170Y-11490900D01*
X10135170Y-11490900D02*
X10154218Y-11500424D01*
X10154218Y-11500424D02*
X10163742Y-11519472D01*
X10163742Y-11519472D02*
X10163742Y-11538519D01*
X10163742Y-11538519D02*
X10068503Y-11557567D01*
X10239932Y-11614710D02*
X10258980Y-11624234D01*
X10258980Y-11624234D02*
X10297075Y-11624234D01*
X10297075Y-11624234D02*
X10316123Y-11614710D01*
X10316123Y-11614710D02*
X10325646Y-11595662D01*
X10325646Y-11595662D02*
X10325646Y-11586138D01*
X10325646Y-11586138D02*
X10316123Y-11567091D01*
X10316123Y-11567091D02*
X10297075Y-11557567D01*
X10297075Y-11557567D02*
X10268503Y-11557567D01*
X10268503Y-11557567D02*
X10249456Y-11548043D01*
X10249456Y-11548043D02*
X10239932Y-11528996D01*
X10239932Y-11528996D02*
X10239932Y-11519472D01*
X10239932Y-11519472D02*
X10249456Y-11500424D01*
X10249456Y-11500424D02*
X10268503Y-11490900D01*
X10268503Y-11490900D02*
X10297075Y-11490900D01*
X10297075Y-11490900D02*
X10316123Y-11500424D01*
X10392313Y-11700424D02*
X10401837Y-11690900D01*
X10401837Y-11690900D02*
X10420884Y-11662329D01*
X10420884Y-11662329D02*
X10430408Y-11643281D01*
X10430408Y-11643281D02*
X10439932Y-11614710D01*
X10439932Y-11614710D02*
X10449456Y-11567091D01*
X10449456Y-11567091D02*
X10449456Y-11528996D01*
X10449456Y-11528996D02*
X10439932Y-11481377D01*
X10439932Y-11481377D02*
X10430408Y-11452805D01*
X10430408Y-11452805D02*
X10420884Y-11433758D01*
X10420884Y-11433758D02*
X10401837Y-11405186D01*
X10401837Y-11405186D02*
X10392313Y-11395662D01*
D12*
X5617250Y-11796750D02*
G75*
G02*
X5537250Y-11796750I-40000J0D01*
G01*
X5537250Y-11796750D02*
G75*
G02*
X5617250Y-11796750I40000J0D01*
G01*
D11*
X5916122Y-11688234D02*
X5935170Y-11688234D01*
X5935170Y-11688234D02*
X5954217Y-11697758D01*
X5954217Y-11697758D02*
X5963741Y-11707281D01*
X5963741Y-11707281D02*
X5973265Y-11726329D01*
X5973265Y-11726329D02*
X5982789Y-11764424D01*
X5982789Y-11764424D02*
X5982789Y-11812043D01*
X5982789Y-11812043D02*
X5973265Y-11850138D01*
X5973265Y-11850138D02*
X5963741Y-11869186D01*
X5963741Y-11869186D02*
X5954217Y-11878710D01*
X5954217Y-11878710D02*
X5935170Y-11888234D01*
X5935170Y-11888234D02*
X5916122Y-11888234D01*
X5916122Y-11888234D02*
X5897074Y-11878710D01*
X5897074Y-11878710D02*
X5887551Y-11869186D01*
X5887551Y-11869186D02*
X5878027Y-11850138D01*
X5878027Y-11850138D02*
X5868503Y-11812043D01*
X5868503Y-11812043D02*
X5868503Y-11764424D01*
X5868503Y-11764424D02*
X5878027Y-11726329D01*
X5878027Y-11726329D02*
X5887551Y-11707281D01*
X5887551Y-11707281D02*
X5897074Y-11697758D01*
X5897074Y-11697758D02*
X5916122Y-11688234D01*
X6068503Y-11869186D02*
X6078027Y-11878710D01*
X6078027Y-11878710D02*
X6068503Y-11888234D01*
X6068503Y-11888234D02*
X6058979Y-11878710D01*
X6058979Y-11878710D02*
X6068503Y-11869186D01*
X6068503Y-11869186D02*
X6068503Y-11888234D01*
X6192312Y-11773948D02*
X6173265Y-11764424D01*
X6173265Y-11764424D02*
X6163741Y-11754900D01*
X6163741Y-11754900D02*
X6154217Y-11735853D01*
X6154217Y-11735853D02*
X6154217Y-11726329D01*
X6154217Y-11726329D02*
X6163741Y-11707281D01*
X6163741Y-11707281D02*
X6173265Y-11697758D01*
X6173265Y-11697758D02*
X6192312Y-11688234D01*
X6192312Y-11688234D02*
X6230408Y-11688234D01*
X6230408Y-11688234D02*
X6249455Y-11697758D01*
X6249455Y-11697758D02*
X6258979Y-11707281D01*
X6258979Y-11707281D02*
X6268503Y-11726329D01*
X6268503Y-11726329D02*
X6268503Y-11735853D01*
X6268503Y-11735853D02*
X6258979Y-11754900D01*
X6258979Y-11754900D02*
X6249455Y-11764424D01*
X6249455Y-11764424D02*
X6230408Y-11773948D01*
X6230408Y-11773948D02*
X6192312Y-11773948D01*
X6192312Y-11773948D02*
X6173265Y-11783472D01*
X6173265Y-11783472D02*
X6163741Y-11792996D01*
X6163741Y-11792996D02*
X6154217Y-11812043D01*
X6154217Y-11812043D02*
X6154217Y-11850138D01*
X6154217Y-11850138D02*
X6163741Y-11869186D01*
X6163741Y-11869186D02*
X6173265Y-11878710D01*
X6173265Y-11878710D02*
X6192312Y-11888234D01*
X6192312Y-11888234D02*
X6230408Y-11888234D01*
X6230408Y-11888234D02*
X6249455Y-11878710D01*
X6249455Y-11878710D02*
X6258979Y-11869186D01*
X6258979Y-11869186D02*
X6268503Y-11850138D01*
X6268503Y-11850138D02*
X6268503Y-11812043D01*
X6268503Y-11812043D02*
X6258979Y-11792996D01*
X6258979Y-11792996D02*
X6249455Y-11783472D01*
X6249455Y-11783472D02*
X6230408Y-11773948D01*
X6392312Y-11688234D02*
X6411360Y-11688234D01*
X6411360Y-11688234D02*
X6430408Y-11697758D01*
X6430408Y-11697758D02*
X6439932Y-11707281D01*
X6439932Y-11707281D02*
X6449455Y-11726329D01*
X6449455Y-11726329D02*
X6458979Y-11764424D01*
X6458979Y-11764424D02*
X6458979Y-11812043D01*
X6458979Y-11812043D02*
X6449455Y-11850138D01*
X6449455Y-11850138D02*
X6439932Y-11869186D01*
X6439932Y-11869186D02*
X6430408Y-11878710D01*
X6430408Y-11878710D02*
X6411360Y-11888234D01*
X6411360Y-11888234D02*
X6392312Y-11888234D01*
X6392312Y-11888234D02*
X6373265Y-11878710D01*
X6373265Y-11878710D02*
X6363741Y-11869186D01*
X6363741Y-11869186D02*
X6354217Y-11850138D01*
X6354217Y-11850138D02*
X6344693Y-11812043D01*
X6344693Y-11812043D02*
X6344693Y-11764424D01*
X6344693Y-11764424D02*
X6354217Y-11726329D01*
X6354217Y-11726329D02*
X6363741Y-11707281D01*
X6363741Y-11707281D02*
X6373265Y-11697758D01*
X6373265Y-11697758D02*
X6392312Y-11688234D01*
X6582789Y-11688234D02*
X6601836Y-11688234D01*
X6601836Y-11688234D02*
X6620884Y-11697758D01*
X6620884Y-11697758D02*
X6630408Y-11707281D01*
X6630408Y-11707281D02*
X6639932Y-11726329D01*
X6639932Y-11726329D02*
X6649455Y-11764424D01*
X6649455Y-11764424D02*
X6649455Y-11812043D01*
X6649455Y-11812043D02*
X6639932Y-11850138D01*
X6639932Y-11850138D02*
X6630408Y-11869186D01*
X6630408Y-11869186D02*
X6620884Y-11878710D01*
X6620884Y-11878710D02*
X6601836Y-11888234D01*
X6601836Y-11888234D02*
X6582789Y-11888234D01*
X6582789Y-11888234D02*
X6563741Y-11878710D01*
X6563741Y-11878710D02*
X6554217Y-11869186D01*
X6554217Y-11869186D02*
X6544693Y-11850138D01*
X6544693Y-11850138D02*
X6535170Y-11812043D01*
X6535170Y-11812043D02*
X6535170Y-11764424D01*
X6535170Y-11764424D02*
X6544693Y-11726329D01*
X6544693Y-11726329D02*
X6554217Y-11707281D01*
X6554217Y-11707281D02*
X6563741Y-11697758D01*
X6563741Y-11697758D02*
X6582789Y-11688234D01*
X6735170Y-11888234D02*
X6735170Y-11754900D01*
X6735170Y-11773948D02*
X6744693Y-11764424D01*
X6744693Y-11764424D02*
X6763741Y-11754900D01*
X6763741Y-11754900D02*
X6792313Y-11754900D01*
X6792313Y-11754900D02*
X6811360Y-11764424D01*
X6811360Y-11764424D02*
X6820884Y-11783472D01*
X6820884Y-11783472D02*
X6820884Y-11888234D01*
X6820884Y-11783472D02*
X6830408Y-11764424D01*
X6830408Y-11764424D02*
X6849455Y-11754900D01*
X6849455Y-11754900D02*
X6878027Y-11754900D01*
X6878027Y-11754900D02*
X6897074Y-11764424D01*
X6897074Y-11764424D02*
X6906598Y-11783472D01*
X6906598Y-11783472D02*
X6906598Y-11888234D01*
X7001836Y-11888234D02*
X7001836Y-11754900D01*
X7001836Y-11773948D02*
X7011360Y-11764424D01*
X7011360Y-11764424D02*
X7030408Y-11754900D01*
X7030408Y-11754900D02*
X7058979Y-11754900D01*
X7058979Y-11754900D02*
X7078027Y-11764424D01*
X7078027Y-11764424D02*
X7087551Y-11783472D01*
X7087551Y-11783472D02*
X7087551Y-11888234D01*
X7087551Y-11783472D02*
X7097074Y-11764424D01*
X7097074Y-11764424D02*
X7116122Y-11754900D01*
X7116122Y-11754900D02*
X7144693Y-11754900D01*
X7144693Y-11754900D02*
X7163741Y-11764424D01*
X7163741Y-11764424D02*
X7173265Y-11783472D01*
X7173265Y-11783472D02*
X7173265Y-11888234D01*
X7563741Y-11678710D02*
X7392313Y-11935853D01*
X7820884Y-11688234D02*
X7839932Y-11688234D01*
X7839932Y-11688234D02*
X7858979Y-11697758D01*
X7858979Y-11697758D02*
X7868503Y-11707281D01*
X7868503Y-11707281D02*
X7878027Y-11726329D01*
X7878027Y-11726329D02*
X7887551Y-11764424D01*
X7887551Y-11764424D02*
X7887551Y-11812043D01*
X7887551Y-11812043D02*
X7878027Y-11850138D01*
X7878027Y-11850138D02*
X7868503Y-11869186D01*
X7868503Y-11869186D02*
X7858979Y-11878710D01*
X7858979Y-11878710D02*
X7839932Y-11888234D01*
X7839932Y-11888234D02*
X7820884Y-11888234D01*
X7820884Y-11888234D02*
X7801836Y-11878710D01*
X7801836Y-11878710D02*
X7792313Y-11869186D01*
X7792313Y-11869186D02*
X7782789Y-11850138D01*
X7782789Y-11850138D02*
X7773265Y-11812043D01*
X7773265Y-11812043D02*
X7773265Y-11764424D01*
X7773265Y-11764424D02*
X7782789Y-11726329D01*
X7782789Y-11726329D02*
X7792313Y-11707281D01*
X7792313Y-11707281D02*
X7801836Y-11697758D01*
X7801836Y-11697758D02*
X7820884Y-11688234D01*
X7973265Y-11869186D02*
X7982789Y-11878710D01*
X7982789Y-11878710D02*
X7973265Y-11888234D01*
X7973265Y-11888234D02*
X7963741Y-11878710D01*
X7963741Y-11878710D02*
X7973265Y-11869186D01*
X7973265Y-11869186D02*
X7973265Y-11888234D01*
X8106598Y-11688234D02*
X8125646Y-11688234D01*
X8125646Y-11688234D02*
X8144694Y-11697758D01*
X8144694Y-11697758D02*
X8154217Y-11707281D01*
X8154217Y-11707281D02*
X8163741Y-11726329D01*
X8163741Y-11726329D02*
X8173265Y-11764424D01*
X8173265Y-11764424D02*
X8173265Y-11812043D01*
X8173265Y-11812043D02*
X8163741Y-11850138D01*
X8163741Y-11850138D02*
X8154217Y-11869186D01*
X8154217Y-11869186D02*
X8144694Y-11878710D01*
X8144694Y-11878710D02*
X8125646Y-11888234D01*
X8125646Y-11888234D02*
X8106598Y-11888234D01*
X8106598Y-11888234D02*
X8087551Y-11878710D01*
X8087551Y-11878710D02*
X8078027Y-11869186D01*
X8078027Y-11869186D02*
X8068503Y-11850138D01*
X8068503Y-11850138D02*
X8058979Y-11812043D01*
X8058979Y-11812043D02*
X8058979Y-11764424D01*
X8058979Y-11764424D02*
X8068503Y-11726329D01*
X8068503Y-11726329D02*
X8078027Y-11707281D01*
X8078027Y-11707281D02*
X8087551Y-11697758D01*
X8087551Y-11697758D02*
X8106598Y-11688234D01*
X8239932Y-11688234D02*
X8363741Y-11688234D01*
X8363741Y-11688234D02*
X8297075Y-11764424D01*
X8297075Y-11764424D02*
X8325646Y-11764424D01*
X8325646Y-11764424D02*
X8344694Y-11773948D01*
X8344694Y-11773948D02*
X8354217Y-11783472D01*
X8354217Y-11783472D02*
X8363741Y-11802519D01*
X8363741Y-11802519D02*
X8363741Y-11850138D01*
X8363741Y-11850138D02*
X8354217Y-11869186D01*
X8354217Y-11869186D02*
X8344694Y-11878710D01*
X8344694Y-11878710D02*
X8325646Y-11888234D01*
X8325646Y-11888234D02*
X8268503Y-11888234D01*
X8268503Y-11888234D02*
X8249456Y-11878710D01*
X8249456Y-11878710D02*
X8239932Y-11869186D01*
X8554218Y-11888234D02*
X8439932Y-11888234D01*
X8497075Y-11888234D02*
X8497075Y-11688234D01*
X8497075Y-11688234D02*
X8478027Y-11716805D01*
X8478027Y-11716805D02*
X8458979Y-11735853D01*
X8458979Y-11735853D02*
X8439932Y-11745377D01*
X8735170Y-11688234D02*
X8639932Y-11688234D01*
X8639932Y-11688234D02*
X8630408Y-11783472D01*
X8630408Y-11783472D02*
X8639932Y-11773948D01*
X8639932Y-11773948D02*
X8658979Y-11764424D01*
X8658979Y-11764424D02*
X8706599Y-11764424D01*
X8706599Y-11764424D02*
X8725646Y-11773948D01*
X8725646Y-11773948D02*
X8735170Y-11783472D01*
X8735170Y-11783472D02*
X8744694Y-11802519D01*
X8744694Y-11802519D02*
X8744694Y-11850138D01*
X8744694Y-11850138D02*
X8735170Y-11869186D01*
X8735170Y-11869186D02*
X8725646Y-11878710D01*
X8725646Y-11878710D02*
X8706599Y-11888234D01*
X8706599Y-11888234D02*
X8658979Y-11888234D01*
X8658979Y-11888234D02*
X8639932Y-11878710D01*
X8639932Y-11878710D02*
X8630408Y-11869186D01*
X8820884Y-11688234D02*
X8820884Y-11726329D01*
X8897075Y-11688234D02*
X8897075Y-11726329D01*
X9192313Y-11964424D02*
X9182789Y-11954900D01*
X9182789Y-11954900D02*
X9163741Y-11926329D01*
X9163741Y-11926329D02*
X9154218Y-11907281D01*
X9154218Y-11907281D02*
X9144694Y-11878710D01*
X9144694Y-11878710D02*
X9135170Y-11831091D01*
X9135170Y-11831091D02*
X9135170Y-11792996D01*
X9135170Y-11792996D02*
X9144694Y-11745377D01*
X9144694Y-11745377D02*
X9154218Y-11716805D01*
X9154218Y-11716805D02*
X9163741Y-11697758D01*
X9163741Y-11697758D02*
X9182789Y-11669186D01*
X9182789Y-11669186D02*
X9192313Y-11659662D01*
X9373265Y-11888234D02*
X9258980Y-11888234D01*
X9316122Y-11888234D02*
X9316122Y-11688234D01*
X9316122Y-11688234D02*
X9297075Y-11716805D01*
X9297075Y-11716805D02*
X9278027Y-11735853D01*
X9278027Y-11735853D02*
X9258980Y-11745377D01*
X9487551Y-11773948D02*
X9468503Y-11764424D01*
X9468503Y-11764424D02*
X9458980Y-11754900D01*
X9458980Y-11754900D02*
X9449456Y-11735853D01*
X9449456Y-11735853D02*
X9449456Y-11726329D01*
X9449456Y-11726329D02*
X9458980Y-11707281D01*
X9458980Y-11707281D02*
X9468503Y-11697758D01*
X9468503Y-11697758D02*
X9487551Y-11688234D01*
X9487551Y-11688234D02*
X9525646Y-11688234D01*
X9525646Y-11688234D02*
X9544694Y-11697758D01*
X9544694Y-11697758D02*
X9554218Y-11707281D01*
X9554218Y-11707281D02*
X9563741Y-11726329D01*
X9563741Y-11726329D02*
X9563741Y-11735853D01*
X9563741Y-11735853D02*
X9554218Y-11754900D01*
X9554218Y-11754900D02*
X9544694Y-11764424D01*
X9544694Y-11764424D02*
X9525646Y-11773948D01*
X9525646Y-11773948D02*
X9487551Y-11773948D01*
X9487551Y-11773948D02*
X9468503Y-11783472D01*
X9468503Y-11783472D02*
X9458980Y-11792996D01*
X9458980Y-11792996D02*
X9449456Y-11812043D01*
X9449456Y-11812043D02*
X9449456Y-11850138D01*
X9449456Y-11850138D02*
X9458980Y-11869186D01*
X9458980Y-11869186D02*
X9468503Y-11878710D01*
X9468503Y-11878710D02*
X9487551Y-11888234D01*
X9487551Y-11888234D02*
X9525646Y-11888234D01*
X9525646Y-11888234D02*
X9544694Y-11878710D01*
X9544694Y-11878710D02*
X9554218Y-11869186D01*
X9554218Y-11869186D02*
X9563741Y-11850138D01*
X9563741Y-11850138D02*
X9563741Y-11812043D01*
X9563741Y-11812043D02*
X9554218Y-11792996D01*
X9554218Y-11792996D02*
X9544694Y-11783472D01*
X9544694Y-11783472D02*
X9525646Y-11773948D01*
X9801837Y-11888234D02*
X9801837Y-11688234D01*
X9887551Y-11888234D02*
X9887551Y-11783472D01*
X9887551Y-11783472D02*
X9878027Y-11764424D01*
X9878027Y-11764424D02*
X9858980Y-11754900D01*
X9858980Y-11754900D02*
X9830408Y-11754900D01*
X9830408Y-11754900D02*
X9811361Y-11764424D01*
X9811361Y-11764424D02*
X9801837Y-11773948D01*
X10011361Y-11888234D02*
X9992313Y-11878710D01*
X9992313Y-11878710D02*
X9982789Y-11869186D01*
X9982789Y-11869186D02*
X9973265Y-11850138D01*
X9973265Y-11850138D02*
X9973265Y-11792996D01*
X9973265Y-11792996D02*
X9982789Y-11773948D01*
X9982789Y-11773948D02*
X9992313Y-11764424D01*
X9992313Y-11764424D02*
X10011361Y-11754900D01*
X10011361Y-11754900D02*
X10039932Y-11754900D01*
X10039932Y-11754900D02*
X10058980Y-11764424D01*
X10058980Y-11764424D02*
X10068503Y-11773948D01*
X10068503Y-11773948D02*
X10078027Y-11792996D01*
X10078027Y-11792996D02*
X10078027Y-11850138D01*
X10078027Y-11850138D02*
X10068503Y-11869186D01*
X10068503Y-11869186D02*
X10058980Y-11878710D01*
X10058980Y-11878710D02*
X10039932Y-11888234D01*
X10039932Y-11888234D02*
X10011361Y-11888234D01*
X10192313Y-11888234D02*
X10173265Y-11878710D01*
X10173265Y-11878710D02*
X10163742Y-11859662D01*
X10163742Y-11859662D02*
X10163742Y-11688234D01*
X10344694Y-11878710D02*
X10325646Y-11888234D01*
X10325646Y-11888234D02*
X10287551Y-11888234D01*
X10287551Y-11888234D02*
X10268503Y-11878710D01*
X10268503Y-11878710D02*
X10258980Y-11859662D01*
X10258980Y-11859662D02*
X10258980Y-11783472D01*
X10258980Y-11783472D02*
X10268503Y-11764424D01*
X10268503Y-11764424D02*
X10287551Y-11754900D01*
X10287551Y-11754900D02*
X10325646Y-11754900D01*
X10325646Y-11754900D02*
X10344694Y-11764424D01*
X10344694Y-11764424D02*
X10354218Y-11783472D01*
X10354218Y-11783472D02*
X10354218Y-11802519D01*
X10354218Y-11802519D02*
X10258980Y-11821567D01*
X10430408Y-11878710D02*
X10449456Y-11888234D01*
X10449456Y-11888234D02*
X10487551Y-11888234D01*
X10487551Y-11888234D02*
X10506599Y-11878710D01*
X10506599Y-11878710D02*
X10516123Y-11859662D01*
X10516123Y-11859662D02*
X10516123Y-11850138D01*
X10516123Y-11850138D02*
X10506599Y-11831091D01*
X10506599Y-11831091D02*
X10487551Y-11821567D01*
X10487551Y-11821567D02*
X10458980Y-11821567D01*
X10458980Y-11821567D02*
X10439932Y-11812043D01*
X10439932Y-11812043D02*
X10430408Y-11792996D01*
X10430408Y-11792996D02*
X10430408Y-11783472D01*
X10430408Y-11783472D02*
X10439932Y-11764424D01*
X10439932Y-11764424D02*
X10458980Y-11754900D01*
X10458980Y-11754900D02*
X10487551Y-11754900D01*
X10487551Y-11754900D02*
X10506599Y-11764424D01*
X10582789Y-11964424D02*
X10592313Y-11954900D01*
X10592313Y-11954900D02*
X10611361Y-11926329D01*
X10611361Y-11926329D02*
X10620884Y-11907281D01*
X10620884Y-11907281D02*
X10630408Y-11878710D01*
X10630408Y-11878710D02*
X10639932Y-11831091D01*
X10639932Y-11831091D02*
X10639932Y-11792996D01*
X10639932Y-11792996D02*
X10630408Y-11745377D01*
X10630408Y-11745377D02*
X10620884Y-11716805D01*
X10620884Y-11716805D02*
X10611361Y-11697758D01*
X10611361Y-11697758D02*
X10592313Y-11669186D01*
X10592313Y-11669186D02*
X10582789Y-11659662D01*
D12*
X5567250Y-12010750D02*
X5567250Y-12110750D01*
X5517250Y-12060750D02*
X5617250Y-12060750D01*
D11*
X5982789Y-12152234D02*
X5868503Y-12152234D01*
X5925646Y-12152234D02*
X5925646Y-11952234D01*
X5925646Y-11952234D02*
X5906598Y-11980805D01*
X5906598Y-11980805D02*
X5887551Y-11999853D01*
X5887551Y-11999853D02*
X5868503Y-12009377D01*
X6068503Y-12133186D02*
X6078027Y-12142710D01*
X6078027Y-12142710D02*
X6068503Y-12152234D01*
X6068503Y-12152234D02*
X6058979Y-12142710D01*
X6058979Y-12142710D02*
X6068503Y-12133186D01*
X6068503Y-12133186D02*
X6068503Y-12152234D01*
X6201836Y-11952234D02*
X6220884Y-11952234D01*
X6220884Y-11952234D02*
X6239932Y-11961758D01*
X6239932Y-11961758D02*
X6249455Y-11971281D01*
X6249455Y-11971281D02*
X6258979Y-11990329D01*
X6258979Y-11990329D02*
X6268503Y-12028424D01*
X6268503Y-12028424D02*
X6268503Y-12076043D01*
X6268503Y-12076043D02*
X6258979Y-12114138D01*
X6258979Y-12114138D02*
X6249455Y-12133186D01*
X6249455Y-12133186D02*
X6239932Y-12142710D01*
X6239932Y-12142710D02*
X6220884Y-12152234D01*
X6220884Y-12152234D02*
X6201836Y-12152234D01*
X6201836Y-12152234D02*
X6182789Y-12142710D01*
X6182789Y-12142710D02*
X6173265Y-12133186D01*
X6173265Y-12133186D02*
X6163741Y-12114138D01*
X6163741Y-12114138D02*
X6154217Y-12076043D01*
X6154217Y-12076043D02*
X6154217Y-12028424D01*
X6154217Y-12028424D02*
X6163741Y-11990329D01*
X6163741Y-11990329D02*
X6173265Y-11971281D01*
X6173265Y-11971281D02*
X6182789Y-11961758D01*
X6182789Y-11961758D02*
X6201836Y-11952234D01*
X6392312Y-11952234D02*
X6411360Y-11952234D01*
X6411360Y-11952234D02*
X6430408Y-11961758D01*
X6430408Y-11961758D02*
X6439932Y-11971281D01*
X6439932Y-11971281D02*
X6449455Y-11990329D01*
X6449455Y-11990329D02*
X6458979Y-12028424D01*
X6458979Y-12028424D02*
X6458979Y-12076043D01*
X6458979Y-12076043D02*
X6449455Y-12114138D01*
X6449455Y-12114138D02*
X6439932Y-12133186D01*
X6439932Y-12133186D02*
X6430408Y-12142710D01*
X6430408Y-12142710D02*
X6411360Y-12152234D01*
X6411360Y-12152234D02*
X6392312Y-12152234D01*
X6392312Y-12152234D02*
X6373265Y-12142710D01*
X6373265Y-12142710D02*
X6363741Y-12133186D01*
X6363741Y-12133186D02*
X6354217Y-12114138D01*
X6354217Y-12114138D02*
X6344693Y-12076043D01*
X6344693Y-12076043D02*
X6344693Y-12028424D01*
X6344693Y-12028424D02*
X6354217Y-11990329D01*
X6354217Y-11990329D02*
X6363741Y-11971281D01*
X6363741Y-11971281D02*
X6373265Y-11961758D01*
X6373265Y-11961758D02*
X6392312Y-11952234D01*
X6582789Y-11952234D02*
X6601836Y-11952234D01*
X6601836Y-11952234D02*
X6620884Y-11961758D01*
X6620884Y-11961758D02*
X6630408Y-11971281D01*
X6630408Y-11971281D02*
X6639932Y-11990329D01*
X6639932Y-11990329D02*
X6649455Y-12028424D01*
X6649455Y-12028424D02*
X6649455Y-12076043D01*
X6649455Y-12076043D02*
X6639932Y-12114138D01*
X6639932Y-12114138D02*
X6630408Y-12133186D01*
X6630408Y-12133186D02*
X6620884Y-12142710D01*
X6620884Y-12142710D02*
X6601836Y-12152234D01*
X6601836Y-12152234D02*
X6582789Y-12152234D01*
X6582789Y-12152234D02*
X6563741Y-12142710D01*
X6563741Y-12142710D02*
X6554217Y-12133186D01*
X6554217Y-12133186D02*
X6544693Y-12114138D01*
X6544693Y-12114138D02*
X6535170Y-12076043D01*
X6535170Y-12076043D02*
X6535170Y-12028424D01*
X6535170Y-12028424D02*
X6544693Y-11990329D01*
X6544693Y-11990329D02*
X6554217Y-11971281D01*
X6554217Y-11971281D02*
X6563741Y-11961758D01*
X6563741Y-11961758D02*
X6582789Y-11952234D01*
X6735170Y-12152234D02*
X6735170Y-12018900D01*
X6735170Y-12037948D02*
X6744693Y-12028424D01*
X6744693Y-12028424D02*
X6763741Y-12018900D01*
X6763741Y-12018900D02*
X6792313Y-12018900D01*
X6792313Y-12018900D02*
X6811360Y-12028424D01*
X6811360Y-12028424D02*
X6820884Y-12047472D01*
X6820884Y-12047472D02*
X6820884Y-12152234D01*
X6820884Y-12047472D02*
X6830408Y-12028424D01*
X6830408Y-12028424D02*
X6849455Y-12018900D01*
X6849455Y-12018900D02*
X6878027Y-12018900D01*
X6878027Y-12018900D02*
X6897074Y-12028424D01*
X6897074Y-12028424D02*
X6906598Y-12047472D01*
X6906598Y-12047472D02*
X6906598Y-12152234D01*
X7001836Y-12152234D02*
X7001836Y-12018900D01*
X7001836Y-12037948D02*
X7011360Y-12028424D01*
X7011360Y-12028424D02*
X7030408Y-12018900D01*
X7030408Y-12018900D02*
X7058979Y-12018900D01*
X7058979Y-12018900D02*
X7078027Y-12028424D01*
X7078027Y-12028424D02*
X7087551Y-12047472D01*
X7087551Y-12047472D02*
X7087551Y-12152234D01*
X7087551Y-12047472D02*
X7097074Y-12028424D01*
X7097074Y-12028424D02*
X7116122Y-12018900D01*
X7116122Y-12018900D02*
X7144693Y-12018900D01*
X7144693Y-12018900D02*
X7163741Y-12028424D01*
X7163741Y-12028424D02*
X7173265Y-12047472D01*
X7173265Y-12047472D02*
X7173265Y-12152234D01*
X7563741Y-11942710D02*
X7392313Y-12199853D01*
X7820884Y-11952234D02*
X7839932Y-11952234D01*
X7839932Y-11952234D02*
X7858979Y-11961758D01*
X7858979Y-11961758D02*
X7868503Y-11971281D01*
X7868503Y-11971281D02*
X7878027Y-11990329D01*
X7878027Y-11990329D02*
X7887551Y-12028424D01*
X7887551Y-12028424D02*
X7887551Y-12076043D01*
X7887551Y-12076043D02*
X7878027Y-12114138D01*
X7878027Y-12114138D02*
X7868503Y-12133186D01*
X7868503Y-12133186D02*
X7858979Y-12142710D01*
X7858979Y-12142710D02*
X7839932Y-12152234D01*
X7839932Y-12152234D02*
X7820884Y-12152234D01*
X7820884Y-12152234D02*
X7801836Y-12142710D01*
X7801836Y-12142710D02*
X7792313Y-12133186D01*
X7792313Y-12133186D02*
X7782789Y-12114138D01*
X7782789Y-12114138D02*
X7773265Y-12076043D01*
X7773265Y-12076043D02*
X7773265Y-12028424D01*
X7773265Y-12028424D02*
X7782789Y-11990329D01*
X7782789Y-11990329D02*
X7792313Y-11971281D01*
X7792313Y-11971281D02*
X7801836Y-11961758D01*
X7801836Y-11961758D02*
X7820884Y-11952234D01*
X7973265Y-12133186D02*
X7982789Y-12142710D01*
X7982789Y-12142710D02*
X7973265Y-12152234D01*
X7973265Y-12152234D02*
X7963741Y-12142710D01*
X7963741Y-12142710D02*
X7973265Y-12133186D01*
X7973265Y-12133186D02*
X7973265Y-12152234D01*
X8106598Y-11952234D02*
X8125646Y-11952234D01*
X8125646Y-11952234D02*
X8144694Y-11961758D01*
X8144694Y-11961758D02*
X8154217Y-11971281D01*
X8154217Y-11971281D02*
X8163741Y-11990329D01*
X8163741Y-11990329D02*
X8173265Y-12028424D01*
X8173265Y-12028424D02*
X8173265Y-12076043D01*
X8173265Y-12076043D02*
X8163741Y-12114138D01*
X8163741Y-12114138D02*
X8154217Y-12133186D01*
X8154217Y-12133186D02*
X8144694Y-12142710D01*
X8144694Y-12142710D02*
X8125646Y-12152234D01*
X8125646Y-12152234D02*
X8106598Y-12152234D01*
X8106598Y-12152234D02*
X8087551Y-12142710D01*
X8087551Y-12142710D02*
X8078027Y-12133186D01*
X8078027Y-12133186D02*
X8068503Y-12114138D01*
X8068503Y-12114138D02*
X8058979Y-12076043D01*
X8058979Y-12076043D02*
X8058979Y-12028424D01*
X8058979Y-12028424D02*
X8068503Y-11990329D01*
X8068503Y-11990329D02*
X8078027Y-11971281D01*
X8078027Y-11971281D02*
X8087551Y-11961758D01*
X8087551Y-11961758D02*
X8106598Y-11952234D01*
X8239932Y-11952234D02*
X8363741Y-11952234D01*
X8363741Y-11952234D02*
X8297075Y-12028424D01*
X8297075Y-12028424D02*
X8325646Y-12028424D01*
X8325646Y-12028424D02*
X8344694Y-12037948D01*
X8344694Y-12037948D02*
X8354217Y-12047472D01*
X8354217Y-12047472D02*
X8363741Y-12066519D01*
X8363741Y-12066519D02*
X8363741Y-12114138D01*
X8363741Y-12114138D02*
X8354217Y-12133186D01*
X8354217Y-12133186D02*
X8344694Y-12142710D01*
X8344694Y-12142710D02*
X8325646Y-12152234D01*
X8325646Y-12152234D02*
X8268503Y-12152234D01*
X8268503Y-12152234D02*
X8249456Y-12142710D01*
X8249456Y-12142710D02*
X8239932Y-12133186D01*
X8458979Y-12152234D02*
X8497075Y-12152234D01*
X8497075Y-12152234D02*
X8516122Y-12142710D01*
X8516122Y-12142710D02*
X8525646Y-12133186D01*
X8525646Y-12133186D02*
X8544694Y-12104615D01*
X8544694Y-12104615D02*
X8554218Y-12066519D01*
X8554218Y-12066519D02*
X8554218Y-11990329D01*
X8554218Y-11990329D02*
X8544694Y-11971281D01*
X8544694Y-11971281D02*
X8535170Y-11961758D01*
X8535170Y-11961758D02*
X8516122Y-11952234D01*
X8516122Y-11952234D02*
X8478027Y-11952234D01*
X8478027Y-11952234D02*
X8458979Y-11961758D01*
X8458979Y-11961758D02*
X8449456Y-11971281D01*
X8449456Y-11971281D02*
X8439932Y-11990329D01*
X8439932Y-11990329D02*
X8439932Y-12037948D01*
X8439932Y-12037948D02*
X8449456Y-12056996D01*
X8449456Y-12056996D02*
X8458979Y-12066519D01*
X8458979Y-12066519D02*
X8478027Y-12076043D01*
X8478027Y-12076043D02*
X8516122Y-12076043D01*
X8516122Y-12076043D02*
X8535170Y-12066519D01*
X8535170Y-12066519D02*
X8544694Y-12056996D01*
X8544694Y-12056996D02*
X8554218Y-12037948D01*
X8725646Y-12018900D02*
X8725646Y-12152234D01*
X8678027Y-11942710D02*
X8630408Y-12085567D01*
X8630408Y-12085567D02*
X8754218Y-12085567D01*
X8820884Y-11952234D02*
X8820884Y-11990329D01*
X8897075Y-11952234D02*
X8897075Y-11990329D01*
X9192313Y-12228424D02*
X9182789Y-12218900D01*
X9182789Y-12218900D02*
X9163741Y-12190329D01*
X9163741Y-12190329D02*
X9154218Y-12171281D01*
X9154218Y-12171281D02*
X9144694Y-12142710D01*
X9144694Y-12142710D02*
X9135170Y-12095091D01*
X9135170Y-12095091D02*
X9135170Y-12056996D01*
X9135170Y-12056996D02*
X9144694Y-12009377D01*
X9144694Y-12009377D02*
X9154218Y-11980805D01*
X9154218Y-11980805D02*
X9163741Y-11961758D01*
X9163741Y-11961758D02*
X9182789Y-11933186D01*
X9182789Y-11933186D02*
X9192313Y-11923662D01*
X9278027Y-12152234D02*
X9316122Y-12152234D01*
X9316122Y-12152234D02*
X9335170Y-12142710D01*
X9335170Y-12142710D02*
X9344694Y-12133186D01*
X9344694Y-12133186D02*
X9363741Y-12104615D01*
X9363741Y-12104615D02*
X9373265Y-12066519D01*
X9373265Y-12066519D02*
X9373265Y-11990329D01*
X9373265Y-11990329D02*
X9363741Y-11971281D01*
X9363741Y-11971281D02*
X9354218Y-11961758D01*
X9354218Y-11961758D02*
X9335170Y-11952234D01*
X9335170Y-11952234D02*
X9297075Y-11952234D01*
X9297075Y-11952234D02*
X9278027Y-11961758D01*
X9278027Y-11961758D02*
X9268503Y-11971281D01*
X9268503Y-11971281D02*
X9258980Y-11990329D01*
X9258980Y-11990329D02*
X9258980Y-12037948D01*
X9258980Y-12037948D02*
X9268503Y-12056996D01*
X9268503Y-12056996D02*
X9278027Y-12066519D01*
X9278027Y-12066519D02*
X9297075Y-12076043D01*
X9297075Y-12076043D02*
X9335170Y-12076043D01*
X9335170Y-12076043D02*
X9354218Y-12066519D01*
X9354218Y-12066519D02*
X9363741Y-12056996D01*
X9363741Y-12056996D02*
X9373265Y-12037948D01*
X9611361Y-12152234D02*
X9611361Y-11952234D01*
X9697075Y-12152234D02*
X9697075Y-12047472D01*
X9697075Y-12047472D02*
X9687551Y-12028424D01*
X9687551Y-12028424D02*
X9668503Y-12018900D01*
X9668503Y-12018900D02*
X9639932Y-12018900D01*
X9639932Y-12018900D02*
X9620884Y-12028424D01*
X9620884Y-12028424D02*
X9611361Y-12037948D01*
X9820884Y-12152234D02*
X9801837Y-12142710D01*
X9801837Y-12142710D02*
X9792313Y-12133186D01*
X9792313Y-12133186D02*
X9782789Y-12114138D01*
X9782789Y-12114138D02*
X9782789Y-12056996D01*
X9782789Y-12056996D02*
X9792313Y-12037948D01*
X9792313Y-12037948D02*
X9801837Y-12028424D01*
X9801837Y-12028424D02*
X9820884Y-12018900D01*
X9820884Y-12018900D02*
X9849456Y-12018900D01*
X9849456Y-12018900D02*
X9868503Y-12028424D01*
X9868503Y-12028424D02*
X9878027Y-12037948D01*
X9878027Y-12037948D02*
X9887551Y-12056996D01*
X9887551Y-12056996D02*
X9887551Y-12114138D01*
X9887551Y-12114138D02*
X9878027Y-12133186D01*
X9878027Y-12133186D02*
X9868503Y-12142710D01*
X9868503Y-12142710D02*
X9849456Y-12152234D01*
X9849456Y-12152234D02*
X9820884Y-12152234D01*
X10001837Y-12152234D02*
X9982789Y-12142710D01*
X9982789Y-12142710D02*
X9973265Y-12123662D01*
X9973265Y-12123662D02*
X9973265Y-11952234D01*
X10154218Y-12142710D02*
X10135170Y-12152234D01*
X10135170Y-12152234D02*
X10097075Y-12152234D01*
X10097075Y-12152234D02*
X10078027Y-12142710D01*
X10078027Y-12142710D02*
X10068503Y-12123662D01*
X10068503Y-12123662D02*
X10068503Y-12047472D01*
X10068503Y-12047472D02*
X10078027Y-12028424D01*
X10078027Y-12028424D02*
X10097075Y-12018900D01*
X10097075Y-12018900D02*
X10135170Y-12018900D01*
X10135170Y-12018900D02*
X10154218Y-12028424D01*
X10154218Y-12028424D02*
X10163742Y-12047472D01*
X10163742Y-12047472D02*
X10163742Y-12066519D01*
X10163742Y-12066519D02*
X10068503Y-12085567D01*
X10239932Y-12142710D02*
X10258980Y-12152234D01*
X10258980Y-12152234D02*
X10297075Y-12152234D01*
X10297075Y-12152234D02*
X10316123Y-12142710D01*
X10316123Y-12142710D02*
X10325646Y-12123662D01*
X10325646Y-12123662D02*
X10325646Y-12114138D01*
X10325646Y-12114138D02*
X10316123Y-12095091D01*
X10316123Y-12095091D02*
X10297075Y-12085567D01*
X10297075Y-12085567D02*
X10268503Y-12085567D01*
X10268503Y-12085567D02*
X10249456Y-12076043D01*
X10249456Y-12076043D02*
X10239932Y-12056996D01*
X10239932Y-12056996D02*
X10239932Y-12047472D01*
X10239932Y-12047472D02*
X10249456Y-12028424D01*
X10249456Y-12028424D02*
X10268503Y-12018900D01*
X10268503Y-12018900D02*
X10297075Y-12018900D01*
X10297075Y-12018900D02*
X10316123Y-12028424D01*
X10392313Y-12228424D02*
X10401837Y-12218900D01*
X10401837Y-12218900D02*
X10420884Y-12190329D01*
X10420884Y-12190329D02*
X10430408Y-12171281D01*
X10430408Y-12171281D02*
X10439932Y-12142710D01*
X10439932Y-12142710D02*
X10449456Y-12095091D01*
X10449456Y-12095091D02*
X10449456Y-12056996D01*
X10449456Y-12056996D02*
X10439932Y-12009377D01*
X10439932Y-12009377D02*
X10430408Y-11980805D01*
X10430408Y-11980805D02*
X10420884Y-11961758D01*
X10420884Y-11961758D02*
X10401837Y-11933186D01*
X10401837Y-11933186D02*
X10392313Y-11923662D01*
D13*
X5601255Y-12363365D02*
X5601255Y-12286134D01*
X5524025Y-12286134D01*
X5524025Y-12363365D01*
X5601255Y-12363365D01*
D11*
X5982789Y-12416234D02*
X5868503Y-12416234D01*
X5925646Y-12416234D02*
X5925646Y-12216234D01*
X5925646Y-12216234D02*
X5906598Y-12244805D01*
X5906598Y-12244805D02*
X5887551Y-12263853D01*
X5887551Y-12263853D02*
X5868503Y-12273377D01*
X6068503Y-12397186D02*
X6078027Y-12406710D01*
X6078027Y-12406710D02*
X6068503Y-12416234D01*
X6068503Y-12416234D02*
X6058979Y-12406710D01*
X6058979Y-12406710D02*
X6068503Y-12397186D01*
X6068503Y-12397186D02*
X6068503Y-12416234D01*
X6201836Y-12216234D02*
X6220884Y-12216234D01*
X6220884Y-12216234D02*
X6239932Y-12225758D01*
X6239932Y-12225758D02*
X6249455Y-12235281D01*
X6249455Y-12235281D02*
X6258979Y-12254329D01*
X6258979Y-12254329D02*
X6268503Y-12292424D01*
X6268503Y-12292424D02*
X6268503Y-12340043D01*
X6268503Y-12340043D02*
X6258979Y-12378138D01*
X6258979Y-12378138D02*
X6249455Y-12397186D01*
X6249455Y-12397186D02*
X6239932Y-12406710D01*
X6239932Y-12406710D02*
X6220884Y-12416234D01*
X6220884Y-12416234D02*
X6201836Y-12416234D01*
X6201836Y-12416234D02*
X6182789Y-12406710D01*
X6182789Y-12406710D02*
X6173265Y-12397186D01*
X6173265Y-12397186D02*
X6163741Y-12378138D01*
X6163741Y-12378138D02*
X6154217Y-12340043D01*
X6154217Y-12340043D02*
X6154217Y-12292424D01*
X6154217Y-12292424D02*
X6163741Y-12254329D01*
X6163741Y-12254329D02*
X6173265Y-12235281D01*
X6173265Y-12235281D02*
X6182789Y-12225758D01*
X6182789Y-12225758D02*
X6201836Y-12216234D01*
X6363741Y-12416234D02*
X6401836Y-12416234D01*
X6401836Y-12416234D02*
X6420884Y-12406710D01*
X6420884Y-12406710D02*
X6430408Y-12397186D01*
X6430408Y-12397186D02*
X6449455Y-12368615D01*
X6449455Y-12368615D02*
X6458979Y-12330519D01*
X6458979Y-12330519D02*
X6458979Y-12254329D01*
X6458979Y-12254329D02*
X6449455Y-12235281D01*
X6449455Y-12235281D02*
X6439932Y-12225758D01*
X6439932Y-12225758D02*
X6420884Y-12216234D01*
X6420884Y-12216234D02*
X6382789Y-12216234D01*
X6382789Y-12216234D02*
X6363741Y-12225758D01*
X6363741Y-12225758D02*
X6354217Y-12235281D01*
X6354217Y-12235281D02*
X6344693Y-12254329D01*
X6344693Y-12254329D02*
X6344693Y-12301948D01*
X6344693Y-12301948D02*
X6354217Y-12320996D01*
X6354217Y-12320996D02*
X6363741Y-12330519D01*
X6363741Y-12330519D02*
X6382789Y-12340043D01*
X6382789Y-12340043D02*
X6420884Y-12340043D01*
X6420884Y-12340043D02*
X6439932Y-12330519D01*
X6439932Y-12330519D02*
X6449455Y-12320996D01*
X6449455Y-12320996D02*
X6458979Y-12301948D01*
X6535170Y-12235281D02*
X6544693Y-12225758D01*
X6544693Y-12225758D02*
X6563741Y-12216234D01*
X6563741Y-12216234D02*
X6611360Y-12216234D01*
X6611360Y-12216234D02*
X6630408Y-12225758D01*
X6630408Y-12225758D02*
X6639932Y-12235281D01*
X6639932Y-12235281D02*
X6649455Y-12254329D01*
X6649455Y-12254329D02*
X6649455Y-12273377D01*
X6649455Y-12273377D02*
X6639932Y-12301948D01*
X6639932Y-12301948D02*
X6525646Y-12416234D01*
X6525646Y-12416234D02*
X6649455Y-12416234D01*
X6735170Y-12416234D02*
X6735170Y-12282900D01*
X6735170Y-12301948D02*
X6744693Y-12292424D01*
X6744693Y-12292424D02*
X6763741Y-12282900D01*
X6763741Y-12282900D02*
X6792313Y-12282900D01*
X6792313Y-12282900D02*
X6811360Y-12292424D01*
X6811360Y-12292424D02*
X6820884Y-12311472D01*
X6820884Y-12311472D02*
X6820884Y-12416234D01*
X6820884Y-12311472D02*
X6830408Y-12292424D01*
X6830408Y-12292424D02*
X6849455Y-12282900D01*
X6849455Y-12282900D02*
X6878027Y-12282900D01*
X6878027Y-12282900D02*
X6897074Y-12292424D01*
X6897074Y-12292424D02*
X6906598Y-12311472D01*
X6906598Y-12311472D02*
X6906598Y-12416234D01*
X7001836Y-12416234D02*
X7001836Y-12282900D01*
X7001836Y-12301948D02*
X7011360Y-12292424D01*
X7011360Y-12292424D02*
X7030408Y-12282900D01*
X7030408Y-12282900D02*
X7058979Y-12282900D01*
X7058979Y-12282900D02*
X7078027Y-12292424D01*
X7078027Y-12292424D02*
X7087551Y-12311472D01*
X7087551Y-12311472D02*
X7087551Y-12416234D01*
X7087551Y-12311472D02*
X7097074Y-12292424D01*
X7097074Y-12292424D02*
X7116122Y-12282900D01*
X7116122Y-12282900D02*
X7144693Y-12282900D01*
X7144693Y-12282900D02*
X7163741Y-12292424D01*
X7163741Y-12292424D02*
X7173265Y-12311472D01*
X7173265Y-12311472D02*
X7173265Y-12416234D01*
X7563741Y-12206710D02*
X7392313Y-12463853D01*
X7820884Y-12216234D02*
X7839932Y-12216234D01*
X7839932Y-12216234D02*
X7858979Y-12225758D01*
X7858979Y-12225758D02*
X7868503Y-12235281D01*
X7868503Y-12235281D02*
X7878027Y-12254329D01*
X7878027Y-12254329D02*
X7887551Y-12292424D01*
X7887551Y-12292424D02*
X7887551Y-12340043D01*
X7887551Y-12340043D02*
X7878027Y-12378138D01*
X7878027Y-12378138D02*
X7868503Y-12397186D01*
X7868503Y-12397186D02*
X7858979Y-12406710D01*
X7858979Y-12406710D02*
X7839932Y-12416234D01*
X7839932Y-12416234D02*
X7820884Y-12416234D01*
X7820884Y-12416234D02*
X7801836Y-12406710D01*
X7801836Y-12406710D02*
X7792313Y-12397186D01*
X7792313Y-12397186D02*
X7782789Y-12378138D01*
X7782789Y-12378138D02*
X7773265Y-12340043D01*
X7773265Y-12340043D02*
X7773265Y-12292424D01*
X7773265Y-12292424D02*
X7782789Y-12254329D01*
X7782789Y-12254329D02*
X7792313Y-12235281D01*
X7792313Y-12235281D02*
X7801836Y-12225758D01*
X7801836Y-12225758D02*
X7820884Y-12216234D01*
X7973265Y-12397186D02*
X7982789Y-12406710D01*
X7982789Y-12406710D02*
X7973265Y-12416234D01*
X7973265Y-12416234D02*
X7963741Y-12406710D01*
X7963741Y-12406710D02*
X7973265Y-12397186D01*
X7973265Y-12397186D02*
X7973265Y-12416234D01*
X8106598Y-12216234D02*
X8125646Y-12216234D01*
X8125646Y-12216234D02*
X8144694Y-12225758D01*
X8144694Y-12225758D02*
X8154217Y-12235281D01*
X8154217Y-12235281D02*
X8163741Y-12254329D01*
X8163741Y-12254329D02*
X8173265Y-12292424D01*
X8173265Y-12292424D02*
X8173265Y-12340043D01*
X8173265Y-12340043D02*
X8163741Y-12378138D01*
X8163741Y-12378138D02*
X8154217Y-12397186D01*
X8154217Y-12397186D02*
X8144694Y-12406710D01*
X8144694Y-12406710D02*
X8125646Y-12416234D01*
X8125646Y-12416234D02*
X8106598Y-12416234D01*
X8106598Y-12416234D02*
X8087551Y-12406710D01*
X8087551Y-12406710D02*
X8078027Y-12397186D01*
X8078027Y-12397186D02*
X8068503Y-12378138D01*
X8068503Y-12378138D02*
X8058979Y-12340043D01*
X8058979Y-12340043D02*
X8058979Y-12292424D01*
X8058979Y-12292424D02*
X8068503Y-12254329D01*
X8068503Y-12254329D02*
X8078027Y-12235281D01*
X8078027Y-12235281D02*
X8087551Y-12225758D01*
X8087551Y-12225758D02*
X8106598Y-12216234D01*
X8344694Y-12282900D02*
X8344694Y-12416234D01*
X8297075Y-12206710D02*
X8249456Y-12349567D01*
X8249456Y-12349567D02*
X8373265Y-12349567D01*
X8430408Y-12216234D02*
X8554218Y-12216234D01*
X8554218Y-12216234D02*
X8487551Y-12292424D01*
X8487551Y-12292424D02*
X8516122Y-12292424D01*
X8516122Y-12292424D02*
X8535170Y-12301948D01*
X8535170Y-12301948D02*
X8544694Y-12311472D01*
X8544694Y-12311472D02*
X8554218Y-12330519D01*
X8554218Y-12330519D02*
X8554218Y-12378138D01*
X8554218Y-12378138D02*
X8544694Y-12397186D01*
X8544694Y-12397186D02*
X8535170Y-12406710D01*
X8535170Y-12406710D02*
X8516122Y-12416234D01*
X8516122Y-12416234D02*
X8458979Y-12416234D01*
X8458979Y-12416234D02*
X8439932Y-12406710D01*
X8439932Y-12406710D02*
X8430408Y-12397186D01*
X8678027Y-12216234D02*
X8697075Y-12216234D01*
X8697075Y-12216234D02*
X8716122Y-12225758D01*
X8716122Y-12225758D02*
X8725646Y-12235281D01*
X8725646Y-12235281D02*
X8735170Y-12254329D01*
X8735170Y-12254329D02*
X8744694Y-12292424D01*
X8744694Y-12292424D02*
X8744694Y-12340043D01*
X8744694Y-12340043D02*
X8735170Y-12378138D01*
X8735170Y-12378138D02*
X8725646Y-12397186D01*
X8725646Y-12397186D02*
X8716122Y-12406710D01*
X8716122Y-12406710D02*
X8697075Y-12416234D01*
X8697075Y-12416234D02*
X8678027Y-12416234D01*
X8678027Y-12416234D02*
X8658979Y-12406710D01*
X8658979Y-12406710D02*
X8649456Y-12397186D01*
X8649456Y-12397186D02*
X8639932Y-12378138D01*
X8639932Y-12378138D02*
X8630408Y-12340043D01*
X8630408Y-12340043D02*
X8630408Y-12292424D01*
X8630408Y-12292424D02*
X8639932Y-12254329D01*
X8639932Y-12254329D02*
X8649456Y-12235281D01*
X8649456Y-12235281D02*
X8658979Y-12225758D01*
X8658979Y-12225758D02*
X8678027Y-12216234D01*
X8820884Y-12216234D02*
X8820884Y-12254329D01*
X8897075Y-12216234D02*
X8897075Y-12254329D01*
X9192313Y-12492424D02*
X9182789Y-12482900D01*
X9182789Y-12482900D02*
X9163741Y-12454329D01*
X9163741Y-12454329D02*
X9154218Y-12435281D01*
X9154218Y-12435281D02*
X9144694Y-12406710D01*
X9144694Y-12406710D02*
X9135170Y-12359091D01*
X9135170Y-12359091D02*
X9135170Y-12320996D01*
X9135170Y-12320996D02*
X9144694Y-12273377D01*
X9144694Y-12273377D02*
X9154218Y-12244805D01*
X9154218Y-12244805D02*
X9163741Y-12225758D01*
X9163741Y-12225758D02*
X9182789Y-12197186D01*
X9182789Y-12197186D02*
X9192313Y-12187662D01*
X9258980Y-12235281D02*
X9268503Y-12225758D01*
X9268503Y-12225758D02*
X9287551Y-12216234D01*
X9287551Y-12216234D02*
X9335170Y-12216234D01*
X9335170Y-12216234D02*
X9354218Y-12225758D01*
X9354218Y-12225758D02*
X9363741Y-12235281D01*
X9363741Y-12235281D02*
X9373265Y-12254329D01*
X9373265Y-12254329D02*
X9373265Y-12273377D01*
X9373265Y-12273377D02*
X9363741Y-12301948D01*
X9363741Y-12301948D02*
X9249456Y-12416234D01*
X9249456Y-12416234D02*
X9373265Y-12416234D01*
X9544694Y-12282900D02*
X9544694Y-12416234D01*
X9497075Y-12206710D02*
X9449456Y-12349567D01*
X9449456Y-12349567D02*
X9573265Y-12349567D01*
X9801837Y-12416234D02*
X9801837Y-12216234D01*
X9887551Y-12416234D02*
X9887551Y-12311472D01*
X9887551Y-12311472D02*
X9878027Y-12292424D01*
X9878027Y-12292424D02*
X9858980Y-12282900D01*
X9858980Y-12282900D02*
X9830408Y-12282900D01*
X9830408Y-12282900D02*
X9811361Y-12292424D01*
X9811361Y-12292424D02*
X9801837Y-12301948D01*
X10011361Y-12416234D02*
X9992313Y-12406710D01*
X9992313Y-12406710D02*
X9982789Y-12397186D01*
X9982789Y-12397186D02*
X9973265Y-12378138D01*
X9973265Y-12378138D02*
X9973265Y-12320996D01*
X9973265Y-12320996D02*
X9982789Y-12301948D01*
X9982789Y-12301948D02*
X9992313Y-12292424D01*
X9992313Y-12292424D02*
X10011361Y-12282900D01*
X10011361Y-12282900D02*
X10039932Y-12282900D01*
X10039932Y-12282900D02*
X10058980Y-12292424D01*
X10058980Y-12292424D02*
X10068503Y-12301948D01*
X10068503Y-12301948D02*
X10078027Y-12320996D01*
X10078027Y-12320996D02*
X10078027Y-12378138D01*
X10078027Y-12378138D02*
X10068503Y-12397186D01*
X10068503Y-12397186D02*
X10058980Y-12406710D01*
X10058980Y-12406710D02*
X10039932Y-12416234D01*
X10039932Y-12416234D02*
X10011361Y-12416234D01*
X10192313Y-12416234D02*
X10173265Y-12406710D01*
X10173265Y-12406710D02*
X10163742Y-12387662D01*
X10163742Y-12387662D02*
X10163742Y-12216234D01*
X10344694Y-12406710D02*
X10325646Y-12416234D01*
X10325646Y-12416234D02*
X10287551Y-12416234D01*
X10287551Y-12416234D02*
X10268503Y-12406710D01*
X10268503Y-12406710D02*
X10258980Y-12387662D01*
X10258980Y-12387662D02*
X10258980Y-12311472D01*
X10258980Y-12311472D02*
X10268503Y-12292424D01*
X10268503Y-12292424D02*
X10287551Y-12282900D01*
X10287551Y-12282900D02*
X10325646Y-12282900D01*
X10325646Y-12282900D02*
X10344694Y-12292424D01*
X10344694Y-12292424D02*
X10354218Y-12311472D01*
X10354218Y-12311472D02*
X10354218Y-12330519D01*
X10354218Y-12330519D02*
X10258980Y-12349567D01*
X10430408Y-12406710D02*
X10449456Y-12416234D01*
X10449456Y-12416234D02*
X10487551Y-12416234D01*
X10487551Y-12416234D02*
X10506599Y-12406710D01*
X10506599Y-12406710D02*
X10516123Y-12387662D01*
X10516123Y-12387662D02*
X10516123Y-12378138D01*
X10516123Y-12378138D02*
X10506599Y-12359091D01*
X10506599Y-12359091D02*
X10487551Y-12349567D01*
X10487551Y-12349567D02*
X10458980Y-12349567D01*
X10458980Y-12349567D02*
X10439932Y-12340043D01*
X10439932Y-12340043D02*
X10430408Y-12320996D01*
X10430408Y-12320996D02*
X10430408Y-12311472D01*
X10430408Y-12311472D02*
X10439932Y-12292424D01*
X10439932Y-12292424D02*
X10458980Y-12282900D01*
X10458980Y-12282900D02*
X10487551Y-12282900D01*
X10487551Y-12282900D02*
X10506599Y-12292424D01*
X10582789Y-12492424D02*
X10592313Y-12482900D01*
X10592313Y-12482900D02*
X10611361Y-12454329D01*
X10611361Y-12454329D02*
X10620884Y-12435281D01*
X10620884Y-12435281D02*
X10630408Y-12406710D01*
X10630408Y-12406710D02*
X10639932Y-12359091D01*
X10639932Y-12359091D02*
X10639932Y-12320996D01*
X10639932Y-12320996D02*
X10630408Y-12273377D01*
X10630408Y-12273377D02*
X10620884Y-12244805D01*
X10620884Y-12244805D02*
X10611361Y-12225758D01*
X10611361Y-12225758D02*
X10592313Y-12197186D01*
X10592313Y-12197186D02*
X10582789Y-12187662D01*
D14*
X5542250Y-12663750D02*
X5617250Y-12588750D01*
X5542250Y-12513750D01*
X5467250Y-12588750D01*
X5542250Y-12663750D01*
D11*
X5982789Y-12680234D02*
X5868503Y-12680234D01*
X5925646Y-12680234D02*
X5925646Y-12480234D01*
X5925646Y-12480234D02*
X5906598Y-12508805D01*
X5906598Y-12508805D02*
X5887551Y-12527853D01*
X5887551Y-12527853D02*
X5868503Y-12537377D01*
X6068503Y-12661186D02*
X6078027Y-12670710D01*
X6078027Y-12670710D02*
X6068503Y-12680234D01*
X6068503Y-12680234D02*
X6058979Y-12670710D01*
X6058979Y-12670710D02*
X6068503Y-12661186D01*
X6068503Y-12661186D02*
X6068503Y-12680234D01*
X6258979Y-12480234D02*
X6163741Y-12480234D01*
X6163741Y-12480234D02*
X6154217Y-12575472D01*
X6154217Y-12575472D02*
X6163741Y-12565948D01*
X6163741Y-12565948D02*
X6182789Y-12556424D01*
X6182789Y-12556424D02*
X6230408Y-12556424D01*
X6230408Y-12556424D02*
X6249455Y-12565948D01*
X6249455Y-12565948D02*
X6258979Y-12575472D01*
X6258979Y-12575472D02*
X6268503Y-12594519D01*
X6268503Y-12594519D02*
X6268503Y-12642138D01*
X6268503Y-12642138D02*
X6258979Y-12661186D01*
X6258979Y-12661186D02*
X6249455Y-12670710D01*
X6249455Y-12670710D02*
X6230408Y-12680234D01*
X6230408Y-12680234D02*
X6182789Y-12680234D01*
X6182789Y-12680234D02*
X6163741Y-12670710D01*
X6163741Y-12670710D02*
X6154217Y-12661186D01*
X6392312Y-12480234D02*
X6411360Y-12480234D01*
X6411360Y-12480234D02*
X6430408Y-12489758D01*
X6430408Y-12489758D02*
X6439932Y-12499281D01*
X6439932Y-12499281D02*
X6449455Y-12518329D01*
X6449455Y-12518329D02*
X6458979Y-12556424D01*
X6458979Y-12556424D02*
X6458979Y-12604043D01*
X6458979Y-12604043D02*
X6449455Y-12642138D01*
X6449455Y-12642138D02*
X6439932Y-12661186D01*
X6439932Y-12661186D02*
X6430408Y-12670710D01*
X6430408Y-12670710D02*
X6411360Y-12680234D01*
X6411360Y-12680234D02*
X6392312Y-12680234D01*
X6392312Y-12680234D02*
X6373265Y-12670710D01*
X6373265Y-12670710D02*
X6363741Y-12661186D01*
X6363741Y-12661186D02*
X6354217Y-12642138D01*
X6354217Y-12642138D02*
X6344693Y-12604043D01*
X6344693Y-12604043D02*
X6344693Y-12556424D01*
X6344693Y-12556424D02*
X6354217Y-12518329D01*
X6354217Y-12518329D02*
X6363741Y-12499281D01*
X6363741Y-12499281D02*
X6373265Y-12489758D01*
X6373265Y-12489758D02*
X6392312Y-12480234D01*
X6582789Y-12480234D02*
X6601836Y-12480234D01*
X6601836Y-12480234D02*
X6620884Y-12489758D01*
X6620884Y-12489758D02*
X6630408Y-12499281D01*
X6630408Y-12499281D02*
X6639932Y-12518329D01*
X6639932Y-12518329D02*
X6649455Y-12556424D01*
X6649455Y-12556424D02*
X6649455Y-12604043D01*
X6649455Y-12604043D02*
X6639932Y-12642138D01*
X6639932Y-12642138D02*
X6630408Y-12661186D01*
X6630408Y-12661186D02*
X6620884Y-12670710D01*
X6620884Y-12670710D02*
X6601836Y-12680234D01*
X6601836Y-12680234D02*
X6582789Y-12680234D01*
X6582789Y-12680234D02*
X6563741Y-12670710D01*
X6563741Y-12670710D02*
X6554217Y-12661186D01*
X6554217Y-12661186D02*
X6544693Y-12642138D01*
X6544693Y-12642138D02*
X6535170Y-12604043D01*
X6535170Y-12604043D02*
X6535170Y-12556424D01*
X6535170Y-12556424D02*
X6544693Y-12518329D01*
X6544693Y-12518329D02*
X6554217Y-12499281D01*
X6554217Y-12499281D02*
X6563741Y-12489758D01*
X6563741Y-12489758D02*
X6582789Y-12480234D01*
X6735170Y-12680234D02*
X6735170Y-12546900D01*
X6735170Y-12565948D02*
X6744693Y-12556424D01*
X6744693Y-12556424D02*
X6763741Y-12546900D01*
X6763741Y-12546900D02*
X6792313Y-12546900D01*
X6792313Y-12546900D02*
X6811360Y-12556424D01*
X6811360Y-12556424D02*
X6820884Y-12575472D01*
X6820884Y-12575472D02*
X6820884Y-12680234D01*
X6820884Y-12575472D02*
X6830408Y-12556424D01*
X6830408Y-12556424D02*
X6849455Y-12546900D01*
X6849455Y-12546900D02*
X6878027Y-12546900D01*
X6878027Y-12546900D02*
X6897074Y-12556424D01*
X6897074Y-12556424D02*
X6906598Y-12575472D01*
X6906598Y-12575472D02*
X6906598Y-12680234D01*
X7001836Y-12680234D02*
X7001836Y-12546900D01*
X7001836Y-12565948D02*
X7011360Y-12556424D01*
X7011360Y-12556424D02*
X7030408Y-12546900D01*
X7030408Y-12546900D02*
X7058979Y-12546900D01*
X7058979Y-12546900D02*
X7078027Y-12556424D01*
X7078027Y-12556424D02*
X7087551Y-12575472D01*
X7087551Y-12575472D02*
X7087551Y-12680234D01*
X7087551Y-12575472D02*
X7097074Y-12556424D01*
X7097074Y-12556424D02*
X7116122Y-12546900D01*
X7116122Y-12546900D02*
X7144693Y-12546900D01*
X7144693Y-12546900D02*
X7163741Y-12556424D01*
X7163741Y-12556424D02*
X7173265Y-12575472D01*
X7173265Y-12575472D02*
X7173265Y-12680234D01*
X7563741Y-12470710D02*
X7392313Y-12727853D01*
X7820884Y-12480234D02*
X7839932Y-12480234D01*
X7839932Y-12480234D02*
X7858979Y-12489758D01*
X7858979Y-12489758D02*
X7868503Y-12499281D01*
X7868503Y-12499281D02*
X7878027Y-12518329D01*
X7878027Y-12518329D02*
X7887551Y-12556424D01*
X7887551Y-12556424D02*
X7887551Y-12604043D01*
X7887551Y-12604043D02*
X7878027Y-12642138D01*
X7878027Y-12642138D02*
X7868503Y-12661186D01*
X7868503Y-12661186D02*
X7858979Y-12670710D01*
X7858979Y-12670710D02*
X7839932Y-12680234D01*
X7839932Y-12680234D02*
X7820884Y-12680234D01*
X7820884Y-12680234D02*
X7801836Y-12670710D01*
X7801836Y-12670710D02*
X7792313Y-12661186D01*
X7792313Y-12661186D02*
X7782789Y-12642138D01*
X7782789Y-12642138D02*
X7773265Y-12604043D01*
X7773265Y-12604043D02*
X7773265Y-12556424D01*
X7773265Y-12556424D02*
X7782789Y-12518329D01*
X7782789Y-12518329D02*
X7792313Y-12499281D01*
X7792313Y-12499281D02*
X7801836Y-12489758D01*
X7801836Y-12489758D02*
X7820884Y-12480234D01*
X7973265Y-12661186D02*
X7982789Y-12670710D01*
X7982789Y-12670710D02*
X7973265Y-12680234D01*
X7973265Y-12680234D02*
X7963741Y-12670710D01*
X7963741Y-12670710D02*
X7973265Y-12661186D01*
X7973265Y-12661186D02*
X7973265Y-12680234D01*
X8106598Y-12480234D02*
X8125646Y-12480234D01*
X8125646Y-12480234D02*
X8144694Y-12489758D01*
X8144694Y-12489758D02*
X8154217Y-12499281D01*
X8154217Y-12499281D02*
X8163741Y-12518329D01*
X8163741Y-12518329D02*
X8173265Y-12556424D01*
X8173265Y-12556424D02*
X8173265Y-12604043D01*
X8173265Y-12604043D02*
X8163741Y-12642138D01*
X8163741Y-12642138D02*
X8154217Y-12661186D01*
X8154217Y-12661186D02*
X8144694Y-12670710D01*
X8144694Y-12670710D02*
X8125646Y-12680234D01*
X8125646Y-12680234D02*
X8106598Y-12680234D01*
X8106598Y-12680234D02*
X8087551Y-12670710D01*
X8087551Y-12670710D02*
X8078027Y-12661186D01*
X8078027Y-12661186D02*
X8068503Y-12642138D01*
X8068503Y-12642138D02*
X8058979Y-12604043D01*
X8058979Y-12604043D02*
X8058979Y-12556424D01*
X8058979Y-12556424D02*
X8068503Y-12518329D01*
X8068503Y-12518329D02*
X8078027Y-12499281D01*
X8078027Y-12499281D02*
X8087551Y-12489758D01*
X8087551Y-12489758D02*
X8106598Y-12480234D01*
X8354217Y-12480234D02*
X8258979Y-12480234D01*
X8258979Y-12480234D02*
X8249456Y-12575472D01*
X8249456Y-12575472D02*
X8258979Y-12565948D01*
X8258979Y-12565948D02*
X8278027Y-12556424D01*
X8278027Y-12556424D02*
X8325646Y-12556424D01*
X8325646Y-12556424D02*
X8344694Y-12565948D01*
X8344694Y-12565948D02*
X8354217Y-12575472D01*
X8354217Y-12575472D02*
X8363741Y-12594519D01*
X8363741Y-12594519D02*
X8363741Y-12642138D01*
X8363741Y-12642138D02*
X8354217Y-12661186D01*
X8354217Y-12661186D02*
X8344694Y-12670710D01*
X8344694Y-12670710D02*
X8325646Y-12680234D01*
X8325646Y-12680234D02*
X8278027Y-12680234D01*
X8278027Y-12680234D02*
X8258979Y-12670710D01*
X8258979Y-12670710D02*
X8249456Y-12661186D01*
X8458979Y-12680234D02*
X8497075Y-12680234D01*
X8497075Y-12680234D02*
X8516122Y-12670710D01*
X8516122Y-12670710D02*
X8525646Y-12661186D01*
X8525646Y-12661186D02*
X8544694Y-12632615D01*
X8544694Y-12632615D02*
X8554218Y-12594519D01*
X8554218Y-12594519D02*
X8554218Y-12518329D01*
X8554218Y-12518329D02*
X8544694Y-12499281D01*
X8544694Y-12499281D02*
X8535170Y-12489758D01*
X8535170Y-12489758D02*
X8516122Y-12480234D01*
X8516122Y-12480234D02*
X8478027Y-12480234D01*
X8478027Y-12480234D02*
X8458979Y-12489758D01*
X8458979Y-12489758D02*
X8449456Y-12499281D01*
X8449456Y-12499281D02*
X8439932Y-12518329D01*
X8439932Y-12518329D02*
X8439932Y-12565948D01*
X8439932Y-12565948D02*
X8449456Y-12584996D01*
X8449456Y-12584996D02*
X8458979Y-12594519D01*
X8458979Y-12594519D02*
X8478027Y-12604043D01*
X8478027Y-12604043D02*
X8516122Y-12604043D01*
X8516122Y-12604043D02*
X8535170Y-12594519D01*
X8535170Y-12594519D02*
X8544694Y-12584996D01*
X8544694Y-12584996D02*
X8554218Y-12565948D01*
X8744694Y-12680234D02*
X8630408Y-12680234D01*
X8687551Y-12680234D02*
X8687551Y-12480234D01*
X8687551Y-12480234D02*
X8668503Y-12508805D01*
X8668503Y-12508805D02*
X8649456Y-12527853D01*
X8649456Y-12527853D02*
X8630408Y-12537377D01*
X8820884Y-12480234D02*
X8820884Y-12518329D01*
X8897075Y-12480234D02*
X8897075Y-12518329D01*
X9192313Y-12756424D02*
X9182789Y-12746900D01*
X9182789Y-12746900D02*
X9163741Y-12718329D01*
X9163741Y-12718329D02*
X9154218Y-12699281D01*
X9154218Y-12699281D02*
X9144694Y-12670710D01*
X9144694Y-12670710D02*
X9135170Y-12623091D01*
X9135170Y-12623091D02*
X9135170Y-12584996D01*
X9135170Y-12584996D02*
X9144694Y-12537377D01*
X9144694Y-12537377D02*
X9154218Y-12508805D01*
X9154218Y-12508805D02*
X9163741Y-12489758D01*
X9163741Y-12489758D02*
X9182789Y-12461186D01*
X9182789Y-12461186D02*
X9192313Y-12451662D01*
X9373265Y-12680234D02*
X9258980Y-12680234D01*
X9316122Y-12680234D02*
X9316122Y-12480234D01*
X9316122Y-12480234D02*
X9297075Y-12508805D01*
X9297075Y-12508805D02*
X9278027Y-12527853D01*
X9278027Y-12527853D02*
X9258980Y-12537377D01*
X9487551Y-12565948D02*
X9468503Y-12556424D01*
X9468503Y-12556424D02*
X9458980Y-12546900D01*
X9458980Y-12546900D02*
X9449456Y-12527853D01*
X9449456Y-12527853D02*
X9449456Y-12518329D01*
X9449456Y-12518329D02*
X9458980Y-12499281D01*
X9458980Y-12499281D02*
X9468503Y-12489758D01*
X9468503Y-12489758D02*
X9487551Y-12480234D01*
X9487551Y-12480234D02*
X9525646Y-12480234D01*
X9525646Y-12480234D02*
X9544694Y-12489758D01*
X9544694Y-12489758D02*
X9554218Y-12499281D01*
X9554218Y-12499281D02*
X9563741Y-12518329D01*
X9563741Y-12518329D02*
X9563741Y-12527853D01*
X9563741Y-12527853D02*
X9554218Y-12546900D01*
X9554218Y-12546900D02*
X9544694Y-12556424D01*
X9544694Y-12556424D02*
X9525646Y-12565948D01*
X9525646Y-12565948D02*
X9487551Y-12565948D01*
X9487551Y-12565948D02*
X9468503Y-12575472D01*
X9468503Y-12575472D02*
X9458980Y-12584996D01*
X9458980Y-12584996D02*
X9449456Y-12604043D01*
X9449456Y-12604043D02*
X9449456Y-12642138D01*
X9449456Y-12642138D02*
X9458980Y-12661186D01*
X9458980Y-12661186D02*
X9468503Y-12670710D01*
X9468503Y-12670710D02*
X9487551Y-12680234D01*
X9487551Y-12680234D02*
X9525646Y-12680234D01*
X9525646Y-12680234D02*
X9544694Y-12670710D01*
X9544694Y-12670710D02*
X9554218Y-12661186D01*
X9554218Y-12661186D02*
X9563741Y-12642138D01*
X9563741Y-12642138D02*
X9563741Y-12604043D01*
X9563741Y-12604043D02*
X9554218Y-12584996D01*
X9554218Y-12584996D02*
X9544694Y-12575472D01*
X9544694Y-12575472D02*
X9525646Y-12565948D01*
X9801837Y-12680234D02*
X9801837Y-12480234D01*
X9887551Y-12680234D02*
X9887551Y-12575472D01*
X9887551Y-12575472D02*
X9878027Y-12556424D01*
X9878027Y-12556424D02*
X9858980Y-12546900D01*
X9858980Y-12546900D02*
X9830408Y-12546900D01*
X9830408Y-12546900D02*
X9811361Y-12556424D01*
X9811361Y-12556424D02*
X9801837Y-12565948D01*
X10011361Y-12680234D02*
X9992313Y-12670710D01*
X9992313Y-12670710D02*
X9982789Y-12661186D01*
X9982789Y-12661186D02*
X9973265Y-12642138D01*
X9973265Y-12642138D02*
X9973265Y-12584996D01*
X9973265Y-12584996D02*
X9982789Y-12565948D01*
X9982789Y-12565948D02*
X9992313Y-12556424D01*
X9992313Y-12556424D02*
X10011361Y-12546900D01*
X10011361Y-12546900D02*
X10039932Y-12546900D01*
X10039932Y-12546900D02*
X10058980Y-12556424D01*
X10058980Y-12556424D02*
X10068503Y-12565948D01*
X10068503Y-12565948D02*
X10078027Y-12584996D01*
X10078027Y-12584996D02*
X10078027Y-12642138D01*
X10078027Y-12642138D02*
X10068503Y-12661186D01*
X10068503Y-12661186D02*
X10058980Y-12670710D01*
X10058980Y-12670710D02*
X10039932Y-12680234D01*
X10039932Y-12680234D02*
X10011361Y-12680234D01*
X10192313Y-12680234D02*
X10173265Y-12670710D01*
X10173265Y-12670710D02*
X10163742Y-12651662D01*
X10163742Y-12651662D02*
X10163742Y-12480234D01*
X10344694Y-12670710D02*
X10325646Y-12680234D01*
X10325646Y-12680234D02*
X10287551Y-12680234D01*
X10287551Y-12680234D02*
X10268503Y-12670710D01*
X10268503Y-12670710D02*
X10258980Y-12651662D01*
X10258980Y-12651662D02*
X10258980Y-12575472D01*
X10258980Y-12575472D02*
X10268503Y-12556424D01*
X10268503Y-12556424D02*
X10287551Y-12546900D01*
X10287551Y-12546900D02*
X10325646Y-12546900D01*
X10325646Y-12546900D02*
X10344694Y-12556424D01*
X10344694Y-12556424D02*
X10354218Y-12575472D01*
X10354218Y-12575472D02*
X10354218Y-12594519D01*
X10354218Y-12594519D02*
X10258980Y-12613567D01*
X10430408Y-12670710D02*
X10449456Y-12680234D01*
X10449456Y-12680234D02*
X10487551Y-12680234D01*
X10487551Y-12680234D02*
X10506599Y-12670710D01*
X10506599Y-12670710D02*
X10516123Y-12651662D01*
X10516123Y-12651662D02*
X10516123Y-12642138D01*
X10516123Y-12642138D02*
X10506599Y-12623091D01*
X10506599Y-12623091D02*
X10487551Y-12613567D01*
X10487551Y-12613567D02*
X10458980Y-12613567D01*
X10458980Y-12613567D02*
X10439932Y-12604043D01*
X10439932Y-12604043D02*
X10430408Y-12584996D01*
X10430408Y-12584996D02*
X10430408Y-12575472D01*
X10430408Y-12575472D02*
X10439932Y-12556424D01*
X10439932Y-12556424D02*
X10458980Y-12546900D01*
X10458980Y-12546900D02*
X10487551Y-12546900D01*
X10487551Y-12546900D02*
X10506599Y-12556424D01*
X10754218Y-12604043D02*
X10906599Y-12604043D01*
X10830408Y-12680234D02*
X10830408Y-12527853D01*
X11144694Y-12499281D02*
X11154218Y-12489758D01*
X11154218Y-12489758D02*
X11173265Y-12480234D01*
X11173265Y-12480234D02*
X11220884Y-12480234D01*
X11220884Y-12480234D02*
X11239932Y-12489758D01*
X11239932Y-12489758D02*
X11249456Y-12499281D01*
X11249456Y-12499281D02*
X11258980Y-12518329D01*
X11258980Y-12518329D02*
X11258980Y-12537377D01*
X11258980Y-12537377D02*
X11249456Y-12565948D01*
X11249456Y-12565948D02*
X11135170Y-12680234D01*
X11135170Y-12680234D02*
X11258980Y-12680234D01*
X11487551Y-12670710D02*
X11506599Y-12680234D01*
X11506599Y-12680234D02*
X11544694Y-12680234D01*
X11544694Y-12680234D02*
X11563742Y-12670710D01*
X11563742Y-12670710D02*
X11573265Y-12651662D01*
X11573265Y-12651662D02*
X11573265Y-12642138D01*
X11573265Y-12642138D02*
X11563742Y-12623091D01*
X11563742Y-12623091D02*
X11544694Y-12613567D01*
X11544694Y-12613567D02*
X11516123Y-12613567D01*
X11516123Y-12613567D02*
X11497075Y-12604043D01*
X11497075Y-12604043D02*
X11487551Y-12584996D01*
X11487551Y-12584996D02*
X11487551Y-12575472D01*
X11487551Y-12575472D02*
X11497075Y-12556424D01*
X11497075Y-12556424D02*
X11516123Y-12546900D01*
X11516123Y-12546900D02*
X11544694Y-12546900D01*
X11544694Y-12546900D02*
X11563742Y-12556424D01*
X11687551Y-12680234D02*
X11668504Y-12670710D01*
X11668504Y-12670710D02*
X11658980Y-12651662D01*
X11658980Y-12651662D02*
X11658980Y-12480234D01*
X11792313Y-12680234D02*
X11773265Y-12670710D01*
X11773265Y-12670710D02*
X11763742Y-12661186D01*
X11763742Y-12661186D02*
X11754218Y-12642138D01*
X11754218Y-12642138D02*
X11754218Y-12584996D01*
X11754218Y-12584996D02*
X11763742Y-12565948D01*
X11763742Y-12565948D02*
X11773265Y-12556424D01*
X11773265Y-12556424D02*
X11792313Y-12546900D01*
X11792313Y-12546900D02*
X11820885Y-12546900D01*
X11820885Y-12546900D02*
X11839932Y-12556424D01*
X11839932Y-12556424D02*
X11849456Y-12565948D01*
X11849456Y-12565948D02*
X11858980Y-12584996D01*
X11858980Y-12584996D02*
X11858980Y-12642138D01*
X11858980Y-12642138D02*
X11849456Y-12661186D01*
X11849456Y-12661186D02*
X11839932Y-12670710D01*
X11839932Y-12670710D02*
X11820885Y-12680234D01*
X11820885Y-12680234D02*
X11792313Y-12680234D01*
X11916123Y-12546900D02*
X11992313Y-12546900D01*
X11944694Y-12480234D02*
X11944694Y-12651662D01*
X11944694Y-12651662D02*
X11954218Y-12670710D01*
X11954218Y-12670710D02*
X11973265Y-12680234D01*
X11973265Y-12680234D02*
X11992313Y-12680234D01*
X12049456Y-12670710D02*
X12068504Y-12680234D01*
X12068504Y-12680234D02*
X12106599Y-12680234D01*
X12106599Y-12680234D02*
X12125646Y-12670710D01*
X12125646Y-12670710D02*
X12135170Y-12651662D01*
X12135170Y-12651662D02*
X12135170Y-12642138D01*
X12135170Y-12642138D02*
X12125646Y-12623091D01*
X12125646Y-12623091D02*
X12106599Y-12613567D01*
X12106599Y-12613567D02*
X12078027Y-12613567D01*
X12078027Y-12613567D02*
X12058980Y-12604043D01*
X12058980Y-12604043D02*
X12049456Y-12584996D01*
X12049456Y-12584996D02*
X12049456Y-12575472D01*
X12049456Y-12575472D02*
X12058980Y-12556424D01*
X12058980Y-12556424D02*
X12078027Y-12546900D01*
X12078027Y-12546900D02*
X12106599Y-12546900D01*
X12106599Y-12546900D02*
X12125646Y-12556424D01*
X12201837Y-12756424D02*
X12211361Y-12746900D01*
X12211361Y-12746900D02*
X12230408Y-12718329D01*
X12230408Y-12718329D02*
X12239932Y-12699281D01*
X12239932Y-12699281D02*
X12249456Y-12670710D01*
X12249456Y-12670710D02*
X12258980Y-12623091D01*
X12258980Y-12623091D02*
X12258980Y-12584996D01*
X12258980Y-12584996D02*
X12249456Y-12537377D01*
X12249456Y-12537377D02*
X12239932Y-12508805D01*
X12239932Y-12508805D02*
X12230408Y-12489758D01*
X12230408Y-12489758D02*
X12211361Y-12461186D01*
X12211361Y-12461186D02*
X12201837Y-12451662D01*
M02*
