M48
; DRILL file {KiCad 8.0.4} date 2024-07-27T19:33:38+0200
; FORMAT={-:-/ absolute / metric / decimal}
; #@! TF.CreationDate,2024-07-27T19:33:38+02:00
; #@! TF.GenerationSoftware,Kicad,Pcbnew,8.0.4
; #@! TF.FileFunction,Plated,1,2,PTH
FMAT,2
METRIC
; #@! TA.AperFunction,Plated,PTH,ViaDrill
T1C0.300
; #@! TA.AperFunction,Plated,PTH,ComponentDrill
T2C0.800
; #@! TA.AperFunction,Plated,PTH,ComponentDrill
T3C1.000
; #@! TA.AperFunction,Plated,PTH,ComponentDrill
T4C1.092
; #@! TA.AperFunction,Plated,PTH,ComponentDrill
T5C1.500
%
G90
G05
T1
X79.216Y-67.627
X82.391Y-67.627
X83.185Y-69.215
T2
X74.454Y-63.976
X74.454Y-71.596
X74.454Y-75.882
X74.454Y-83.502
X74.454Y-94.932
X74.454Y-102.552
X93.504Y-75.882
X93.504Y-83.502
X93.504Y-94.932
X93.504Y-102.552
X95.091Y-63.976
X95.091Y-71.596
X102.552Y-52.546
X102.552Y-71.596
X102.552Y-90.646
X110.172Y-52.546
X110.172Y-71.596
X110.172Y-90.646
T3
X66.516Y-46.196
X69.056Y-46.196
X71.596Y-46.196
X74.136Y-46.196
X95.779Y-39.727
X95.779Y-42.227
X95.779Y-44.727
X110.279Y-39.727
X110.279Y-44.727
T4
X77.078Y-41.383
X77.078Y-43.922
X77.078Y-46.462
X77.078Y-49.002
X77.078Y-51.542
X77.078Y-54.082
X77.078Y-56.622
X77.078Y-59.162
X77.078Y-61.703
X77.078Y-64.242
X77.078Y-66.782
X77.078Y-69.322
X92.317Y-41.383
X92.317Y-43.922
X92.317Y-46.462
X92.317Y-49.002
X92.317Y-51.542
X92.317Y-54.082
X92.317Y-56.622
X92.317Y-59.162
X92.317Y-61.703
X92.317Y-64.242
X92.317Y-66.782
X92.317Y-69.322
T5
X61.912Y-58.737
X61.912Y-77.787
X61.912Y-96.837
X68.263Y-56.197
X68.263Y-75.248
X68.263Y-94.297
X80.962Y-58.737
X80.962Y-77.787
X80.962Y-96.837
X87.312Y-56.197
X87.312Y-75.248
X87.312Y-94.297
X100.012Y-58.737
X100.012Y-77.787
X100.012Y-96.837
X106.362Y-56.197
X106.362Y-75.248
X106.362Y-94.297
T5
X102.629Y-36.627G85X103.929Y-36.627
G05
X102.629Y-47.828G85X103.929Y-47.828
G05
M30
