M48
; DRILL file {KiCad 8.0.4} date 2024-07-27T19:33:38+0200
; FORMAT={-:-/ absolute / metric / decimal}
; #@! TF.CreationDate,2024-07-27T19:33:38+02:00
; #@! TF.GenerationSoftware,Kicad,Pcbnew,8.0.4
; #@! TF.FileFunction,NonPlated,1,2,NPTH
FMAT,2
METRIC
; #@! TA.AperFunction,NonPlated,NPTH,ComponentDrill
T1C1.750
; #@! TA.AperFunction,NonPlated,NPTH,ComponentDrill
T2C3.200
; #@! TA.AperFunction,NonPlated,NPTH,ComponentDrill
T3C4.000
%
G90
G05
T1
X60.642Y-61.277
X60.642Y-80.328
X60.642Y-99.377
X70.802Y-61.277
X70.802Y-80.328
X70.802Y-99.377
X79.692Y-61.277
X79.692Y-80.328
X79.692Y-99.377
X89.852Y-61.277
X89.852Y-80.328
X89.852Y-99.377
X98.742Y-61.277
X98.742Y-80.328
X98.742Y-99.377
X108.902Y-61.277
X108.902Y-80.328
X108.902Y-99.377
T2
X65.722Y-39.052
X75.248Y-89.852
X94.297Y-89.852
T3
X65.722Y-61.277
X65.722Y-80.328
X65.722Y-99.377
X84.772Y-61.277
X84.772Y-80.328
X84.772Y-99.377
X103.822Y-61.277
X103.822Y-80.328
X103.822Y-99.377
M30
