%TF.GenerationSoftware,KiCad,Pcbnew,8.0.4*%
%TF.CreationDate,2024-07-27T19:33:33+02:00*%
%TF.ProjectId,pcb_macropad,7063625f-6d61-4637-926f-7061642e6b69,rev?*%
%TF.SameCoordinates,Original*%
%TF.FileFunction,Copper,L2,Bot*%
%TF.FilePolarity,Positive*%
%FSLAX46Y46*%
G04 Gerber Fmt 4.6, Leading zero omitted, Abs format (unit mm)*
G04 Created by KiCad (PCBNEW 8.0.4) date 2024-07-27 19:33:33*
%MOMM*%
%LPD*%
G01*
G04 APERTURE LIST*
%TA.AperFunction,ComponentPad*%
%ADD10C,2.500000*%
%TD*%
%TA.AperFunction,ComponentPad*%
%ADD11O,1.600000X2.000000*%
%TD*%
%TA.AperFunction,ComponentPad*%
%ADD12R,2.000000X2.000000*%
%TD*%
%TA.AperFunction,ComponentPad*%
%ADD13C,2.000000*%
%TD*%
%TA.AperFunction,ComponentPad*%
%ADD14R,3.200000X2.000000*%
%TD*%
%TA.AperFunction,ComponentPad*%
%ADD15R,1.600000X1.600000*%
%TD*%
%TA.AperFunction,ComponentPad*%
%ADD16O,1.600000X1.600000*%
%TD*%
%TA.AperFunction,ComponentPad*%
%ADD17R,1.752600X1.752600*%
%TD*%
%TA.AperFunction,ComponentPad*%
%ADD18C,1.752600*%
%TD*%
%TA.AperFunction,ViaPad*%
%ADD19C,0.600000*%
%TD*%
%TA.AperFunction,Conductor*%
%ADD20C,0.200000*%
%TD*%
G04 APERTURE END LIST*
D10*
%TO.P,S5,1,1*%
%TO.N,Column 2*%
X80962500Y-77787500D03*
%TO.P,S5,2,2*%
%TO.N,Net-(D5-A)*%
X87312500Y-75247500D03*
%TD*%
%TO.P,S4,1,1*%
%TO.N,Column 1*%
X61912500Y-77787500D03*
%TO.P,S4,2,2*%
%TO.N,Net-(D4-A)*%
X68262500Y-75247500D03*
%TD*%
%TO.P,S1,1,1*%
%TO.N,Column 1*%
X61912500Y-58737500D03*
%TO.P,S1,2,2*%
%TO.N,Net-(D1-A)*%
X68262500Y-56197500D03*
%TD*%
%TO.P,S6,1,1*%
%TO.N,Column 3*%
X100012500Y-77787500D03*
%TO.P,S6,2,2*%
%TO.N,Net-(D6-A)*%
X106362500Y-75247500D03*
%TD*%
D11*
%TO.P,J1,1,GND*%
%TO.N,GND*%
X74136250Y-46196250D03*
%TO.P,J1,2,VCC*%
%TO.N,VCC*%
X71596250Y-46196250D03*
%TO.P,J1,3,SCL*%
%TO.N,SCL*%
X69056250Y-46196250D03*
%TO.P,J1,4,SDA*%
%TO.N,SDA*%
X66516250Y-46196250D03*
%TD*%
D10*
%TO.P,S9,1,1*%
%TO.N,Column 3*%
X100012500Y-96837500D03*
%TO.P,S9,2,2*%
%TO.N,Net-(D9-A)*%
X106362500Y-94297500D03*
%TD*%
%TO.P,S8,1,1*%
%TO.N,Column 2*%
X80962500Y-96837500D03*
%TO.P,S8,2,2*%
%TO.N,Net-(D8-A)*%
X87312500Y-94297500D03*
%TD*%
%TO.P,S2,1,1*%
%TO.N,Column 2*%
X80962500Y-58737500D03*
%TO.P,S2,2,2*%
%TO.N,Net-(D2-A)*%
X87312500Y-56197500D03*
%TD*%
%TO.P,S7,1,1*%
%TO.N,Column 1*%
X61912500Y-96837500D03*
%TO.P,S7,2,2*%
%TO.N,Net-(D7-A)*%
X68262500Y-94297500D03*
%TD*%
D12*
%TO.P,SW1,A,A*%
%TO.N,EncoderA*%
X95778750Y-39727500D03*
D13*
%TO.P,SW1,B,B*%
%TO.N,EncoderB*%
X95778750Y-44727500D03*
%TO.P,SW1,C,C*%
%TO.N,GND*%
X95778750Y-42227500D03*
D14*
%TO.P,SW1,MP*%
%TO.N,N/C*%
X103278750Y-36627500D03*
X103278750Y-47827500D03*
D13*
%TO.P,SW1,S1,S1*%
%TO.N,EncoderSW*%
X110278750Y-44727500D03*
%TO.P,SW1,S2,S2*%
%TO.N,GND*%
X110278750Y-39727500D03*
%TD*%
D10*
%TO.P,S3,1,1*%
%TO.N,Column 3*%
X100012500Y-58737500D03*
%TO.P,S3,2,2*%
%TO.N,Net-(D3-A)*%
X106362500Y-56197500D03*
%TD*%
D15*
%TO.P,D1,1,K*%
%TO.N,Row 1*%
X74453750Y-71596250D03*
D16*
%TO.P,D1,2,A*%
%TO.N,Net-(D1-A)*%
X74453750Y-63976250D03*
%TD*%
D15*
%TO.P,D8,1,K*%
%TO.N,Row 3*%
X93503750Y-102552500D03*
D16*
%TO.P,D8,2,A*%
%TO.N,Net-(D8-A)*%
X93503750Y-94932500D03*
%TD*%
D15*
%TO.P,D4,1,K*%
%TO.N,Row 2*%
X74453750Y-83502500D03*
D16*
%TO.P,D4,2,A*%
%TO.N,Net-(D4-A)*%
X74453750Y-75882500D03*
%TD*%
D15*
%TO.P,D7,1,K*%
%TO.N,Row 3*%
X74453750Y-102552500D03*
D16*
%TO.P,D7,2,A*%
%TO.N,Net-(D7-A)*%
X74453750Y-94932500D03*
%TD*%
D15*
%TO.P,D3,1,K*%
%TO.N,Row 1*%
X102552500Y-52546250D03*
D16*
%TO.P,D3,2,A*%
%TO.N,Net-(D3-A)*%
X110172500Y-52546250D03*
%TD*%
D15*
%TO.P,D2,1,K*%
%TO.N,Row 1*%
X95091250Y-71596250D03*
D16*
%TO.P,D2,2,A*%
%TO.N,Net-(D2-A)*%
X95091250Y-63976250D03*
%TD*%
D15*
%TO.P,D9,1,K*%
%TO.N,Row 3*%
X102552500Y-90646250D03*
D16*
%TO.P,D9,2,A*%
%TO.N,Net-(D9-A)*%
X110172500Y-90646250D03*
%TD*%
D15*
%TO.P,D5,1,K*%
%TO.N,Row 2*%
X93503750Y-83502500D03*
D16*
%TO.P,D5,2,A*%
%TO.N,Net-(D5-A)*%
X93503750Y-75882500D03*
%TD*%
D15*
%TO.P,D6,1,K*%
%TO.N,Row 2*%
X102552500Y-71596250D03*
D16*
%TO.P,D6,2,A*%
%TO.N,Net-(D6-A)*%
X110172500Y-71596250D03*
%TD*%
D17*
%TO.P,U1,1,TX0/PD3*%
%TO.N,unconnected-(U1-TX0{slash}PD3-Pad1)*%
X92317500Y-41382500D03*
D18*
%TO.P,U1,2,RX1/PD2*%
%TO.N,unconnected-(U1-RX1{slash}PD2-Pad2)*%
X92317500Y-43922500D03*
%TO.P,U1,3,GND*%
%TO.N,GND*%
X92317500Y-46462500D03*
%TO.P,U1,4,GND*%
X92317500Y-49002500D03*
%TO.P,U1,5,2/PD1*%
%TO.N,SDA*%
X92317500Y-51542500D03*
%TO.P,U1,6,3/PD0*%
%TO.N,SCL*%
X92317500Y-54082500D03*
%TO.P,U1,7,4/PD4*%
%TO.N,unconnected-(U1-4{slash}PD4-Pad7)*%
X92317500Y-56622500D03*
%TO.P,U1,8,5/PC6*%
%TO.N,EncoderA*%
X92317500Y-59162500D03*
%TO.P,U1,9,6/PD7*%
%TO.N,EncoderB*%
X92317500Y-61702500D03*
%TO.P,U1,10,7/PE6*%
%TO.N,EncoderSW*%
X92317500Y-64242500D03*
%TO.P,U1,11,8/PB4*%
%TO.N,unconnected-(U1-8{slash}PB4-Pad11)*%
X92317500Y-66782500D03*
%TO.P,U1,12,9/PB5*%
%TO.N,unconnected-(U1-9{slash}PB5-Pad12)*%
X92317500Y-69322500D03*
%TO.P,U1,13,10/PB6*%
%TO.N,Column 3*%
X77077500Y-69322500D03*
%TO.P,U1,14,16/PB2*%
%TO.N,Column 2*%
X77077500Y-66782500D03*
%TO.P,U1,15,14/PB3*%
%TO.N,Column 1*%
X77077500Y-64242500D03*
%TO.P,U1,16,15/PB1*%
%TO.N,Row 3*%
X77077500Y-61702500D03*
%TO.P,U1,17,A0/PF7*%
%TO.N,Row 2*%
X77077500Y-59162500D03*
%TO.P,U1,18,A1/PF6*%
%TO.N,Row 1*%
X77077500Y-56622500D03*
%TO.P,U1,19,A2/PF5*%
%TO.N,unconnected-(U1-A2{slash}PF5-Pad19)*%
X77077500Y-54082500D03*
%TO.P,U1,20,A3/PF4*%
%TO.N,unconnected-(U1-A3{slash}PF4-Pad20)*%
X77077500Y-51542500D03*
%TO.P,U1,21,VCC*%
%TO.N,VCC*%
X77077500Y-49002500D03*
%TO.P,U1,22,RST*%
%TO.N,unconnected-(U1-RST-Pad22)*%
X77077500Y-46462500D03*
%TO.P,U1,23,GND*%
%TO.N,GND*%
X77077500Y-43922500D03*
%TO.P,U1,24,RAW*%
%TO.N,unconnected-(U1-RAW-Pad24)*%
X77077500Y-41382500D03*
%TD*%
D19*
%TO.N,Row 2*%
X82391250Y-67627500D03*
%TO.N,Row 3*%
X79216250Y-67627500D03*
%TO.N,Column 3*%
X83185000Y-69215000D03*
%TD*%
D20*
%TO.N,Row 2*%
X82391250Y-67627500D02*
X82391250Y-74598662D01*
X91295088Y-83502500D02*
X93503750Y-83502500D01*
X82391250Y-74598662D02*
X91295088Y-83502500D01*
%TO.N,Row 3*%
X78467500Y-69596040D02*
X78467500Y-98538750D01*
X78467500Y-98538750D02*
X74453750Y-102552500D01*
X79216250Y-68847290D02*
X78467500Y-69596040D01*
X79216250Y-67627500D02*
X79216250Y-68847290D01*
%TO.N,SDA*%
X66516250Y-46196250D02*
X68146200Y-47826200D01*
X68146200Y-47826200D02*
X88601200Y-47826200D01*
X88601200Y-47826200D02*
X92317500Y-51542500D01*
%TO.N,Column 1*%
X61912500Y-77787500D02*
X74623750Y-65076250D01*
X74623750Y-65076250D02*
X76243750Y-65076250D01*
X76243750Y-65076250D02*
X77077500Y-64242500D01*
X61912500Y-58737500D02*
X61912500Y-96837500D01*
%TO.N,Column 2*%
X80962500Y-58737500D02*
X80962500Y-96837500D01*
X80962500Y-62897500D02*
X77077500Y-66782500D01*
X80962500Y-58737500D02*
X80962500Y-62897500D01*
%TO.N,Column 3*%
X100012500Y-77787500D02*
X98244734Y-77787500D01*
X89672234Y-69215000D02*
X83185000Y-69215000D01*
X98244734Y-77787500D02*
X89672234Y-69215000D01*
X100012500Y-58737500D02*
X100012500Y-96837500D01*
%TO.N,EncoderA*%
X93493800Y-42012450D02*
X95778750Y-39727500D01*
X92317500Y-59162500D02*
X93493800Y-57986200D01*
X93493800Y-57986200D02*
X93493800Y-42012450D01*
%TO.N,EncoderB*%
X94297500Y-46208750D02*
X95778750Y-44727500D01*
X94297500Y-59722500D02*
X94297500Y-46208750D01*
X92317500Y-61702500D02*
X94297500Y-59722500D01*
%TO.N,EncoderSW*%
X92317500Y-64242500D02*
X95091250Y-61468750D01*
X95091250Y-51752500D02*
X102116250Y-44727500D01*
X95091250Y-61468750D02*
X95091250Y-51752500D01*
X102116250Y-44727500D02*
X110278750Y-44727500D01*
%TD*%
M02*
