%TF.GenerationSoftware,KiCad,Pcbnew,8.0.4*%
%TF.CreationDate,2024-07-27T19:33:40+02:00*%
%TF.ProjectId,pcb_macropad,7063625f-6d61-4637-926f-7061642e6b69,rev?*%
%TF.SameCoordinates,Original*%
%TF.FileFunction,Drillmap*%
%TF.FilePolarity,Positive*%
%FSLAX45Y45*%
G04 Gerber Fmt 4.5, Leading zero omitted, Abs format (unit mm)*
G04 Created by KiCad (PCBNEW 8.0.4) date 2024-07-27 19:33:40*
%MOMM*%
%LPD*%
G01*
G04 APERTURE LIST*
%ADD10C,0.050000*%
%ADD11C,0.200000*%
%ADD12C,0.175000*%
%ADD13C,0.320000*%
%ADD14C,0.400000*%
G04 APERTURE END LIST*
D10*
X11334750Y-10690250D02*
G75*
G02*
X11134750Y-10890250I-200000J0D01*
G01*
X11134750Y-10890250D02*
X5819750Y-10890250D01*
X5819750Y-3349625D02*
X11134750Y-3349625D01*
X5619750Y-10690250D02*
X5619750Y-3549625D01*
X11334750Y-3549625D02*
X11334750Y-10690250D01*
X5819750Y-10890250D02*
G75*
G02*
X5619750Y-10690250I0J200000D01*
G01*
X5619750Y-3549625D02*
G75*
G02*
X5819750Y-3349630I199990J5D01*
G01*
X11134750Y-3349625D02*
G75*
G02*
X11334745Y-3549625I0J-199995D01*
G01*
D11*
D12*
X5976750Y-6040250D02*
X6151750Y-6215250D01*
X6151750Y-6040250D02*
X5976750Y-6215250D01*
X5976750Y-7945250D02*
X6151750Y-8120250D01*
X6151750Y-7945250D02*
X5976750Y-8120250D01*
X5976750Y-9850250D02*
X6151750Y-10025250D01*
X6151750Y-9850250D02*
X5976750Y-10025250D01*
X6992750Y-6040250D02*
X7167750Y-6215250D01*
X7167750Y-6040250D02*
X6992750Y-6215250D01*
X6992750Y-7945250D02*
X7167750Y-8120250D01*
X7167750Y-7945250D02*
X6992750Y-8120250D01*
X6992750Y-9850250D02*
X7167750Y-10025250D01*
X7167750Y-9850250D02*
X6992750Y-10025250D01*
X7881750Y-6040250D02*
X8056750Y-6215250D01*
X8056750Y-6040250D02*
X7881750Y-6215250D01*
X7881750Y-7945250D02*
X8056750Y-8120250D01*
X8056750Y-7945250D02*
X7881750Y-8120250D01*
X7881750Y-9850250D02*
X8056750Y-10025250D01*
X8056750Y-9850250D02*
X7881750Y-10025250D01*
X8897750Y-6040250D02*
X9072750Y-6215250D01*
X9072750Y-6040250D02*
X8897750Y-6215250D01*
X8897750Y-7945250D02*
X9072750Y-8120250D01*
X9072750Y-7945250D02*
X8897750Y-8120250D01*
X8897750Y-9850250D02*
X9072750Y-10025250D01*
X9072750Y-9850250D02*
X8897750Y-10025250D01*
X9786750Y-6040250D02*
X9961750Y-6215250D01*
X9961750Y-6040250D02*
X9786750Y-6215250D01*
X9786750Y-7945250D02*
X9961750Y-8120250D01*
X9961750Y-7945250D02*
X9786750Y-8120250D01*
X9786750Y-9850250D02*
X9961750Y-10025250D01*
X9961750Y-9850250D02*
X9786750Y-10025250D01*
X10802750Y-6040250D02*
X10977750Y-6215250D01*
X10977750Y-6040250D02*
X10802750Y-6215250D01*
X10802750Y-7945250D02*
X10977750Y-8120250D01*
X10977750Y-7945250D02*
X10802750Y-8120250D01*
X10802750Y-9850250D02*
X10977750Y-10025250D01*
X10977750Y-9850250D02*
X10802750Y-10025250D01*
D13*
X6732250Y-3905250D02*
G75*
G02*
X6412250Y-3905250I-160000J0D01*
G01*
X6412250Y-3905250D02*
G75*
G02*
X6732250Y-3905250I160000J0D01*
G01*
X7684750Y-8985250D02*
G75*
G02*
X7364750Y-8985250I-160000J0D01*
G01*
X7364750Y-8985250D02*
G75*
G02*
X7684750Y-8985250I160000J0D01*
G01*
X9589750Y-8985250D02*
G75*
G02*
X9269750Y-8985250I-160000J0D01*
G01*
X9269750Y-8985250D02*
G75*
G02*
X9589750Y-8985250I160000J0D01*
G01*
D14*
X6572250Y-5927750D02*
X6572250Y-6327750D01*
X6372250Y-6127750D02*
X6772250Y-6127750D01*
X6572250Y-7832750D02*
X6572250Y-8232750D01*
X6372250Y-8032750D02*
X6772250Y-8032750D01*
X6572250Y-9737750D02*
X6572250Y-10137750D01*
X6372250Y-9937750D02*
X6772250Y-9937750D01*
X8477250Y-5927750D02*
X8477250Y-6327750D01*
X8277250Y-6127750D02*
X8677250Y-6127750D01*
X8477250Y-7832750D02*
X8477250Y-8232750D01*
X8277250Y-8032750D02*
X8677250Y-8032750D01*
X8477250Y-9737750D02*
X8477250Y-10137750D01*
X8277250Y-9937750D02*
X8677250Y-9937750D01*
X10382250Y-5927750D02*
X10382250Y-6327750D01*
X10182250Y-6127750D02*
X10582250Y-6127750D01*
X10382250Y-7832750D02*
X10382250Y-8232750D01*
X10182250Y-8032750D02*
X10582250Y-8032750D01*
X10382250Y-9737750D02*
X10382250Y-10137750D01*
X10182250Y-9937750D02*
X10582250Y-9937750D01*
D11*
X5878027Y-11204234D02*
X5878027Y-11004234D01*
X5878027Y-11004234D02*
X5925646Y-11004234D01*
X5925646Y-11004234D02*
X5954217Y-11013758D01*
X5954217Y-11013758D02*
X5973265Y-11032805D01*
X5973265Y-11032805D02*
X5982789Y-11051853D01*
X5982789Y-11051853D02*
X5992312Y-11089948D01*
X5992312Y-11089948D02*
X5992312Y-11118520D01*
X5992312Y-11118520D02*
X5982789Y-11156615D01*
X5982789Y-11156615D02*
X5973265Y-11175662D01*
X5973265Y-11175662D02*
X5954217Y-11194710D01*
X5954217Y-11194710D02*
X5925646Y-11204234D01*
X5925646Y-11204234D02*
X5878027Y-11204234D01*
X6078027Y-11204234D02*
X6078027Y-11070900D01*
X6078027Y-11108996D02*
X6087551Y-11089948D01*
X6087551Y-11089948D02*
X6097074Y-11080424D01*
X6097074Y-11080424D02*
X6116122Y-11070900D01*
X6116122Y-11070900D02*
X6135170Y-11070900D01*
X6201836Y-11204234D02*
X6201836Y-11070900D01*
X6201836Y-11004234D02*
X6192312Y-11013758D01*
X6192312Y-11013758D02*
X6201836Y-11023281D01*
X6201836Y-11023281D02*
X6211360Y-11013758D01*
X6211360Y-11013758D02*
X6201836Y-11004234D01*
X6201836Y-11004234D02*
X6201836Y-11023281D01*
X6325646Y-11204234D02*
X6306598Y-11194710D01*
X6306598Y-11194710D02*
X6297074Y-11175662D01*
X6297074Y-11175662D02*
X6297074Y-11004234D01*
X6430408Y-11204234D02*
X6411360Y-11194710D01*
X6411360Y-11194710D02*
X6401836Y-11175662D01*
X6401836Y-11175662D02*
X6401836Y-11004234D01*
X6658979Y-11204234D02*
X6658979Y-11004234D01*
X6658979Y-11004234D02*
X6725646Y-11147091D01*
X6725646Y-11147091D02*
X6792312Y-11004234D01*
X6792312Y-11004234D02*
X6792312Y-11204234D01*
X6973265Y-11204234D02*
X6973265Y-11099472D01*
X6973265Y-11099472D02*
X6963741Y-11080424D01*
X6963741Y-11080424D02*
X6944693Y-11070900D01*
X6944693Y-11070900D02*
X6906598Y-11070900D01*
X6906598Y-11070900D02*
X6887551Y-11080424D01*
X6973265Y-11194710D02*
X6954217Y-11204234D01*
X6954217Y-11204234D02*
X6906598Y-11204234D01*
X6906598Y-11204234D02*
X6887551Y-11194710D01*
X6887551Y-11194710D02*
X6878027Y-11175662D01*
X6878027Y-11175662D02*
X6878027Y-11156615D01*
X6878027Y-11156615D02*
X6887551Y-11137567D01*
X6887551Y-11137567D02*
X6906598Y-11128043D01*
X6906598Y-11128043D02*
X6954217Y-11128043D01*
X6954217Y-11128043D02*
X6973265Y-11118520D01*
X7068503Y-11070900D02*
X7068503Y-11270900D01*
X7068503Y-11080424D02*
X7087551Y-11070900D01*
X7087551Y-11070900D02*
X7125646Y-11070900D01*
X7125646Y-11070900D02*
X7144693Y-11080424D01*
X7144693Y-11080424D02*
X7154217Y-11089948D01*
X7154217Y-11089948D02*
X7163741Y-11108996D01*
X7163741Y-11108996D02*
X7163741Y-11166139D01*
X7163741Y-11166139D02*
X7154217Y-11185186D01*
X7154217Y-11185186D02*
X7144693Y-11194710D01*
X7144693Y-11194710D02*
X7125646Y-11204234D01*
X7125646Y-11204234D02*
X7087551Y-11204234D01*
X7087551Y-11204234D02*
X7068503Y-11194710D01*
X7249455Y-11185186D02*
X7258979Y-11194710D01*
X7258979Y-11194710D02*
X7249455Y-11204234D01*
X7249455Y-11204234D02*
X7239932Y-11194710D01*
X7239932Y-11194710D02*
X7249455Y-11185186D01*
X7249455Y-11185186D02*
X7249455Y-11204234D01*
X7249455Y-11080424D02*
X7258979Y-11089948D01*
X7258979Y-11089948D02*
X7249455Y-11099472D01*
X7249455Y-11099472D02*
X7239932Y-11089948D01*
X7239932Y-11089948D02*
X7249455Y-11080424D01*
X7249455Y-11080424D02*
X7249455Y-11099472D01*
D12*
X5442250Y-11445250D02*
X5617250Y-11620250D01*
X5617250Y-11445250D02*
X5442250Y-11620250D01*
D11*
X5982789Y-11624234D02*
X5868503Y-11624234D01*
X5925646Y-11624234D02*
X5925646Y-11424234D01*
X5925646Y-11424234D02*
X5906598Y-11452805D01*
X5906598Y-11452805D02*
X5887551Y-11471853D01*
X5887551Y-11471853D02*
X5868503Y-11481377D01*
X6068503Y-11605186D02*
X6078027Y-11614710D01*
X6078027Y-11614710D02*
X6068503Y-11624234D01*
X6068503Y-11624234D02*
X6058979Y-11614710D01*
X6058979Y-11614710D02*
X6068503Y-11605186D01*
X6068503Y-11605186D02*
X6068503Y-11624234D01*
X6144693Y-11424234D02*
X6278027Y-11424234D01*
X6278027Y-11424234D02*
X6192312Y-11624234D01*
X6449455Y-11424234D02*
X6354217Y-11424234D01*
X6354217Y-11424234D02*
X6344693Y-11519472D01*
X6344693Y-11519472D02*
X6354217Y-11509948D01*
X6354217Y-11509948D02*
X6373265Y-11500424D01*
X6373265Y-11500424D02*
X6420884Y-11500424D01*
X6420884Y-11500424D02*
X6439932Y-11509948D01*
X6439932Y-11509948D02*
X6449455Y-11519472D01*
X6449455Y-11519472D02*
X6458979Y-11538519D01*
X6458979Y-11538519D02*
X6458979Y-11586138D01*
X6458979Y-11586138D02*
X6449455Y-11605186D01*
X6449455Y-11605186D02*
X6439932Y-11614710D01*
X6439932Y-11614710D02*
X6420884Y-11624234D01*
X6420884Y-11624234D02*
X6373265Y-11624234D01*
X6373265Y-11624234D02*
X6354217Y-11614710D01*
X6354217Y-11614710D02*
X6344693Y-11605186D01*
X6582789Y-11424234D02*
X6601836Y-11424234D01*
X6601836Y-11424234D02*
X6620884Y-11433758D01*
X6620884Y-11433758D02*
X6630408Y-11443281D01*
X6630408Y-11443281D02*
X6639932Y-11462329D01*
X6639932Y-11462329D02*
X6649455Y-11500424D01*
X6649455Y-11500424D02*
X6649455Y-11548043D01*
X6649455Y-11548043D02*
X6639932Y-11586138D01*
X6639932Y-11586138D02*
X6630408Y-11605186D01*
X6630408Y-11605186D02*
X6620884Y-11614710D01*
X6620884Y-11614710D02*
X6601836Y-11624234D01*
X6601836Y-11624234D02*
X6582789Y-11624234D01*
X6582789Y-11624234D02*
X6563741Y-11614710D01*
X6563741Y-11614710D02*
X6554217Y-11605186D01*
X6554217Y-11605186D02*
X6544693Y-11586138D01*
X6544693Y-11586138D02*
X6535170Y-11548043D01*
X6535170Y-11548043D02*
X6535170Y-11500424D01*
X6535170Y-11500424D02*
X6544693Y-11462329D01*
X6544693Y-11462329D02*
X6554217Y-11443281D01*
X6554217Y-11443281D02*
X6563741Y-11433758D01*
X6563741Y-11433758D02*
X6582789Y-11424234D01*
X6735170Y-11624234D02*
X6735170Y-11490900D01*
X6735170Y-11509948D02*
X6744693Y-11500424D01*
X6744693Y-11500424D02*
X6763741Y-11490900D01*
X6763741Y-11490900D02*
X6792313Y-11490900D01*
X6792313Y-11490900D02*
X6811360Y-11500424D01*
X6811360Y-11500424D02*
X6820884Y-11519472D01*
X6820884Y-11519472D02*
X6820884Y-11624234D01*
X6820884Y-11519472D02*
X6830408Y-11500424D01*
X6830408Y-11500424D02*
X6849455Y-11490900D01*
X6849455Y-11490900D02*
X6878027Y-11490900D01*
X6878027Y-11490900D02*
X6897074Y-11500424D01*
X6897074Y-11500424D02*
X6906598Y-11519472D01*
X6906598Y-11519472D02*
X6906598Y-11624234D01*
X7001836Y-11624234D02*
X7001836Y-11490900D01*
X7001836Y-11509948D02*
X7011360Y-11500424D01*
X7011360Y-11500424D02*
X7030408Y-11490900D01*
X7030408Y-11490900D02*
X7058979Y-11490900D01*
X7058979Y-11490900D02*
X7078027Y-11500424D01*
X7078027Y-11500424D02*
X7087551Y-11519472D01*
X7087551Y-11519472D02*
X7087551Y-11624234D01*
X7087551Y-11519472D02*
X7097074Y-11500424D01*
X7097074Y-11500424D02*
X7116122Y-11490900D01*
X7116122Y-11490900D02*
X7144693Y-11490900D01*
X7144693Y-11490900D02*
X7163741Y-11500424D01*
X7163741Y-11500424D02*
X7173265Y-11519472D01*
X7173265Y-11519472D02*
X7173265Y-11624234D01*
X7563741Y-11414710D02*
X7392313Y-11671853D01*
X7820884Y-11424234D02*
X7839932Y-11424234D01*
X7839932Y-11424234D02*
X7858979Y-11433758D01*
X7858979Y-11433758D02*
X7868503Y-11443281D01*
X7868503Y-11443281D02*
X7878027Y-11462329D01*
X7878027Y-11462329D02*
X7887551Y-11500424D01*
X7887551Y-11500424D02*
X7887551Y-11548043D01*
X7887551Y-11548043D02*
X7878027Y-11586138D01*
X7878027Y-11586138D02*
X7868503Y-11605186D01*
X7868503Y-11605186D02*
X7858979Y-11614710D01*
X7858979Y-11614710D02*
X7839932Y-11624234D01*
X7839932Y-11624234D02*
X7820884Y-11624234D01*
X7820884Y-11624234D02*
X7801836Y-11614710D01*
X7801836Y-11614710D02*
X7792313Y-11605186D01*
X7792313Y-11605186D02*
X7782789Y-11586138D01*
X7782789Y-11586138D02*
X7773265Y-11548043D01*
X7773265Y-11548043D02*
X7773265Y-11500424D01*
X7773265Y-11500424D02*
X7782789Y-11462329D01*
X7782789Y-11462329D02*
X7792313Y-11443281D01*
X7792313Y-11443281D02*
X7801836Y-11433758D01*
X7801836Y-11433758D02*
X7820884Y-11424234D01*
X7973265Y-11605186D02*
X7982789Y-11614710D01*
X7982789Y-11614710D02*
X7973265Y-11624234D01*
X7973265Y-11624234D02*
X7963741Y-11614710D01*
X7963741Y-11614710D02*
X7973265Y-11605186D01*
X7973265Y-11605186D02*
X7973265Y-11624234D01*
X8106598Y-11424234D02*
X8125646Y-11424234D01*
X8125646Y-11424234D02*
X8144694Y-11433758D01*
X8144694Y-11433758D02*
X8154217Y-11443281D01*
X8154217Y-11443281D02*
X8163741Y-11462329D01*
X8163741Y-11462329D02*
X8173265Y-11500424D01*
X8173265Y-11500424D02*
X8173265Y-11548043D01*
X8173265Y-11548043D02*
X8163741Y-11586138D01*
X8163741Y-11586138D02*
X8154217Y-11605186D01*
X8154217Y-11605186D02*
X8144694Y-11614710D01*
X8144694Y-11614710D02*
X8125646Y-11624234D01*
X8125646Y-11624234D02*
X8106598Y-11624234D01*
X8106598Y-11624234D02*
X8087551Y-11614710D01*
X8087551Y-11614710D02*
X8078027Y-11605186D01*
X8078027Y-11605186D02*
X8068503Y-11586138D01*
X8068503Y-11586138D02*
X8058979Y-11548043D01*
X8058979Y-11548043D02*
X8058979Y-11500424D01*
X8058979Y-11500424D02*
X8068503Y-11462329D01*
X8068503Y-11462329D02*
X8078027Y-11443281D01*
X8078027Y-11443281D02*
X8087551Y-11433758D01*
X8087551Y-11433758D02*
X8106598Y-11424234D01*
X8344694Y-11424234D02*
X8306598Y-11424234D01*
X8306598Y-11424234D02*
X8287551Y-11433758D01*
X8287551Y-11433758D02*
X8278027Y-11443281D01*
X8278027Y-11443281D02*
X8258979Y-11471853D01*
X8258979Y-11471853D02*
X8249456Y-11509948D01*
X8249456Y-11509948D02*
X8249456Y-11586138D01*
X8249456Y-11586138D02*
X8258979Y-11605186D01*
X8258979Y-11605186D02*
X8268503Y-11614710D01*
X8268503Y-11614710D02*
X8287551Y-11624234D01*
X8287551Y-11624234D02*
X8325646Y-11624234D01*
X8325646Y-11624234D02*
X8344694Y-11614710D01*
X8344694Y-11614710D02*
X8354217Y-11605186D01*
X8354217Y-11605186D02*
X8363741Y-11586138D01*
X8363741Y-11586138D02*
X8363741Y-11538519D01*
X8363741Y-11538519D02*
X8354217Y-11519472D01*
X8354217Y-11519472D02*
X8344694Y-11509948D01*
X8344694Y-11509948D02*
X8325646Y-11500424D01*
X8325646Y-11500424D02*
X8287551Y-11500424D01*
X8287551Y-11500424D02*
X8268503Y-11509948D01*
X8268503Y-11509948D02*
X8258979Y-11519472D01*
X8258979Y-11519472D02*
X8249456Y-11538519D01*
X8478027Y-11509948D02*
X8458979Y-11500424D01*
X8458979Y-11500424D02*
X8449456Y-11490900D01*
X8449456Y-11490900D02*
X8439932Y-11471853D01*
X8439932Y-11471853D02*
X8439932Y-11462329D01*
X8439932Y-11462329D02*
X8449456Y-11443281D01*
X8449456Y-11443281D02*
X8458979Y-11433758D01*
X8458979Y-11433758D02*
X8478027Y-11424234D01*
X8478027Y-11424234D02*
X8516122Y-11424234D01*
X8516122Y-11424234D02*
X8535170Y-11433758D01*
X8535170Y-11433758D02*
X8544694Y-11443281D01*
X8544694Y-11443281D02*
X8554218Y-11462329D01*
X8554218Y-11462329D02*
X8554218Y-11471853D01*
X8554218Y-11471853D02*
X8544694Y-11490900D01*
X8544694Y-11490900D02*
X8535170Y-11500424D01*
X8535170Y-11500424D02*
X8516122Y-11509948D01*
X8516122Y-11509948D02*
X8478027Y-11509948D01*
X8478027Y-11509948D02*
X8458979Y-11519472D01*
X8458979Y-11519472D02*
X8449456Y-11528996D01*
X8449456Y-11528996D02*
X8439932Y-11548043D01*
X8439932Y-11548043D02*
X8439932Y-11586138D01*
X8439932Y-11586138D02*
X8449456Y-11605186D01*
X8449456Y-11605186D02*
X8458979Y-11614710D01*
X8458979Y-11614710D02*
X8478027Y-11624234D01*
X8478027Y-11624234D02*
X8516122Y-11624234D01*
X8516122Y-11624234D02*
X8535170Y-11614710D01*
X8535170Y-11614710D02*
X8544694Y-11605186D01*
X8544694Y-11605186D02*
X8554218Y-11586138D01*
X8554218Y-11586138D02*
X8554218Y-11548043D01*
X8554218Y-11548043D02*
X8544694Y-11528996D01*
X8544694Y-11528996D02*
X8535170Y-11519472D01*
X8535170Y-11519472D02*
X8516122Y-11509948D01*
X8649456Y-11624234D02*
X8687551Y-11624234D01*
X8687551Y-11624234D02*
X8706599Y-11614710D01*
X8706599Y-11614710D02*
X8716122Y-11605186D01*
X8716122Y-11605186D02*
X8735170Y-11576615D01*
X8735170Y-11576615D02*
X8744694Y-11538519D01*
X8744694Y-11538519D02*
X8744694Y-11462329D01*
X8744694Y-11462329D02*
X8735170Y-11443281D01*
X8735170Y-11443281D02*
X8725646Y-11433758D01*
X8725646Y-11433758D02*
X8706599Y-11424234D01*
X8706599Y-11424234D02*
X8668503Y-11424234D01*
X8668503Y-11424234D02*
X8649456Y-11433758D01*
X8649456Y-11433758D02*
X8639932Y-11443281D01*
X8639932Y-11443281D02*
X8630408Y-11462329D01*
X8630408Y-11462329D02*
X8630408Y-11509948D01*
X8630408Y-11509948D02*
X8639932Y-11528996D01*
X8639932Y-11528996D02*
X8649456Y-11538519D01*
X8649456Y-11538519D02*
X8668503Y-11548043D01*
X8668503Y-11548043D02*
X8706599Y-11548043D01*
X8706599Y-11548043D02*
X8725646Y-11538519D01*
X8725646Y-11538519D02*
X8735170Y-11528996D01*
X8735170Y-11528996D02*
X8744694Y-11509948D01*
X8820884Y-11424234D02*
X8820884Y-11462329D01*
X8897075Y-11424234D02*
X8897075Y-11462329D01*
X9192313Y-11700424D02*
X9182789Y-11690900D01*
X9182789Y-11690900D02*
X9163741Y-11662329D01*
X9163741Y-11662329D02*
X9154218Y-11643281D01*
X9154218Y-11643281D02*
X9144694Y-11614710D01*
X9144694Y-11614710D02*
X9135170Y-11567091D01*
X9135170Y-11567091D02*
X9135170Y-11528996D01*
X9135170Y-11528996D02*
X9144694Y-11481377D01*
X9144694Y-11481377D02*
X9154218Y-11452805D01*
X9154218Y-11452805D02*
X9163741Y-11433758D01*
X9163741Y-11433758D02*
X9182789Y-11405186D01*
X9182789Y-11405186D02*
X9192313Y-11395662D01*
X9373265Y-11624234D02*
X9258980Y-11624234D01*
X9316122Y-11624234D02*
X9316122Y-11424234D01*
X9316122Y-11424234D02*
X9297075Y-11452805D01*
X9297075Y-11452805D02*
X9278027Y-11471853D01*
X9278027Y-11471853D02*
X9258980Y-11481377D01*
X9487551Y-11509948D02*
X9468503Y-11500424D01*
X9468503Y-11500424D02*
X9458980Y-11490900D01*
X9458980Y-11490900D02*
X9449456Y-11471853D01*
X9449456Y-11471853D02*
X9449456Y-11462329D01*
X9449456Y-11462329D02*
X9458980Y-11443281D01*
X9458980Y-11443281D02*
X9468503Y-11433758D01*
X9468503Y-11433758D02*
X9487551Y-11424234D01*
X9487551Y-11424234D02*
X9525646Y-11424234D01*
X9525646Y-11424234D02*
X9544694Y-11433758D01*
X9544694Y-11433758D02*
X9554218Y-11443281D01*
X9554218Y-11443281D02*
X9563741Y-11462329D01*
X9563741Y-11462329D02*
X9563741Y-11471853D01*
X9563741Y-11471853D02*
X9554218Y-11490900D01*
X9554218Y-11490900D02*
X9544694Y-11500424D01*
X9544694Y-11500424D02*
X9525646Y-11509948D01*
X9525646Y-11509948D02*
X9487551Y-11509948D01*
X9487551Y-11509948D02*
X9468503Y-11519472D01*
X9468503Y-11519472D02*
X9458980Y-11528996D01*
X9458980Y-11528996D02*
X9449456Y-11548043D01*
X9449456Y-11548043D02*
X9449456Y-11586138D01*
X9449456Y-11586138D02*
X9458980Y-11605186D01*
X9458980Y-11605186D02*
X9468503Y-11614710D01*
X9468503Y-11614710D02*
X9487551Y-11624234D01*
X9487551Y-11624234D02*
X9525646Y-11624234D01*
X9525646Y-11624234D02*
X9544694Y-11614710D01*
X9544694Y-11614710D02*
X9554218Y-11605186D01*
X9554218Y-11605186D02*
X9563741Y-11586138D01*
X9563741Y-11586138D02*
X9563741Y-11548043D01*
X9563741Y-11548043D02*
X9554218Y-11528996D01*
X9554218Y-11528996D02*
X9544694Y-11519472D01*
X9544694Y-11519472D02*
X9525646Y-11509948D01*
X9801837Y-11624234D02*
X9801837Y-11424234D01*
X9887551Y-11624234D02*
X9887551Y-11519472D01*
X9887551Y-11519472D02*
X9878027Y-11500424D01*
X9878027Y-11500424D02*
X9858980Y-11490900D01*
X9858980Y-11490900D02*
X9830408Y-11490900D01*
X9830408Y-11490900D02*
X9811361Y-11500424D01*
X9811361Y-11500424D02*
X9801837Y-11509948D01*
X10011361Y-11624234D02*
X9992313Y-11614710D01*
X9992313Y-11614710D02*
X9982789Y-11605186D01*
X9982789Y-11605186D02*
X9973265Y-11586138D01*
X9973265Y-11586138D02*
X9973265Y-11528996D01*
X9973265Y-11528996D02*
X9982789Y-11509948D01*
X9982789Y-11509948D02*
X9992313Y-11500424D01*
X9992313Y-11500424D02*
X10011361Y-11490900D01*
X10011361Y-11490900D02*
X10039932Y-11490900D01*
X10039932Y-11490900D02*
X10058980Y-11500424D01*
X10058980Y-11500424D02*
X10068503Y-11509948D01*
X10068503Y-11509948D02*
X10078027Y-11528996D01*
X10078027Y-11528996D02*
X10078027Y-11586138D01*
X10078027Y-11586138D02*
X10068503Y-11605186D01*
X10068503Y-11605186D02*
X10058980Y-11614710D01*
X10058980Y-11614710D02*
X10039932Y-11624234D01*
X10039932Y-11624234D02*
X10011361Y-11624234D01*
X10192313Y-11624234D02*
X10173265Y-11614710D01*
X10173265Y-11614710D02*
X10163742Y-11595662D01*
X10163742Y-11595662D02*
X10163742Y-11424234D01*
X10344694Y-11614710D02*
X10325646Y-11624234D01*
X10325646Y-11624234D02*
X10287551Y-11624234D01*
X10287551Y-11624234D02*
X10268503Y-11614710D01*
X10268503Y-11614710D02*
X10258980Y-11595662D01*
X10258980Y-11595662D02*
X10258980Y-11519472D01*
X10258980Y-11519472D02*
X10268503Y-11500424D01*
X10268503Y-11500424D02*
X10287551Y-11490900D01*
X10287551Y-11490900D02*
X10325646Y-11490900D01*
X10325646Y-11490900D02*
X10344694Y-11500424D01*
X10344694Y-11500424D02*
X10354218Y-11519472D01*
X10354218Y-11519472D02*
X10354218Y-11538519D01*
X10354218Y-11538519D02*
X10258980Y-11557567D01*
X10430408Y-11614710D02*
X10449456Y-11624234D01*
X10449456Y-11624234D02*
X10487551Y-11624234D01*
X10487551Y-11624234D02*
X10506599Y-11614710D01*
X10506599Y-11614710D02*
X10516123Y-11595662D01*
X10516123Y-11595662D02*
X10516123Y-11586138D01*
X10516123Y-11586138D02*
X10506599Y-11567091D01*
X10506599Y-11567091D02*
X10487551Y-11557567D01*
X10487551Y-11557567D02*
X10458980Y-11557567D01*
X10458980Y-11557567D02*
X10439932Y-11548043D01*
X10439932Y-11548043D02*
X10430408Y-11528996D01*
X10430408Y-11528996D02*
X10430408Y-11519472D01*
X10430408Y-11519472D02*
X10439932Y-11500424D01*
X10439932Y-11500424D02*
X10458980Y-11490900D01*
X10458980Y-11490900D02*
X10487551Y-11490900D01*
X10487551Y-11490900D02*
X10506599Y-11500424D01*
X10582789Y-11700424D02*
X10592313Y-11690900D01*
X10592313Y-11690900D02*
X10611361Y-11662329D01*
X10611361Y-11662329D02*
X10620884Y-11643281D01*
X10620884Y-11643281D02*
X10630408Y-11614710D01*
X10630408Y-11614710D02*
X10639932Y-11567091D01*
X10639932Y-11567091D02*
X10639932Y-11528996D01*
X10639932Y-11528996D02*
X10630408Y-11481377D01*
X10630408Y-11481377D02*
X10620884Y-11452805D01*
X10620884Y-11452805D02*
X10611361Y-11433758D01*
X10611361Y-11433758D02*
X10592313Y-11405186D01*
X10592313Y-11405186D02*
X10582789Y-11395662D01*
X10944694Y-11700424D02*
X10935170Y-11690900D01*
X10935170Y-11690900D02*
X10916123Y-11662329D01*
X10916123Y-11662329D02*
X10906599Y-11643281D01*
X10906599Y-11643281D02*
X10897075Y-11614710D01*
X10897075Y-11614710D02*
X10887551Y-11567091D01*
X10887551Y-11567091D02*
X10887551Y-11528996D01*
X10887551Y-11528996D02*
X10897075Y-11481377D01*
X10897075Y-11481377D02*
X10906599Y-11452805D01*
X10906599Y-11452805D02*
X10916123Y-11433758D01*
X10916123Y-11433758D02*
X10935170Y-11405186D01*
X10935170Y-11405186D02*
X10944694Y-11395662D01*
X11020884Y-11490900D02*
X11020884Y-11624234D01*
X11020884Y-11509948D02*
X11030408Y-11500424D01*
X11030408Y-11500424D02*
X11049456Y-11490900D01*
X11049456Y-11490900D02*
X11078027Y-11490900D01*
X11078027Y-11490900D02*
X11097075Y-11500424D01*
X11097075Y-11500424D02*
X11106599Y-11519472D01*
X11106599Y-11519472D02*
X11106599Y-11624234D01*
X11230408Y-11624234D02*
X11211361Y-11614710D01*
X11211361Y-11614710D02*
X11201837Y-11605186D01*
X11201837Y-11605186D02*
X11192313Y-11586138D01*
X11192313Y-11586138D02*
X11192313Y-11528996D01*
X11192313Y-11528996D02*
X11201837Y-11509948D01*
X11201837Y-11509948D02*
X11211361Y-11500424D01*
X11211361Y-11500424D02*
X11230408Y-11490900D01*
X11230408Y-11490900D02*
X11258980Y-11490900D01*
X11258980Y-11490900D02*
X11278027Y-11500424D01*
X11278027Y-11500424D02*
X11287551Y-11509948D01*
X11287551Y-11509948D02*
X11297075Y-11528996D01*
X11297075Y-11528996D02*
X11297075Y-11586138D01*
X11297075Y-11586138D02*
X11287551Y-11605186D01*
X11287551Y-11605186D02*
X11278027Y-11614710D01*
X11278027Y-11614710D02*
X11258980Y-11624234D01*
X11258980Y-11624234D02*
X11230408Y-11624234D01*
X11354218Y-11490900D02*
X11430408Y-11490900D01*
X11382789Y-11424234D02*
X11382789Y-11595662D01*
X11382789Y-11595662D02*
X11392313Y-11614710D01*
X11392313Y-11614710D02*
X11411361Y-11624234D01*
X11411361Y-11624234D02*
X11430408Y-11624234D01*
X11649456Y-11490900D02*
X11649456Y-11690900D01*
X11649456Y-11500424D02*
X11668503Y-11490900D01*
X11668503Y-11490900D02*
X11706599Y-11490900D01*
X11706599Y-11490900D02*
X11725646Y-11500424D01*
X11725646Y-11500424D02*
X11735170Y-11509948D01*
X11735170Y-11509948D02*
X11744694Y-11528996D01*
X11744694Y-11528996D02*
X11744694Y-11586138D01*
X11744694Y-11586138D02*
X11735170Y-11605186D01*
X11735170Y-11605186D02*
X11725646Y-11614710D01*
X11725646Y-11614710D02*
X11706599Y-11624234D01*
X11706599Y-11624234D02*
X11668503Y-11624234D01*
X11668503Y-11624234D02*
X11649456Y-11614710D01*
X11858980Y-11624234D02*
X11839932Y-11614710D01*
X11839932Y-11614710D02*
X11830408Y-11595662D01*
X11830408Y-11595662D02*
X11830408Y-11424234D01*
X12020884Y-11624234D02*
X12020884Y-11519472D01*
X12020884Y-11519472D02*
X12011361Y-11500424D01*
X12011361Y-11500424D02*
X11992313Y-11490900D01*
X11992313Y-11490900D02*
X11954218Y-11490900D01*
X11954218Y-11490900D02*
X11935170Y-11500424D01*
X12020884Y-11614710D02*
X12001837Y-11624234D01*
X12001837Y-11624234D02*
X11954218Y-11624234D01*
X11954218Y-11624234D02*
X11935170Y-11614710D01*
X11935170Y-11614710D02*
X11925646Y-11595662D01*
X11925646Y-11595662D02*
X11925646Y-11576615D01*
X11925646Y-11576615D02*
X11935170Y-11557567D01*
X11935170Y-11557567D02*
X11954218Y-11548043D01*
X11954218Y-11548043D02*
X12001837Y-11548043D01*
X12001837Y-11548043D02*
X12020884Y-11538519D01*
X12087551Y-11490900D02*
X12163742Y-11490900D01*
X12116123Y-11424234D02*
X12116123Y-11595662D01*
X12116123Y-11595662D02*
X12125646Y-11614710D01*
X12125646Y-11614710D02*
X12144694Y-11624234D01*
X12144694Y-11624234D02*
X12163742Y-11624234D01*
X12306599Y-11614710D02*
X12287551Y-11624234D01*
X12287551Y-11624234D02*
X12249456Y-11624234D01*
X12249456Y-11624234D02*
X12230408Y-11614710D01*
X12230408Y-11614710D02*
X12220884Y-11595662D01*
X12220884Y-11595662D02*
X12220884Y-11519472D01*
X12220884Y-11519472D02*
X12230408Y-11500424D01*
X12230408Y-11500424D02*
X12249456Y-11490900D01*
X12249456Y-11490900D02*
X12287551Y-11490900D01*
X12287551Y-11490900D02*
X12306599Y-11500424D01*
X12306599Y-11500424D02*
X12316123Y-11519472D01*
X12316123Y-11519472D02*
X12316123Y-11538519D01*
X12316123Y-11538519D02*
X12220884Y-11557567D01*
X12487551Y-11624234D02*
X12487551Y-11424234D01*
X12487551Y-11614710D02*
X12468504Y-11624234D01*
X12468504Y-11624234D02*
X12430408Y-11624234D01*
X12430408Y-11624234D02*
X12411361Y-11614710D01*
X12411361Y-11614710D02*
X12401837Y-11605186D01*
X12401837Y-11605186D02*
X12392313Y-11586138D01*
X12392313Y-11586138D02*
X12392313Y-11528996D01*
X12392313Y-11528996D02*
X12401837Y-11509948D01*
X12401837Y-11509948D02*
X12411361Y-11500424D01*
X12411361Y-11500424D02*
X12430408Y-11490900D01*
X12430408Y-11490900D02*
X12468504Y-11490900D01*
X12468504Y-11490900D02*
X12487551Y-11500424D01*
X12563742Y-11700424D02*
X12573265Y-11690900D01*
X12573265Y-11690900D02*
X12592313Y-11662329D01*
X12592313Y-11662329D02*
X12601837Y-11643281D01*
X12601837Y-11643281D02*
X12611361Y-11614710D01*
X12611361Y-11614710D02*
X12620884Y-11567091D01*
X12620884Y-11567091D02*
X12620884Y-11528996D01*
X12620884Y-11528996D02*
X12611361Y-11481377D01*
X12611361Y-11481377D02*
X12601837Y-11452805D01*
X12601837Y-11452805D02*
X12592313Y-11433758D01*
X12592313Y-11433758D02*
X12573265Y-11405186D01*
X12573265Y-11405186D02*
X12563742Y-11395662D01*
X5617250Y-11827750D02*
G75*
G02*
X5417250Y-11827750I-100000J0D01*
G01*
X5417250Y-11827750D02*
G75*
G02*
X5617250Y-11827750I100000J0D01*
G01*
X5858979Y-11719234D02*
X5982789Y-11719234D01*
X5982789Y-11719234D02*
X5916122Y-11795424D01*
X5916122Y-11795424D02*
X5944693Y-11795424D01*
X5944693Y-11795424D02*
X5963741Y-11804948D01*
X5963741Y-11804948D02*
X5973265Y-11814472D01*
X5973265Y-11814472D02*
X5982789Y-11833519D01*
X5982789Y-11833519D02*
X5982789Y-11881138D01*
X5982789Y-11881138D02*
X5973265Y-11900186D01*
X5973265Y-11900186D02*
X5963741Y-11909710D01*
X5963741Y-11909710D02*
X5944693Y-11919234D01*
X5944693Y-11919234D02*
X5887551Y-11919234D01*
X5887551Y-11919234D02*
X5868503Y-11909710D01*
X5868503Y-11909710D02*
X5858979Y-11900186D01*
X6068503Y-11900186D02*
X6078027Y-11909710D01*
X6078027Y-11909710D02*
X6068503Y-11919234D01*
X6068503Y-11919234D02*
X6058979Y-11909710D01*
X6058979Y-11909710D02*
X6068503Y-11900186D01*
X6068503Y-11900186D02*
X6068503Y-11919234D01*
X6154217Y-11738281D02*
X6163741Y-11728758D01*
X6163741Y-11728758D02*
X6182789Y-11719234D01*
X6182789Y-11719234D02*
X6230408Y-11719234D01*
X6230408Y-11719234D02*
X6249455Y-11728758D01*
X6249455Y-11728758D02*
X6258979Y-11738281D01*
X6258979Y-11738281D02*
X6268503Y-11757329D01*
X6268503Y-11757329D02*
X6268503Y-11776377D01*
X6268503Y-11776377D02*
X6258979Y-11804948D01*
X6258979Y-11804948D02*
X6144693Y-11919234D01*
X6144693Y-11919234D02*
X6268503Y-11919234D01*
X6392312Y-11719234D02*
X6411360Y-11719234D01*
X6411360Y-11719234D02*
X6430408Y-11728758D01*
X6430408Y-11728758D02*
X6439932Y-11738281D01*
X6439932Y-11738281D02*
X6449455Y-11757329D01*
X6449455Y-11757329D02*
X6458979Y-11795424D01*
X6458979Y-11795424D02*
X6458979Y-11843043D01*
X6458979Y-11843043D02*
X6449455Y-11881138D01*
X6449455Y-11881138D02*
X6439932Y-11900186D01*
X6439932Y-11900186D02*
X6430408Y-11909710D01*
X6430408Y-11909710D02*
X6411360Y-11919234D01*
X6411360Y-11919234D02*
X6392312Y-11919234D01*
X6392312Y-11919234D02*
X6373265Y-11909710D01*
X6373265Y-11909710D02*
X6363741Y-11900186D01*
X6363741Y-11900186D02*
X6354217Y-11881138D01*
X6354217Y-11881138D02*
X6344693Y-11843043D01*
X6344693Y-11843043D02*
X6344693Y-11795424D01*
X6344693Y-11795424D02*
X6354217Y-11757329D01*
X6354217Y-11757329D02*
X6363741Y-11738281D01*
X6363741Y-11738281D02*
X6373265Y-11728758D01*
X6373265Y-11728758D02*
X6392312Y-11719234D01*
X6582789Y-11719234D02*
X6601836Y-11719234D01*
X6601836Y-11719234D02*
X6620884Y-11728758D01*
X6620884Y-11728758D02*
X6630408Y-11738281D01*
X6630408Y-11738281D02*
X6639932Y-11757329D01*
X6639932Y-11757329D02*
X6649455Y-11795424D01*
X6649455Y-11795424D02*
X6649455Y-11843043D01*
X6649455Y-11843043D02*
X6639932Y-11881138D01*
X6639932Y-11881138D02*
X6630408Y-11900186D01*
X6630408Y-11900186D02*
X6620884Y-11909710D01*
X6620884Y-11909710D02*
X6601836Y-11919234D01*
X6601836Y-11919234D02*
X6582789Y-11919234D01*
X6582789Y-11919234D02*
X6563741Y-11909710D01*
X6563741Y-11909710D02*
X6554217Y-11900186D01*
X6554217Y-11900186D02*
X6544693Y-11881138D01*
X6544693Y-11881138D02*
X6535170Y-11843043D01*
X6535170Y-11843043D02*
X6535170Y-11795424D01*
X6535170Y-11795424D02*
X6544693Y-11757329D01*
X6544693Y-11757329D02*
X6554217Y-11738281D01*
X6554217Y-11738281D02*
X6563741Y-11728758D01*
X6563741Y-11728758D02*
X6582789Y-11719234D01*
X6735170Y-11919234D02*
X6735170Y-11785900D01*
X6735170Y-11804948D02*
X6744693Y-11795424D01*
X6744693Y-11795424D02*
X6763741Y-11785900D01*
X6763741Y-11785900D02*
X6792313Y-11785900D01*
X6792313Y-11785900D02*
X6811360Y-11795424D01*
X6811360Y-11795424D02*
X6820884Y-11814472D01*
X6820884Y-11814472D02*
X6820884Y-11919234D01*
X6820884Y-11814472D02*
X6830408Y-11795424D01*
X6830408Y-11795424D02*
X6849455Y-11785900D01*
X6849455Y-11785900D02*
X6878027Y-11785900D01*
X6878027Y-11785900D02*
X6897074Y-11795424D01*
X6897074Y-11795424D02*
X6906598Y-11814472D01*
X6906598Y-11814472D02*
X6906598Y-11919234D01*
X7001836Y-11919234D02*
X7001836Y-11785900D01*
X7001836Y-11804948D02*
X7011360Y-11795424D01*
X7011360Y-11795424D02*
X7030408Y-11785900D01*
X7030408Y-11785900D02*
X7058979Y-11785900D01*
X7058979Y-11785900D02*
X7078027Y-11795424D01*
X7078027Y-11795424D02*
X7087551Y-11814472D01*
X7087551Y-11814472D02*
X7087551Y-11919234D01*
X7087551Y-11814472D02*
X7097074Y-11795424D01*
X7097074Y-11795424D02*
X7116122Y-11785900D01*
X7116122Y-11785900D02*
X7144693Y-11785900D01*
X7144693Y-11785900D02*
X7163741Y-11795424D01*
X7163741Y-11795424D02*
X7173265Y-11814472D01*
X7173265Y-11814472D02*
X7173265Y-11919234D01*
X7563741Y-11709710D02*
X7392313Y-11966853D01*
X7820884Y-11719234D02*
X7839932Y-11719234D01*
X7839932Y-11719234D02*
X7858979Y-11728758D01*
X7858979Y-11728758D02*
X7868503Y-11738281D01*
X7868503Y-11738281D02*
X7878027Y-11757329D01*
X7878027Y-11757329D02*
X7887551Y-11795424D01*
X7887551Y-11795424D02*
X7887551Y-11843043D01*
X7887551Y-11843043D02*
X7878027Y-11881138D01*
X7878027Y-11881138D02*
X7868503Y-11900186D01*
X7868503Y-11900186D02*
X7858979Y-11909710D01*
X7858979Y-11909710D02*
X7839932Y-11919234D01*
X7839932Y-11919234D02*
X7820884Y-11919234D01*
X7820884Y-11919234D02*
X7801836Y-11909710D01*
X7801836Y-11909710D02*
X7792313Y-11900186D01*
X7792313Y-11900186D02*
X7782789Y-11881138D01*
X7782789Y-11881138D02*
X7773265Y-11843043D01*
X7773265Y-11843043D02*
X7773265Y-11795424D01*
X7773265Y-11795424D02*
X7782789Y-11757329D01*
X7782789Y-11757329D02*
X7792313Y-11738281D01*
X7792313Y-11738281D02*
X7801836Y-11728758D01*
X7801836Y-11728758D02*
X7820884Y-11719234D01*
X7973265Y-11900186D02*
X7982789Y-11909710D01*
X7982789Y-11909710D02*
X7973265Y-11919234D01*
X7973265Y-11919234D02*
X7963741Y-11909710D01*
X7963741Y-11909710D02*
X7973265Y-11900186D01*
X7973265Y-11900186D02*
X7973265Y-11919234D01*
X8173265Y-11919234D02*
X8058979Y-11919234D01*
X8116122Y-11919234D02*
X8116122Y-11719234D01*
X8116122Y-11719234D02*
X8097075Y-11747805D01*
X8097075Y-11747805D02*
X8078027Y-11766853D01*
X8078027Y-11766853D02*
X8058979Y-11776377D01*
X8249456Y-11738281D02*
X8258979Y-11728758D01*
X8258979Y-11728758D02*
X8278027Y-11719234D01*
X8278027Y-11719234D02*
X8325646Y-11719234D01*
X8325646Y-11719234D02*
X8344694Y-11728758D01*
X8344694Y-11728758D02*
X8354217Y-11738281D01*
X8354217Y-11738281D02*
X8363741Y-11757329D01*
X8363741Y-11757329D02*
X8363741Y-11776377D01*
X8363741Y-11776377D02*
X8354217Y-11804948D01*
X8354217Y-11804948D02*
X8239932Y-11919234D01*
X8239932Y-11919234D02*
X8363741Y-11919234D01*
X8535170Y-11719234D02*
X8497075Y-11719234D01*
X8497075Y-11719234D02*
X8478027Y-11728758D01*
X8478027Y-11728758D02*
X8468503Y-11738281D01*
X8468503Y-11738281D02*
X8449456Y-11766853D01*
X8449456Y-11766853D02*
X8439932Y-11804948D01*
X8439932Y-11804948D02*
X8439932Y-11881138D01*
X8439932Y-11881138D02*
X8449456Y-11900186D01*
X8449456Y-11900186D02*
X8458979Y-11909710D01*
X8458979Y-11909710D02*
X8478027Y-11919234D01*
X8478027Y-11919234D02*
X8516122Y-11919234D01*
X8516122Y-11919234D02*
X8535170Y-11909710D01*
X8535170Y-11909710D02*
X8544694Y-11900186D01*
X8544694Y-11900186D02*
X8554218Y-11881138D01*
X8554218Y-11881138D02*
X8554218Y-11833519D01*
X8554218Y-11833519D02*
X8544694Y-11814472D01*
X8544694Y-11814472D02*
X8535170Y-11804948D01*
X8535170Y-11804948D02*
X8516122Y-11795424D01*
X8516122Y-11795424D02*
X8478027Y-11795424D01*
X8478027Y-11795424D02*
X8458979Y-11804948D01*
X8458979Y-11804948D02*
X8449456Y-11814472D01*
X8449456Y-11814472D02*
X8439932Y-11833519D01*
X8678027Y-11719234D02*
X8697075Y-11719234D01*
X8697075Y-11719234D02*
X8716122Y-11728758D01*
X8716122Y-11728758D02*
X8725646Y-11738281D01*
X8725646Y-11738281D02*
X8735170Y-11757329D01*
X8735170Y-11757329D02*
X8744694Y-11795424D01*
X8744694Y-11795424D02*
X8744694Y-11843043D01*
X8744694Y-11843043D02*
X8735170Y-11881138D01*
X8735170Y-11881138D02*
X8725646Y-11900186D01*
X8725646Y-11900186D02*
X8716122Y-11909710D01*
X8716122Y-11909710D02*
X8697075Y-11919234D01*
X8697075Y-11919234D02*
X8678027Y-11919234D01*
X8678027Y-11919234D02*
X8658979Y-11909710D01*
X8658979Y-11909710D02*
X8649456Y-11900186D01*
X8649456Y-11900186D02*
X8639932Y-11881138D01*
X8639932Y-11881138D02*
X8630408Y-11843043D01*
X8630408Y-11843043D02*
X8630408Y-11795424D01*
X8630408Y-11795424D02*
X8639932Y-11757329D01*
X8639932Y-11757329D02*
X8649456Y-11738281D01*
X8649456Y-11738281D02*
X8658979Y-11728758D01*
X8658979Y-11728758D02*
X8678027Y-11719234D01*
X8820884Y-11719234D02*
X8820884Y-11757329D01*
X8897075Y-11719234D02*
X8897075Y-11757329D01*
X9192313Y-11995424D02*
X9182789Y-11985900D01*
X9182789Y-11985900D02*
X9163741Y-11957329D01*
X9163741Y-11957329D02*
X9154218Y-11938281D01*
X9154218Y-11938281D02*
X9144694Y-11909710D01*
X9144694Y-11909710D02*
X9135170Y-11862091D01*
X9135170Y-11862091D02*
X9135170Y-11823996D01*
X9135170Y-11823996D02*
X9144694Y-11776377D01*
X9144694Y-11776377D02*
X9154218Y-11747805D01*
X9154218Y-11747805D02*
X9163741Y-11728758D01*
X9163741Y-11728758D02*
X9182789Y-11700186D01*
X9182789Y-11700186D02*
X9192313Y-11690662D01*
X9249456Y-11719234D02*
X9373265Y-11719234D01*
X9373265Y-11719234D02*
X9306599Y-11795424D01*
X9306599Y-11795424D02*
X9335170Y-11795424D01*
X9335170Y-11795424D02*
X9354218Y-11804948D01*
X9354218Y-11804948D02*
X9363741Y-11814472D01*
X9363741Y-11814472D02*
X9373265Y-11833519D01*
X9373265Y-11833519D02*
X9373265Y-11881138D01*
X9373265Y-11881138D02*
X9363741Y-11900186D01*
X9363741Y-11900186D02*
X9354218Y-11909710D01*
X9354218Y-11909710D02*
X9335170Y-11919234D01*
X9335170Y-11919234D02*
X9278027Y-11919234D01*
X9278027Y-11919234D02*
X9258980Y-11909710D01*
X9258980Y-11909710D02*
X9249456Y-11900186D01*
X9611361Y-11919234D02*
X9611361Y-11719234D01*
X9697075Y-11919234D02*
X9697075Y-11814472D01*
X9697075Y-11814472D02*
X9687551Y-11795424D01*
X9687551Y-11795424D02*
X9668503Y-11785900D01*
X9668503Y-11785900D02*
X9639932Y-11785900D01*
X9639932Y-11785900D02*
X9620884Y-11795424D01*
X9620884Y-11795424D02*
X9611361Y-11804948D01*
X9820884Y-11919234D02*
X9801837Y-11909710D01*
X9801837Y-11909710D02*
X9792313Y-11900186D01*
X9792313Y-11900186D02*
X9782789Y-11881138D01*
X9782789Y-11881138D02*
X9782789Y-11823996D01*
X9782789Y-11823996D02*
X9792313Y-11804948D01*
X9792313Y-11804948D02*
X9801837Y-11795424D01*
X9801837Y-11795424D02*
X9820884Y-11785900D01*
X9820884Y-11785900D02*
X9849456Y-11785900D01*
X9849456Y-11785900D02*
X9868503Y-11795424D01*
X9868503Y-11795424D02*
X9878027Y-11804948D01*
X9878027Y-11804948D02*
X9887551Y-11823996D01*
X9887551Y-11823996D02*
X9887551Y-11881138D01*
X9887551Y-11881138D02*
X9878027Y-11900186D01*
X9878027Y-11900186D02*
X9868503Y-11909710D01*
X9868503Y-11909710D02*
X9849456Y-11919234D01*
X9849456Y-11919234D02*
X9820884Y-11919234D01*
X10001837Y-11919234D02*
X9982789Y-11909710D01*
X9982789Y-11909710D02*
X9973265Y-11890662D01*
X9973265Y-11890662D02*
X9973265Y-11719234D01*
X10154218Y-11909710D02*
X10135170Y-11919234D01*
X10135170Y-11919234D02*
X10097075Y-11919234D01*
X10097075Y-11919234D02*
X10078027Y-11909710D01*
X10078027Y-11909710D02*
X10068503Y-11890662D01*
X10068503Y-11890662D02*
X10068503Y-11814472D01*
X10068503Y-11814472D02*
X10078027Y-11795424D01*
X10078027Y-11795424D02*
X10097075Y-11785900D01*
X10097075Y-11785900D02*
X10135170Y-11785900D01*
X10135170Y-11785900D02*
X10154218Y-11795424D01*
X10154218Y-11795424D02*
X10163742Y-11814472D01*
X10163742Y-11814472D02*
X10163742Y-11833519D01*
X10163742Y-11833519D02*
X10068503Y-11852567D01*
X10239932Y-11909710D02*
X10258980Y-11919234D01*
X10258980Y-11919234D02*
X10297075Y-11919234D01*
X10297075Y-11919234D02*
X10316123Y-11909710D01*
X10316123Y-11909710D02*
X10325646Y-11890662D01*
X10325646Y-11890662D02*
X10325646Y-11881138D01*
X10325646Y-11881138D02*
X10316123Y-11862091D01*
X10316123Y-11862091D02*
X10297075Y-11852567D01*
X10297075Y-11852567D02*
X10268503Y-11852567D01*
X10268503Y-11852567D02*
X10249456Y-11843043D01*
X10249456Y-11843043D02*
X10239932Y-11823996D01*
X10239932Y-11823996D02*
X10239932Y-11814472D01*
X10239932Y-11814472D02*
X10249456Y-11795424D01*
X10249456Y-11795424D02*
X10268503Y-11785900D01*
X10268503Y-11785900D02*
X10297075Y-11785900D01*
X10297075Y-11785900D02*
X10316123Y-11795424D01*
X10392313Y-11995424D02*
X10401837Y-11985900D01*
X10401837Y-11985900D02*
X10420884Y-11957329D01*
X10420884Y-11957329D02*
X10430408Y-11938281D01*
X10430408Y-11938281D02*
X10439932Y-11909710D01*
X10439932Y-11909710D02*
X10449456Y-11862091D01*
X10449456Y-11862091D02*
X10449456Y-11823996D01*
X10449456Y-11823996D02*
X10439932Y-11776377D01*
X10439932Y-11776377D02*
X10430408Y-11747805D01*
X10430408Y-11747805D02*
X10420884Y-11728758D01*
X10420884Y-11728758D02*
X10401837Y-11700186D01*
X10401837Y-11700186D02*
X10392313Y-11690662D01*
X10754218Y-11995424D02*
X10744694Y-11985900D01*
X10744694Y-11985900D02*
X10725646Y-11957329D01*
X10725646Y-11957329D02*
X10716123Y-11938281D01*
X10716123Y-11938281D02*
X10706599Y-11909710D01*
X10706599Y-11909710D02*
X10697075Y-11862091D01*
X10697075Y-11862091D02*
X10697075Y-11823996D01*
X10697075Y-11823996D02*
X10706599Y-11776377D01*
X10706599Y-11776377D02*
X10716123Y-11747805D01*
X10716123Y-11747805D02*
X10725646Y-11728758D01*
X10725646Y-11728758D02*
X10744694Y-11700186D01*
X10744694Y-11700186D02*
X10754218Y-11690662D01*
X10830408Y-11785900D02*
X10830408Y-11919234D01*
X10830408Y-11804948D02*
X10839932Y-11795424D01*
X10839932Y-11795424D02*
X10858980Y-11785900D01*
X10858980Y-11785900D02*
X10887551Y-11785900D01*
X10887551Y-11785900D02*
X10906599Y-11795424D01*
X10906599Y-11795424D02*
X10916123Y-11814472D01*
X10916123Y-11814472D02*
X10916123Y-11919234D01*
X11039932Y-11919234D02*
X11020884Y-11909710D01*
X11020884Y-11909710D02*
X11011361Y-11900186D01*
X11011361Y-11900186D02*
X11001837Y-11881138D01*
X11001837Y-11881138D02*
X11001837Y-11823996D01*
X11001837Y-11823996D02*
X11011361Y-11804948D01*
X11011361Y-11804948D02*
X11020884Y-11795424D01*
X11020884Y-11795424D02*
X11039932Y-11785900D01*
X11039932Y-11785900D02*
X11068504Y-11785900D01*
X11068504Y-11785900D02*
X11087551Y-11795424D01*
X11087551Y-11795424D02*
X11097075Y-11804948D01*
X11097075Y-11804948D02*
X11106599Y-11823996D01*
X11106599Y-11823996D02*
X11106599Y-11881138D01*
X11106599Y-11881138D02*
X11097075Y-11900186D01*
X11097075Y-11900186D02*
X11087551Y-11909710D01*
X11087551Y-11909710D02*
X11068504Y-11919234D01*
X11068504Y-11919234D02*
X11039932Y-11919234D01*
X11163742Y-11785900D02*
X11239932Y-11785900D01*
X11192313Y-11719234D02*
X11192313Y-11890662D01*
X11192313Y-11890662D02*
X11201837Y-11909710D01*
X11201837Y-11909710D02*
X11220884Y-11919234D01*
X11220884Y-11919234D02*
X11239932Y-11919234D01*
X11458980Y-11785900D02*
X11458980Y-11985900D01*
X11458980Y-11795424D02*
X11478027Y-11785900D01*
X11478027Y-11785900D02*
X11516123Y-11785900D01*
X11516123Y-11785900D02*
X11535170Y-11795424D01*
X11535170Y-11795424D02*
X11544694Y-11804948D01*
X11544694Y-11804948D02*
X11554218Y-11823996D01*
X11554218Y-11823996D02*
X11554218Y-11881138D01*
X11554218Y-11881138D02*
X11544694Y-11900186D01*
X11544694Y-11900186D02*
X11535170Y-11909710D01*
X11535170Y-11909710D02*
X11516123Y-11919234D01*
X11516123Y-11919234D02*
X11478027Y-11919234D01*
X11478027Y-11919234D02*
X11458980Y-11909710D01*
X11668503Y-11919234D02*
X11649456Y-11909710D01*
X11649456Y-11909710D02*
X11639932Y-11890662D01*
X11639932Y-11890662D02*
X11639932Y-11719234D01*
X11830408Y-11919234D02*
X11830408Y-11814472D01*
X11830408Y-11814472D02*
X11820884Y-11795424D01*
X11820884Y-11795424D02*
X11801837Y-11785900D01*
X11801837Y-11785900D02*
X11763742Y-11785900D01*
X11763742Y-11785900D02*
X11744694Y-11795424D01*
X11830408Y-11909710D02*
X11811361Y-11919234D01*
X11811361Y-11919234D02*
X11763742Y-11919234D01*
X11763742Y-11919234D02*
X11744694Y-11909710D01*
X11744694Y-11909710D02*
X11735170Y-11890662D01*
X11735170Y-11890662D02*
X11735170Y-11871615D01*
X11735170Y-11871615D02*
X11744694Y-11852567D01*
X11744694Y-11852567D02*
X11763742Y-11843043D01*
X11763742Y-11843043D02*
X11811361Y-11843043D01*
X11811361Y-11843043D02*
X11830408Y-11833519D01*
X11897075Y-11785900D02*
X11973265Y-11785900D01*
X11925646Y-11719234D02*
X11925646Y-11890662D01*
X11925646Y-11890662D02*
X11935170Y-11909710D01*
X11935170Y-11909710D02*
X11954218Y-11919234D01*
X11954218Y-11919234D02*
X11973265Y-11919234D01*
X12116123Y-11909710D02*
X12097075Y-11919234D01*
X12097075Y-11919234D02*
X12058980Y-11919234D01*
X12058980Y-11919234D02*
X12039932Y-11909710D01*
X12039932Y-11909710D02*
X12030408Y-11890662D01*
X12030408Y-11890662D02*
X12030408Y-11814472D01*
X12030408Y-11814472D02*
X12039932Y-11795424D01*
X12039932Y-11795424D02*
X12058980Y-11785900D01*
X12058980Y-11785900D02*
X12097075Y-11785900D01*
X12097075Y-11785900D02*
X12116123Y-11795424D01*
X12116123Y-11795424D02*
X12125646Y-11814472D01*
X12125646Y-11814472D02*
X12125646Y-11833519D01*
X12125646Y-11833519D02*
X12030408Y-11852567D01*
X12297075Y-11919234D02*
X12297075Y-11719234D01*
X12297075Y-11909710D02*
X12278027Y-11919234D01*
X12278027Y-11919234D02*
X12239932Y-11919234D01*
X12239932Y-11919234D02*
X12220884Y-11909710D01*
X12220884Y-11909710D02*
X12211361Y-11900186D01*
X12211361Y-11900186D02*
X12201837Y-11881138D01*
X12201837Y-11881138D02*
X12201837Y-11823996D01*
X12201837Y-11823996D02*
X12211361Y-11804948D01*
X12211361Y-11804948D02*
X12220884Y-11795424D01*
X12220884Y-11795424D02*
X12239932Y-11785900D01*
X12239932Y-11785900D02*
X12278027Y-11785900D01*
X12278027Y-11785900D02*
X12297075Y-11795424D01*
X12373265Y-11995424D02*
X12382789Y-11985900D01*
X12382789Y-11985900D02*
X12401837Y-11957329D01*
X12401837Y-11957329D02*
X12411361Y-11938281D01*
X12411361Y-11938281D02*
X12420884Y-11909710D01*
X12420884Y-11909710D02*
X12430408Y-11862091D01*
X12430408Y-11862091D02*
X12430408Y-11823996D01*
X12430408Y-11823996D02*
X12420884Y-11776377D01*
X12420884Y-11776377D02*
X12411361Y-11747805D01*
X12411361Y-11747805D02*
X12401837Y-11728758D01*
X12401837Y-11728758D02*
X12382789Y-11700186D01*
X12382789Y-11700186D02*
X12373265Y-11690662D01*
X5517250Y-12047750D02*
X5517250Y-12247750D01*
X5417250Y-12147750D02*
X5617250Y-12147750D01*
X5963741Y-12105900D02*
X5963741Y-12239234D01*
X5916122Y-12029710D02*
X5868503Y-12172567D01*
X5868503Y-12172567D02*
X5992312Y-12172567D01*
X6068503Y-12220186D02*
X6078027Y-12229710D01*
X6078027Y-12229710D02*
X6068503Y-12239234D01*
X6068503Y-12239234D02*
X6058979Y-12229710D01*
X6058979Y-12229710D02*
X6068503Y-12220186D01*
X6068503Y-12220186D02*
X6068503Y-12239234D01*
X6201836Y-12039234D02*
X6220884Y-12039234D01*
X6220884Y-12039234D02*
X6239932Y-12048758D01*
X6239932Y-12048758D02*
X6249455Y-12058281D01*
X6249455Y-12058281D02*
X6258979Y-12077329D01*
X6258979Y-12077329D02*
X6268503Y-12115424D01*
X6268503Y-12115424D02*
X6268503Y-12163043D01*
X6268503Y-12163043D02*
X6258979Y-12201138D01*
X6258979Y-12201138D02*
X6249455Y-12220186D01*
X6249455Y-12220186D02*
X6239932Y-12229710D01*
X6239932Y-12229710D02*
X6220884Y-12239234D01*
X6220884Y-12239234D02*
X6201836Y-12239234D01*
X6201836Y-12239234D02*
X6182789Y-12229710D01*
X6182789Y-12229710D02*
X6173265Y-12220186D01*
X6173265Y-12220186D02*
X6163741Y-12201138D01*
X6163741Y-12201138D02*
X6154217Y-12163043D01*
X6154217Y-12163043D02*
X6154217Y-12115424D01*
X6154217Y-12115424D02*
X6163741Y-12077329D01*
X6163741Y-12077329D02*
X6173265Y-12058281D01*
X6173265Y-12058281D02*
X6182789Y-12048758D01*
X6182789Y-12048758D02*
X6201836Y-12039234D01*
X6392312Y-12039234D02*
X6411360Y-12039234D01*
X6411360Y-12039234D02*
X6430408Y-12048758D01*
X6430408Y-12048758D02*
X6439932Y-12058281D01*
X6439932Y-12058281D02*
X6449455Y-12077329D01*
X6449455Y-12077329D02*
X6458979Y-12115424D01*
X6458979Y-12115424D02*
X6458979Y-12163043D01*
X6458979Y-12163043D02*
X6449455Y-12201138D01*
X6449455Y-12201138D02*
X6439932Y-12220186D01*
X6439932Y-12220186D02*
X6430408Y-12229710D01*
X6430408Y-12229710D02*
X6411360Y-12239234D01*
X6411360Y-12239234D02*
X6392312Y-12239234D01*
X6392312Y-12239234D02*
X6373265Y-12229710D01*
X6373265Y-12229710D02*
X6363741Y-12220186D01*
X6363741Y-12220186D02*
X6354217Y-12201138D01*
X6354217Y-12201138D02*
X6344693Y-12163043D01*
X6344693Y-12163043D02*
X6344693Y-12115424D01*
X6344693Y-12115424D02*
X6354217Y-12077329D01*
X6354217Y-12077329D02*
X6363741Y-12058281D01*
X6363741Y-12058281D02*
X6373265Y-12048758D01*
X6373265Y-12048758D02*
X6392312Y-12039234D01*
X6582789Y-12039234D02*
X6601836Y-12039234D01*
X6601836Y-12039234D02*
X6620884Y-12048758D01*
X6620884Y-12048758D02*
X6630408Y-12058281D01*
X6630408Y-12058281D02*
X6639932Y-12077329D01*
X6639932Y-12077329D02*
X6649455Y-12115424D01*
X6649455Y-12115424D02*
X6649455Y-12163043D01*
X6649455Y-12163043D02*
X6639932Y-12201138D01*
X6639932Y-12201138D02*
X6630408Y-12220186D01*
X6630408Y-12220186D02*
X6620884Y-12229710D01*
X6620884Y-12229710D02*
X6601836Y-12239234D01*
X6601836Y-12239234D02*
X6582789Y-12239234D01*
X6582789Y-12239234D02*
X6563741Y-12229710D01*
X6563741Y-12229710D02*
X6554217Y-12220186D01*
X6554217Y-12220186D02*
X6544693Y-12201138D01*
X6544693Y-12201138D02*
X6535170Y-12163043D01*
X6535170Y-12163043D02*
X6535170Y-12115424D01*
X6535170Y-12115424D02*
X6544693Y-12077329D01*
X6544693Y-12077329D02*
X6554217Y-12058281D01*
X6554217Y-12058281D02*
X6563741Y-12048758D01*
X6563741Y-12048758D02*
X6582789Y-12039234D01*
X6735170Y-12239234D02*
X6735170Y-12105900D01*
X6735170Y-12124948D02*
X6744693Y-12115424D01*
X6744693Y-12115424D02*
X6763741Y-12105900D01*
X6763741Y-12105900D02*
X6792313Y-12105900D01*
X6792313Y-12105900D02*
X6811360Y-12115424D01*
X6811360Y-12115424D02*
X6820884Y-12134472D01*
X6820884Y-12134472D02*
X6820884Y-12239234D01*
X6820884Y-12134472D02*
X6830408Y-12115424D01*
X6830408Y-12115424D02*
X6849455Y-12105900D01*
X6849455Y-12105900D02*
X6878027Y-12105900D01*
X6878027Y-12105900D02*
X6897074Y-12115424D01*
X6897074Y-12115424D02*
X6906598Y-12134472D01*
X6906598Y-12134472D02*
X6906598Y-12239234D01*
X7001836Y-12239234D02*
X7001836Y-12105900D01*
X7001836Y-12124948D02*
X7011360Y-12115424D01*
X7011360Y-12115424D02*
X7030408Y-12105900D01*
X7030408Y-12105900D02*
X7058979Y-12105900D01*
X7058979Y-12105900D02*
X7078027Y-12115424D01*
X7078027Y-12115424D02*
X7087551Y-12134472D01*
X7087551Y-12134472D02*
X7087551Y-12239234D01*
X7087551Y-12134472D02*
X7097074Y-12115424D01*
X7097074Y-12115424D02*
X7116122Y-12105900D01*
X7116122Y-12105900D02*
X7144693Y-12105900D01*
X7144693Y-12105900D02*
X7163741Y-12115424D01*
X7163741Y-12115424D02*
X7173265Y-12134472D01*
X7173265Y-12134472D02*
X7173265Y-12239234D01*
X7563741Y-12029710D02*
X7392313Y-12286853D01*
X7820884Y-12039234D02*
X7839932Y-12039234D01*
X7839932Y-12039234D02*
X7858979Y-12048758D01*
X7858979Y-12048758D02*
X7868503Y-12058281D01*
X7868503Y-12058281D02*
X7878027Y-12077329D01*
X7878027Y-12077329D02*
X7887551Y-12115424D01*
X7887551Y-12115424D02*
X7887551Y-12163043D01*
X7887551Y-12163043D02*
X7878027Y-12201138D01*
X7878027Y-12201138D02*
X7868503Y-12220186D01*
X7868503Y-12220186D02*
X7858979Y-12229710D01*
X7858979Y-12229710D02*
X7839932Y-12239234D01*
X7839932Y-12239234D02*
X7820884Y-12239234D01*
X7820884Y-12239234D02*
X7801836Y-12229710D01*
X7801836Y-12229710D02*
X7792313Y-12220186D01*
X7792313Y-12220186D02*
X7782789Y-12201138D01*
X7782789Y-12201138D02*
X7773265Y-12163043D01*
X7773265Y-12163043D02*
X7773265Y-12115424D01*
X7773265Y-12115424D02*
X7782789Y-12077329D01*
X7782789Y-12077329D02*
X7792313Y-12058281D01*
X7792313Y-12058281D02*
X7801836Y-12048758D01*
X7801836Y-12048758D02*
X7820884Y-12039234D01*
X7973265Y-12220186D02*
X7982789Y-12229710D01*
X7982789Y-12229710D02*
X7973265Y-12239234D01*
X7973265Y-12239234D02*
X7963741Y-12229710D01*
X7963741Y-12229710D02*
X7973265Y-12220186D01*
X7973265Y-12220186D02*
X7973265Y-12239234D01*
X8173265Y-12239234D02*
X8058979Y-12239234D01*
X8116122Y-12239234D02*
X8116122Y-12039234D01*
X8116122Y-12039234D02*
X8097075Y-12067805D01*
X8097075Y-12067805D02*
X8078027Y-12086853D01*
X8078027Y-12086853D02*
X8058979Y-12096377D01*
X8354217Y-12039234D02*
X8258979Y-12039234D01*
X8258979Y-12039234D02*
X8249456Y-12134472D01*
X8249456Y-12134472D02*
X8258979Y-12124948D01*
X8258979Y-12124948D02*
X8278027Y-12115424D01*
X8278027Y-12115424D02*
X8325646Y-12115424D01*
X8325646Y-12115424D02*
X8344694Y-12124948D01*
X8344694Y-12124948D02*
X8354217Y-12134472D01*
X8354217Y-12134472D02*
X8363741Y-12153519D01*
X8363741Y-12153519D02*
X8363741Y-12201138D01*
X8363741Y-12201138D02*
X8354217Y-12220186D01*
X8354217Y-12220186D02*
X8344694Y-12229710D01*
X8344694Y-12229710D02*
X8325646Y-12239234D01*
X8325646Y-12239234D02*
X8278027Y-12239234D01*
X8278027Y-12239234D02*
X8258979Y-12229710D01*
X8258979Y-12229710D02*
X8249456Y-12220186D01*
X8430408Y-12039234D02*
X8563741Y-12039234D01*
X8563741Y-12039234D02*
X8478027Y-12239234D01*
X8735170Y-12039234D02*
X8639932Y-12039234D01*
X8639932Y-12039234D02*
X8630408Y-12134472D01*
X8630408Y-12134472D02*
X8639932Y-12124948D01*
X8639932Y-12124948D02*
X8658979Y-12115424D01*
X8658979Y-12115424D02*
X8706599Y-12115424D01*
X8706599Y-12115424D02*
X8725646Y-12124948D01*
X8725646Y-12124948D02*
X8735170Y-12134472D01*
X8735170Y-12134472D02*
X8744694Y-12153519D01*
X8744694Y-12153519D02*
X8744694Y-12201138D01*
X8744694Y-12201138D02*
X8735170Y-12220186D01*
X8735170Y-12220186D02*
X8725646Y-12229710D01*
X8725646Y-12229710D02*
X8706599Y-12239234D01*
X8706599Y-12239234D02*
X8658979Y-12239234D01*
X8658979Y-12239234D02*
X8639932Y-12229710D01*
X8639932Y-12229710D02*
X8630408Y-12220186D01*
X8820884Y-12039234D02*
X8820884Y-12077329D01*
X8897075Y-12039234D02*
X8897075Y-12077329D01*
X9192313Y-12315424D02*
X9182789Y-12305900D01*
X9182789Y-12305900D02*
X9163741Y-12277329D01*
X9163741Y-12277329D02*
X9154218Y-12258281D01*
X9154218Y-12258281D02*
X9144694Y-12229710D01*
X9144694Y-12229710D02*
X9135170Y-12182091D01*
X9135170Y-12182091D02*
X9135170Y-12143996D01*
X9135170Y-12143996D02*
X9144694Y-12096377D01*
X9144694Y-12096377D02*
X9154218Y-12067805D01*
X9154218Y-12067805D02*
X9163741Y-12048758D01*
X9163741Y-12048758D02*
X9182789Y-12020186D01*
X9182789Y-12020186D02*
X9192313Y-12010662D01*
X9278027Y-12239234D02*
X9316122Y-12239234D01*
X9316122Y-12239234D02*
X9335170Y-12229710D01*
X9335170Y-12229710D02*
X9344694Y-12220186D01*
X9344694Y-12220186D02*
X9363741Y-12191615D01*
X9363741Y-12191615D02*
X9373265Y-12153519D01*
X9373265Y-12153519D02*
X9373265Y-12077329D01*
X9373265Y-12077329D02*
X9363741Y-12058281D01*
X9363741Y-12058281D02*
X9354218Y-12048758D01*
X9354218Y-12048758D02*
X9335170Y-12039234D01*
X9335170Y-12039234D02*
X9297075Y-12039234D01*
X9297075Y-12039234D02*
X9278027Y-12048758D01*
X9278027Y-12048758D02*
X9268503Y-12058281D01*
X9268503Y-12058281D02*
X9258980Y-12077329D01*
X9258980Y-12077329D02*
X9258980Y-12124948D01*
X9258980Y-12124948D02*
X9268503Y-12143996D01*
X9268503Y-12143996D02*
X9278027Y-12153519D01*
X9278027Y-12153519D02*
X9297075Y-12163043D01*
X9297075Y-12163043D02*
X9335170Y-12163043D01*
X9335170Y-12163043D02*
X9354218Y-12153519D01*
X9354218Y-12153519D02*
X9363741Y-12143996D01*
X9363741Y-12143996D02*
X9373265Y-12124948D01*
X9611361Y-12239234D02*
X9611361Y-12039234D01*
X9697075Y-12239234D02*
X9697075Y-12134472D01*
X9697075Y-12134472D02*
X9687551Y-12115424D01*
X9687551Y-12115424D02*
X9668503Y-12105900D01*
X9668503Y-12105900D02*
X9639932Y-12105900D01*
X9639932Y-12105900D02*
X9620884Y-12115424D01*
X9620884Y-12115424D02*
X9611361Y-12124948D01*
X9820884Y-12239234D02*
X9801837Y-12229710D01*
X9801837Y-12229710D02*
X9792313Y-12220186D01*
X9792313Y-12220186D02*
X9782789Y-12201138D01*
X9782789Y-12201138D02*
X9782789Y-12143996D01*
X9782789Y-12143996D02*
X9792313Y-12124948D01*
X9792313Y-12124948D02*
X9801837Y-12115424D01*
X9801837Y-12115424D02*
X9820884Y-12105900D01*
X9820884Y-12105900D02*
X9849456Y-12105900D01*
X9849456Y-12105900D02*
X9868503Y-12115424D01*
X9868503Y-12115424D02*
X9878027Y-12124948D01*
X9878027Y-12124948D02*
X9887551Y-12143996D01*
X9887551Y-12143996D02*
X9887551Y-12201138D01*
X9887551Y-12201138D02*
X9878027Y-12220186D01*
X9878027Y-12220186D02*
X9868503Y-12229710D01*
X9868503Y-12229710D02*
X9849456Y-12239234D01*
X9849456Y-12239234D02*
X9820884Y-12239234D01*
X10001837Y-12239234D02*
X9982789Y-12229710D01*
X9982789Y-12229710D02*
X9973265Y-12210662D01*
X9973265Y-12210662D02*
X9973265Y-12039234D01*
X10154218Y-12229710D02*
X10135170Y-12239234D01*
X10135170Y-12239234D02*
X10097075Y-12239234D01*
X10097075Y-12239234D02*
X10078027Y-12229710D01*
X10078027Y-12229710D02*
X10068503Y-12210662D01*
X10068503Y-12210662D02*
X10068503Y-12134472D01*
X10068503Y-12134472D02*
X10078027Y-12115424D01*
X10078027Y-12115424D02*
X10097075Y-12105900D01*
X10097075Y-12105900D02*
X10135170Y-12105900D01*
X10135170Y-12105900D02*
X10154218Y-12115424D01*
X10154218Y-12115424D02*
X10163742Y-12134472D01*
X10163742Y-12134472D02*
X10163742Y-12153519D01*
X10163742Y-12153519D02*
X10068503Y-12172567D01*
X10239932Y-12229710D02*
X10258980Y-12239234D01*
X10258980Y-12239234D02*
X10297075Y-12239234D01*
X10297075Y-12239234D02*
X10316123Y-12229710D01*
X10316123Y-12229710D02*
X10325646Y-12210662D01*
X10325646Y-12210662D02*
X10325646Y-12201138D01*
X10325646Y-12201138D02*
X10316123Y-12182091D01*
X10316123Y-12182091D02*
X10297075Y-12172567D01*
X10297075Y-12172567D02*
X10268503Y-12172567D01*
X10268503Y-12172567D02*
X10249456Y-12163043D01*
X10249456Y-12163043D02*
X10239932Y-12143996D01*
X10239932Y-12143996D02*
X10239932Y-12134472D01*
X10239932Y-12134472D02*
X10249456Y-12115424D01*
X10249456Y-12115424D02*
X10268503Y-12105900D01*
X10268503Y-12105900D02*
X10297075Y-12105900D01*
X10297075Y-12105900D02*
X10316123Y-12115424D01*
X10392313Y-12315424D02*
X10401837Y-12305900D01*
X10401837Y-12305900D02*
X10420884Y-12277329D01*
X10420884Y-12277329D02*
X10430408Y-12258281D01*
X10430408Y-12258281D02*
X10439932Y-12229710D01*
X10439932Y-12229710D02*
X10449456Y-12182091D01*
X10449456Y-12182091D02*
X10449456Y-12143996D01*
X10449456Y-12143996D02*
X10439932Y-12096377D01*
X10439932Y-12096377D02*
X10430408Y-12067805D01*
X10430408Y-12067805D02*
X10420884Y-12048758D01*
X10420884Y-12048758D02*
X10401837Y-12020186D01*
X10401837Y-12020186D02*
X10392313Y-12010662D01*
X10754218Y-12315424D02*
X10744694Y-12305900D01*
X10744694Y-12305900D02*
X10725646Y-12277329D01*
X10725646Y-12277329D02*
X10716123Y-12258281D01*
X10716123Y-12258281D02*
X10706599Y-12229710D01*
X10706599Y-12229710D02*
X10697075Y-12182091D01*
X10697075Y-12182091D02*
X10697075Y-12143996D01*
X10697075Y-12143996D02*
X10706599Y-12096377D01*
X10706599Y-12096377D02*
X10716123Y-12067805D01*
X10716123Y-12067805D02*
X10725646Y-12048758D01*
X10725646Y-12048758D02*
X10744694Y-12020186D01*
X10744694Y-12020186D02*
X10754218Y-12010662D01*
X10830408Y-12105900D02*
X10830408Y-12239234D01*
X10830408Y-12124948D02*
X10839932Y-12115424D01*
X10839932Y-12115424D02*
X10858980Y-12105900D01*
X10858980Y-12105900D02*
X10887551Y-12105900D01*
X10887551Y-12105900D02*
X10906599Y-12115424D01*
X10906599Y-12115424D02*
X10916123Y-12134472D01*
X10916123Y-12134472D02*
X10916123Y-12239234D01*
X11039932Y-12239234D02*
X11020884Y-12229710D01*
X11020884Y-12229710D02*
X11011361Y-12220186D01*
X11011361Y-12220186D02*
X11001837Y-12201138D01*
X11001837Y-12201138D02*
X11001837Y-12143996D01*
X11001837Y-12143996D02*
X11011361Y-12124948D01*
X11011361Y-12124948D02*
X11020884Y-12115424D01*
X11020884Y-12115424D02*
X11039932Y-12105900D01*
X11039932Y-12105900D02*
X11068504Y-12105900D01*
X11068504Y-12105900D02*
X11087551Y-12115424D01*
X11087551Y-12115424D02*
X11097075Y-12124948D01*
X11097075Y-12124948D02*
X11106599Y-12143996D01*
X11106599Y-12143996D02*
X11106599Y-12201138D01*
X11106599Y-12201138D02*
X11097075Y-12220186D01*
X11097075Y-12220186D02*
X11087551Y-12229710D01*
X11087551Y-12229710D02*
X11068504Y-12239234D01*
X11068504Y-12239234D02*
X11039932Y-12239234D01*
X11163742Y-12105900D02*
X11239932Y-12105900D01*
X11192313Y-12039234D02*
X11192313Y-12210662D01*
X11192313Y-12210662D02*
X11201837Y-12229710D01*
X11201837Y-12229710D02*
X11220884Y-12239234D01*
X11220884Y-12239234D02*
X11239932Y-12239234D01*
X11458980Y-12105900D02*
X11458980Y-12305900D01*
X11458980Y-12115424D02*
X11478027Y-12105900D01*
X11478027Y-12105900D02*
X11516123Y-12105900D01*
X11516123Y-12105900D02*
X11535170Y-12115424D01*
X11535170Y-12115424D02*
X11544694Y-12124948D01*
X11544694Y-12124948D02*
X11554218Y-12143996D01*
X11554218Y-12143996D02*
X11554218Y-12201138D01*
X11554218Y-12201138D02*
X11544694Y-12220186D01*
X11544694Y-12220186D02*
X11535170Y-12229710D01*
X11535170Y-12229710D02*
X11516123Y-12239234D01*
X11516123Y-12239234D02*
X11478027Y-12239234D01*
X11478027Y-12239234D02*
X11458980Y-12229710D01*
X11668503Y-12239234D02*
X11649456Y-12229710D01*
X11649456Y-12229710D02*
X11639932Y-12210662D01*
X11639932Y-12210662D02*
X11639932Y-12039234D01*
X11830408Y-12239234D02*
X11830408Y-12134472D01*
X11830408Y-12134472D02*
X11820884Y-12115424D01*
X11820884Y-12115424D02*
X11801837Y-12105900D01*
X11801837Y-12105900D02*
X11763742Y-12105900D01*
X11763742Y-12105900D02*
X11744694Y-12115424D01*
X11830408Y-12229710D02*
X11811361Y-12239234D01*
X11811361Y-12239234D02*
X11763742Y-12239234D01*
X11763742Y-12239234D02*
X11744694Y-12229710D01*
X11744694Y-12229710D02*
X11735170Y-12210662D01*
X11735170Y-12210662D02*
X11735170Y-12191615D01*
X11735170Y-12191615D02*
X11744694Y-12172567D01*
X11744694Y-12172567D02*
X11763742Y-12163043D01*
X11763742Y-12163043D02*
X11811361Y-12163043D01*
X11811361Y-12163043D02*
X11830408Y-12153519D01*
X11897075Y-12105900D02*
X11973265Y-12105900D01*
X11925646Y-12039234D02*
X11925646Y-12210662D01*
X11925646Y-12210662D02*
X11935170Y-12229710D01*
X11935170Y-12229710D02*
X11954218Y-12239234D01*
X11954218Y-12239234D02*
X11973265Y-12239234D01*
X12116123Y-12229710D02*
X12097075Y-12239234D01*
X12097075Y-12239234D02*
X12058980Y-12239234D01*
X12058980Y-12239234D02*
X12039932Y-12229710D01*
X12039932Y-12229710D02*
X12030408Y-12210662D01*
X12030408Y-12210662D02*
X12030408Y-12134472D01*
X12030408Y-12134472D02*
X12039932Y-12115424D01*
X12039932Y-12115424D02*
X12058980Y-12105900D01*
X12058980Y-12105900D02*
X12097075Y-12105900D01*
X12097075Y-12105900D02*
X12116123Y-12115424D01*
X12116123Y-12115424D02*
X12125646Y-12134472D01*
X12125646Y-12134472D02*
X12125646Y-12153519D01*
X12125646Y-12153519D02*
X12030408Y-12172567D01*
X12297075Y-12239234D02*
X12297075Y-12039234D01*
X12297075Y-12229710D02*
X12278027Y-12239234D01*
X12278027Y-12239234D02*
X12239932Y-12239234D01*
X12239932Y-12239234D02*
X12220884Y-12229710D01*
X12220884Y-12229710D02*
X12211361Y-12220186D01*
X12211361Y-12220186D02*
X12201837Y-12201138D01*
X12201837Y-12201138D02*
X12201837Y-12143996D01*
X12201837Y-12143996D02*
X12211361Y-12124948D01*
X12211361Y-12124948D02*
X12220884Y-12115424D01*
X12220884Y-12115424D02*
X12239932Y-12105900D01*
X12239932Y-12105900D02*
X12278027Y-12105900D01*
X12278027Y-12105900D02*
X12297075Y-12115424D01*
X12373265Y-12315424D02*
X12382789Y-12305900D01*
X12382789Y-12305900D02*
X12401837Y-12277329D01*
X12401837Y-12277329D02*
X12411361Y-12258281D01*
X12411361Y-12258281D02*
X12420884Y-12229710D01*
X12420884Y-12229710D02*
X12430408Y-12182091D01*
X12430408Y-12182091D02*
X12430408Y-12143996D01*
X12430408Y-12143996D02*
X12420884Y-12096377D01*
X12420884Y-12096377D02*
X12411361Y-12067805D01*
X12411361Y-12067805D02*
X12401837Y-12048758D01*
X12401837Y-12048758D02*
X12382789Y-12020186D01*
X12382789Y-12020186D02*
X12373265Y-12010662D01*
M02*
